<?xml version="1.0" standalone="no"?>
<!DOCTYPE svg PUBLIC "-//W3C//DTD SVG 1.1//EN" "http://www.w3.org/Graphics/SVG/1.1/DTD/svg11.dtd" >
<svg xmlns="http://www.w3.org/2000/svg">
<metadata>Generated by IcoMoon</metadata>
<defs>
<font id="icomoon" horiz-adv-x="1024">
<font-face units-per-em="1024" ascent="960" descent="-64" />
<missing-glyph horiz-adv-x="1024" />
<glyph unicode="&#x20;" horiz-adv-x="512" d="" />
<glyph unicode="&#xe900;" glyph-name="acorn" d="M912 544c-0.064 55.146-21.997 108.014-60.992 147.008s-91.862 60.928-147.008 60.992h-176v16c0 29.704 11.798 58.192 32.803 79.196s49.491 32.804 79.197 32.804c4.243 0 8.314 1.686 11.315 4.686 2.998 3 4.685 7.070 4.685 11.314s-1.686 8.313-4.685 11.314c-3.002 3.001-7.072 4.686-11.315 4.686-38.192 0-74.819-15.172-101.824-42.177s-42.176-63.632-42.176-101.823v-16h-176c-55.146-0.064-108.014-21.998-147.008-60.992s-60.929-91.862-60.992-147.008c0.011-9.917 3.094-19.587 8.824-27.68s13.826-14.214 23.176-17.52v-50.8c0-134.442 129.16-238.16 232.96-321.478 61.2-49.162 119.040-95.603 119.040-126.522 0-4.243 1.686-8.314 4.685-11.315 3.002-2.998 7.072-4.685 11.315-4.685s8.314 1.686 11.315 4.685c2.998 3.002 4.685 7.072 4.685 11.315 0 30.918 57.84 77.36 119.040 126.522 103.798 83.318 232.96 187.037 232.96 321.478v50.8c9.35 3.306 17.446 9.427 23.178 17.52 5.728 8.093 8.81 17.763 8.822 27.68zM627.002 151.478c-50.042-40.198-92.922-74.598-115.002-107.158-22.080 32.56-64.96 66.96-115.002 107.158-98.478 79.040-220.998 177.402-220.998 296.522v48h672v-48c0-119.12-122.522-217.482-220.998-296.522zM864 528h-704c-4.244 0-8.313 1.686-11.314 4.685-3.001 3.002-4.686 7.072-4.686 11.315 0.053 46.662 18.613 91.398 51.608 124.392s77.731 51.555 124.392 51.608h384c46.662-0.053 91.398-18.613 124.394-51.608s51.552-77.73 51.606-124.392c0-4.243-1.686-8.314-4.685-11.315-3.002-2.998-7.072-4.685-11.315-4.685z" />
<glyph unicode="&#xe901;" glyph-name="addressbook" d="M618.8 388.998c26.848 16.323 47.622 40.979 59.155 70.208 11.53 29.229 13.184 61.424 4.707 91.683-8.474 30.256-26.611 56.909-51.648 75.894-25.034 18.988-55.594 29.265-87.014 29.265s-61.981-10.277-87.014-29.265c-25.037-18.986-43.174-45.638-51.648-75.894-8.477-30.259-6.822-62.454 4.707-91.683 11.533-29.229 32.307-53.885 59.155-70.208-51.981-15.805-97.536-47.834-130-91.398-2.547-3.395-3.638-7.661-3.040-11.862 0.602-4.202 2.845-7.99 6.24-10.538s7.661-3.638 11.862-3.040c4.202 0.602 7.99 2.845 10.538 6.24 20.864 27.821 47.92 50.4 79.024 65.952s65.402 23.648 100.176 23.648c34.774 0 69.072-8.096 100.176-23.648s58.16-38.131 79.024-65.952c2.547-3.395 6.336-5.638 10.538-6.24 4.202-0.598 8.467 0.493 11.862 3.040s5.638 6.336 6.24 10.538c0.598 4.202-0.493 8.467-3.040 11.862-32.47 43.555-78.026 75.584-130 91.398zM432 512c0 22.15 6.57 43.805 18.877 62.224 12.304 18.419 29.798 32.774 50.262 41.251s42.986 10.694 64.71 6.371c21.725-4.32 41.683-14.986 57.347-30.65s26.33-35.622 30.65-57.347c4.323-21.725 2.106-44.246-6.371-64.71s-22.832-37.958-41.251-50.262c-18.419-12.307-40.074-18.877-62.224-18.877-29.706 0-58.192 11.798-79.197 32.803s-32.803 49.491-32.803 79.197zM832 848h-576c-12.73 0-24.94-5.057-33.941-14.059s-14.059-21.211-14.059-33.941v-112h-80c-4.244 0-8.313-1.686-11.314-4.686s-4.686-7.070-4.686-11.314c0-4.244 1.686-8.313 4.686-11.314s7.070-4.686 11.314-4.686h80v-192h-80c-4.244 0-8.313-1.686-11.314-4.685-3.001-3.002-4.686-7.072-4.686-11.315s1.686-8.314 4.686-11.315c3-2.998 7.070-4.685 11.314-4.685h80v-192h-80c-4.244 0-8.313-1.686-11.314-4.685-3.001-3.002-4.686-7.072-4.686-11.315s1.686-8.314 4.686-11.315c3-2.998 7.070-4.685 11.314-4.685h80v-112c0-12.73 5.057-24.941 14.059-33.942s21.211-14.058 33.941-14.058h576c12.73 0 24.941 5.056 33.942 14.058s14.058 21.213 14.058 33.942v704c0 12.73-5.056 24.94-14.058 33.941s-21.213 14.059-33.942 14.059zM848 96c0-4.243-1.686-8.314-4.685-11.315-3.002-2.998-7.072-4.685-11.315-4.685h-576c-4.244 0-8.313 1.686-11.314 4.685-3.001 3.002-4.686 7.072-4.686 11.315v704c0 4.244 1.686 8.313 4.686 11.314s7.070 4.686 11.314 4.686h576c4.243 0 8.314-1.686 11.315-4.686 2.998-3 4.685-7.070 4.685-11.314v-704z" />
<glyph unicode="&#xe902;" glyph-name="addressbooktabs" d="M832 816h-640c-12.73 0-24.94-5.057-33.941-14.059s-14.059-21.211-14.059-33.941v-640c0-12.73 5.057-24.941 14.059-33.942s21.211-14.058 33.941-14.058h640c12.73 0 24.941 5.056 33.942 14.058s14.058 21.213 14.058 33.942v640c0 12.73-5.056 24.94-14.058 33.941s-21.213 14.059-33.942 14.059zM752 560h96v-224h-96v224zM848 768v-176h-96v192h80c4.243 0 8.314-1.686 11.315-4.686 2.998-3 4.685-7.070 4.685-11.314zM176 128v640c0 4.244 1.686 8.313 4.686 11.314s7.070 4.686 11.314 4.686h528v-672h-528c-4.244 0-8.313 1.686-11.314 4.685-3.001 3.002-4.686 7.072-4.686 11.315zM832 112h-80v192h96v-176c0-4.243-1.686-8.314-4.685-11.315-3.002-2.998-7.072-4.685-11.315-4.685zM591.52 292c-5.693 20.886-15.994 40.23-30.141 56.614s-31.786 29.389-51.619 38.064c20.083 13.277 35.357 32.672 43.552 55.309 8.195 22.64 8.877 47.315 1.946 70.371s-21.107 43.264-40.429 57.632c-19.318 14.365-42.752 22.122-66.829 22.122s-47.51-7.757-66.829-22.122c-19.322-14.368-33.498-34.576-40.429-57.632s-6.25-47.731 1.946-70.371c8.195-22.637 23.469-42.032 43.552-55.309-19.818-8.688-37.443-21.702-51.584-38.083-14.138-16.381-24.436-35.718-30.136-56.595-1.058-4.106-0.443-8.464 1.71-12.115s5.666-6.301 9.77-7.363c1.305-0.349 2.65-0.525 4-0.522 3.546 0.003 6.989 1.184 9.792 3.354 2.8 2.173 4.803 5.213 5.69 8.646 12.518 48 60.717 84 112.518 84 51.798 0 100.198-36 112.48-84 1.062-4.115 3.712-7.642 7.373-9.802s8.032-2.781 12.147-1.718c4.115 1.062 7.642 3.712 9.802 7.373s2.781 8.032 1.718 12.147zM368 480c0 15.824 4.691 31.29 13.482 44.445s21.286 23.411 35.904 29.466c14.618 6.054 30.704 7.638 46.221 4.554 15.52-3.088 29.773-10.707 40.963-21.894 11.187-11.19 18.806-25.443 21.894-40.963 3.085-15.517 1.501-31.603-4.554-46.221s-16.31-27.114-29.466-35.904c-13.155-8.79-28.621-13.482-44.445-13.482-21.216 0-41.565 8.429-56.57 23.43-15.002 15.005-23.43 35.354-23.43 56.57z" />
<glyph unicode="&#xe903;" glyph-name="airplane" d="M935.158 430.32l-311.158 155.562v182.118c0 29.704-11.798 58.192-32.803 79.196s-49.491 32.804-79.197 32.804c-29.706 0-58.192-11.8-79.197-32.804s-32.803-49.492-32.803-79.196v-182.118l-311.16-155.562c-2.658-1.331-4.893-3.376-6.455-5.904s-2.388-5.443-2.385-8.416v-128c0.002-2.365 0.528-4.701 1.54-6.835 1.012-2.138 2.485-4.026 4.314-5.523 1.828-1.501 3.966-2.576 6.26-3.149 2.294-0.576 4.686-0.634 7.006-0.173l300.88 60v-101.84l-59.322-59.158c-1.485-1.488-2.662-3.254-3.466-5.197s-1.216-4.022-1.213-6.125v-128c0-2.614 0.643-5.19 1.872-7.501 1.226-2.31 3.002-4.282 5.168-5.747 2.17-1.466 4.662-2.374 7.264-2.653 2.598-0.278 5.229 0.086 7.654 1.059l154.042 61.603 154.038-61.603c1.891-0.774 3.917-1.168 5.962-1.158 3.197-0.010 6.323 0.954 8.96 2.762 2.166 1.462 3.939 3.434 5.168 5.744 1.226 2.307 1.869 4.88 1.872 7.494v128c0.003 2.102-0.41 4.182-1.213 6.125s-1.981 3.709-3.466 5.197l-59.322 59.318v101.84l300.88-60c2.307-0.458 4.685-0.403 6.966 0.163 2.282 0.563 4.413 1.626 6.237 3.107 1.827 1.482 3.302 3.347 4.326 5.466 1.021 2.115 1.565 4.432 1.59 6.784v128c0.003 2.973-0.822 5.888-2.384 8.416s-3.798 4.573-6.458 5.904zM912 307.52l-300.88 60c-2.307 0.458-4.685 0.403-6.966-0.163-2.282-0.563-4.413-1.626-6.237-3.107-1.827-1.482-3.302-3.347-4.326-5.466-1.021-2.115-1.565-4.432-1.59-6.784v-128c-0.003-2.102 0.41-4.182 1.213-6.125s1.981-3.709 3.466-5.197l59.322-59.318v-97.718l-138.038 55.2c-3.85 1.555-8.154 1.555-12.003 0l-137.958-55.2v97.718l59.322 59.318c1.485 1.488 2.662 3.254 3.466 5.197s1.216 4.022 1.213 6.125v128c-0.003 2.365-0.528 4.701-1.539 6.835-1.014 2.138-2.486 4.026-4.314 5.523-1.83 1.501-3.968 2.576-6.262 3.149-2.294 0.576-4.685 0.634-7.005 0.173l-300.88-60.16v98.598l311.162 155.562c2.656 1.331 4.893 3.376 6.454 5.904s2.387 5.443 2.384 8.416v192c0 21.217 8.429 41.566 23.43 56.569 15.005 15.003 35.354 23.431 56.57 23.431s41.565-8.428 56.57-23.431c15.002-15.003 23.43-35.351 23.43-56.569v-192c-0.003-2.973 0.822-5.888 2.384-8.416s3.798-4.573 6.458-5.904l311.158-155.562v-98.598z" />
<glyph unicode="&#xe904;" glyph-name="airplaneinflight" d="M880 96c0-4.243-1.683-8.314-4.685-11.315-3.002-2.998-7.072-4.685-11.315-4.685h-575.999c-4.244 0-8.313 1.686-11.314 4.685-3 3.002-4.686 7.072-4.686 11.315s1.686 8.314 4.686 11.315c3.001 2.998 7.070 4.685 11.314 4.685h575.999c4.243 0 8.314-1.686 11.315-4.685 3.002-3.002 4.685-7.072 4.685-11.315zM976 416v-96c0-4.243-1.683-8.314-4.685-11.315-3.002-2.998-7.072-4.685-11.315-4.685h-715.759c-31.003-0.134-61.211 9.802-86.083 28.31-24.872 18.512-43.062 44.595-51.837 74.33l-56.24 187.562c-2.15 7.162-2.597 14.73-1.304 22.096s4.289 14.326 8.749 20.33c4.46 6.004 10.262 10.882 16.942 14.245s14.053 5.119 21.532 5.128h32c2.102 0.002 4.183-0.411 6.125-1.214s3.708-1.981 5.195-3.466l91.32-91.32h118.799l-42.919 128.84c-2.4 7.21-3.054 14.886-1.908 22.398s4.059 14.644 8.499 20.811c4.44 6.166 10.28 11.19 17.042 14.659s14.25 5.283 21.846 5.292h32c2.102 0.002 4.186-0.411 6.128-1.214s3.706-1.981 5.194-3.466l187.318-187.32h249.36c38.192 0 74.819-15.171 101.824-42.176s42.176-63.632 42.176-101.824zM944 416c0 14.707-2.896 29.274-8.525 42.861s-13.878 25.936-24.278 36.336c-10.4 10.4-22.746 18.65-36.336 24.278-13.587 5.629-28.15 8.525-42.861 8.525h-256c-2.099-0.003-4.182 0.41-6.125 1.213s-3.706 1.981-5.194 3.466l-187.28 187.322h-25.402c-2.534 0.002-5.034-0.598-7.29-1.75-2.259-1.153-4.208-2.825-5.693-4.88s-2.461-4.432-2.845-6.938c-0.384-2.505-0.17-5.066 0.627-7.472l50-149.92c0.8-2.403 1.014-4.96 0.63-7.462-0.381-2.502-1.354-4.877-2.832-6.931-1.482-2.054-3.427-3.728-5.68-4.883s-4.746-1.76-7.277-1.763h-147.64c-4.231 0.006-8.287 1.69-11.28 4.678l-91.32 91.322h-25.4c-2.494 0-4.954-0.586-7.182-1.706s-4.164-2.746-5.652-4.746c-1.489-2.003-2.488-4.323-2.92-6.781-0.432-2.454-0.283-4.979 0.434-7.37l56.28-187.6c6.827-23.123 20.978-43.408 40.325-57.798s42.843-22.112 66.955-22h699.759v80z" />
<glyph unicode="&#xe905;" glyph-name="airplanelanding" d="M1008 96c0-4.243-1.686-8.314-4.685-11.315-3.002-2.998-7.072-4.685-11.315-4.685h-576c-4.243 0-8.314 1.686-11.315 4.685-2.998 3.002-4.685 7.072-4.685 11.315s1.686 8.314 4.685 11.312c3.002 3.002 7.072 4.688 11.315 4.688h576c4.243 0 8.314-1.686 11.315-4.688 2.998-2.998 4.685-7.069 4.685-11.312zM923.68 208.598l-706.52 197.802c-30.219 8.547-56.83 26.704-75.804 51.728s-29.28 55.549-29.356 86.95v222.921c0.010 7.599 1.824 15.086 5.292 21.847s8.492 12.602 14.659 17.042c6.166 4.44 13.299 7.353 20.811 8.499s15.188 0.492 22.398-1.908l21.92-7.28c2.289-0.77 4.374-2.048 6.099-3.738s3.045-3.749 3.861-6.022l45.24-125.16 147.72-42.121v138.841c0.003 7.602 1.814 15.094 5.28 21.86s8.486 12.612 14.656 17.057c6.166 4.445 13.302 7.361 20.816 8.509s15.194 0.494 22.41-1.907l21.917-7.28c2.163-0.724 4.144-1.901 5.814-3.454s2.989-3.443 3.869-5.546l92.998-221.681 250.8-70.080c30.298-8.486 56.992-26.64 76.026-51.696 19.034-25.053 29.36-55.638 29.414-87.104v-142.678c0-2.47-0.573-4.906-1.674-7.117-1.098-2.211-2.694-4.138-4.662-5.629s-4.256-2.509-6.682-2.97c-2.426-0.461-4.925-0.352-7.302 0.314zM912 366.678c-0.029 24.486-8.061 48.291-22.87 67.789-14.813 19.498-35.59 33.619-59.168 40.211l-258.282 72c-2.323 0.653-4.47 1.824-6.278 3.424s-3.232 3.59-4.163 5.818l-93.238 222.2-15.002 5c-2.397 0.788-4.944 0.999-7.44 0.614-2.493-0.385-4.861-1.354-6.909-2.828-2.045-1.474-3.715-3.412-4.874-5.655-1.155-2.243-1.763-4.728-1.776-7.251v-160c0.003-2.48-0.57-4.925-1.674-7.142-1.104-2.221-2.707-4.15-4.685-5.645-1.981-1.494-4.278-2.506-6.714-2.96s-4.944-0.336-7.328 0.346l-176 50.161c-2.436 0.699-4.67 1.967-6.52 3.698s-3.262 3.878-4.12 6.262l-45.36 125.56-14.56 4.84c-2.401 0.816-4.962 1.041-7.469 0.659s-4.884-1.364-6.931-2.859c-2.048-1.477-3.717-3.418-4.871-5.663s-1.76-4.732-1.769-7.257v-222.88c0.034-24.448 8.038-48.221 22.799-67.709 14.762-19.491 35.475-33.635 59.001-40.291l686.2-192v121.558z" />
<glyph unicode="&#xe906;" glyph-name="airplanetakeoff" d="M688 96c0-4.243-1.686-8.314-4.688-11.315-2.998-3.002-7.069-4.685-11.312-4.685h-576.001c-4.244 0-8.313 1.683-11.314 4.685s-4.686 7.072-4.686 11.315c0 4.243 1.685 8.314 4.686 11.312 3.001 3.002 7.070 4.688 11.314 4.688h576.001c4.243 0 8.314-1.686 11.312-4.688 3.002-2.998 4.688-7.069 4.688-11.312zM975.718 590.358c-0.416-2.23-1.302-4.346-2.598-6.208s-2.973-3.427-4.922-4.592l-589.638-352c-22.086-12.925-47.21-19.757-72.801-19.798-36.532 0.042-71.664 14.051-98.2 39.158l-144.64 141.52c-5.73 5.45-10.025 12.23-12.502 19.741s-3.062 15.517-1.7 23.306c1.362 7.789 4.627 15.12 9.505 21.344s11.219 11.149 18.458 14.33l12.28 6c3.744 1.818 8.048 2.106 12 0.8l120-40.518 105.041 63.36-102.361 99.2c-5.928 5.411-10.404 12.224-13.019 19.814-2.615 7.587-3.284 15.712-1.947 23.629 1.337 7.914 4.638 15.367 9.6 21.677s11.428 11.274 18.805 14.439l0.64 0.24 28.6 10.84c3.611 1.349 7.588 1.349 11.2 0l222.919-81.839 212.842 127.199c29.584 17.596 64.512 23.957 98.4 17.92s64.47-24.069 86.16-50.8l74.758-95.999c1.395-1.786 2.394-3.846 2.931-6.045 0.538-2.202 0.602-4.49 0.189-6.717zM936.24 597.76l-63.402 81.279c-16.88 20.684-40.627 34.619-66.915 39.266-26.291 4.647-53.376-0.302-76.323-13.946l-219.28-130.919c-2.054-1.229-4.355-1.981-6.736-2.202-2.381-0.224-4.781 0.093-7.024 0.922l-224.561 82.599-22.64-8.56c-2.417-1.106-4.52-2.797-6.119-4.92s-2.645-4.61-3.042-7.237c-0.397-2.63-0.133-5.315 0.768-7.814 0.901-2.502 2.411-4.736 4.393-6.509 0.136-0.157 0.283-0.304 0.44-0.438l117.401-113.962c1.75-1.706 3.091-3.789 3.91-6.093 0.822-2.304 1.104-4.765 0.829-7.194-0.278-2.429-1.11-4.765-2.432-6.822s-3.094-3.786-5.187-5.050l-128.881-77.92c-1.991-1.206-4.222-1.965-6.537-2.221s-4.657-0.003-6.863 0.739l-120.92 40.8-7.4-3.638c-2.44-1.050-4.58-2.688-6.228-4.771-1.648-2.080-2.752-4.541-3.212-7.155-0.46-2.618-0.263-5.306 0.575-7.824 0.838-2.522 2.29-4.794 4.226-6.611l144.6-141.558c17.527-16.49 39.927-26.851 63.841-29.536 23.914-2.682 48.054 2.461 68.799 14.656l573.92 342.64z" />
<glyph unicode="&#xe907;" glyph-name="airplanetaxiing" d="M832 560h-249.36l-187.318 187.32c-1.488 1.485-3.251 2.663-5.194 3.466s-4.026 1.215-6.128 1.214h-32c-7.597-0.010-15.085-1.824-21.846-5.292s-12.601-8.492-17.042-14.659c-4.44-6.166-7.353-13.299-8.499-20.811s-0.492-15.188 1.908-22.398l42.919-128.84h-118.799l-91.32 91.32c-1.487 1.485-3.252 2.663-5.195 3.466s-4.024 1.215-6.125 1.214h-32c-7.479-0.008-14.852-1.764-21.532-5.128s-12.482-8.241-16.942-14.245c-4.46-6.003-7.457-12.963-8.749-20.33s-0.846-14.934 1.304-22.096l56.24-187.562c8.775-29.734 26.965-55.818 51.837-74.33 24.872-18.509 55.080-28.445 86.083-28.31h715.759c4.243 0 8.314 1.686 11.315 4.685 3.002 3.002 4.685 7.072 4.685 11.315v96c0 38.192-15.171 74.819-42.176 101.824s-63.632 42.176-101.824 42.176zM944 336h-699.759c-24.105-0.102-47.592 7.622-66.931 22.013s-33.484 34.669-40.309 57.786l-56.28 187.6c-0.716 2.387-0.865 4.906-0.436 7.36s1.426 4.774 2.909 6.774c1.484 2 3.414 3.626 5.638 4.749s4.678 1.712 7.169 1.718h25.36l91.32-91.322c1.487-1.485 3.252-2.662 5.194-3.466s4.024-1.216 6.126-1.213h147.64c2.531 0.003 5.024 0.608 7.277 1.763s4.198 2.829 5.68 4.883c1.478 2.054 2.451 4.429 2.832 6.931 0.384 2.502 0.17 5.059-0.63 7.462l-49.958 149.92c-0.797 2.403-1.014 4.96-0.63 7.462s1.354 4.878 2.835 6.931c1.478 2.054 3.424 3.727 5.677 4.883s4.746 1.76 7.277 1.764h25.36l187.28-187.322c1.494-1.488 3.264-2.669 5.213-3.472 1.952-0.803 4.038-1.213 6.147-1.206h256c14.71 0 29.274-2.896 42.861-8.525 13.59-5.629 25.936-13.878 36.336-24.278s18.65-22.749 24.278-36.336c5.629-13.587 8.525-28.154 8.525-42.861v-80zM880 160c0-9.494-2.813-18.774-8.090-26.669-5.274-7.891-12.768-14.045-21.539-17.677s-18.422-4.586-27.734-2.733c-9.312 1.853-17.862 6.426-24.576 13.136-6.714 6.714-11.286 15.267-13.136 24.579-1.853 9.309-0.902 18.96 2.73 27.731 3.635 8.771 9.786 16.269 17.68 21.542s17.174 8.090 26.666 8.090c12.733 0 24.941-5.056 33.942-14.058s14.058-21.213 14.058-33.942zM496 160c0-9.494-2.813-18.774-8.090-26.669-5.274-7.891-12.768-14.045-21.539-17.677s-18.422-4.586-27.734-2.733c-9.312 1.853-17.862 6.426-24.576 13.136-6.714 6.714-11.286 15.267-13.136 24.579-1.853 9.309-0.902 18.96 2.73 27.731s9.786 16.269 17.68 21.542c7.894 5.274 17.174 8.090 26.666 8.090 12.733 0 24.941-5.056 33.942-14.058s14.058-21.213 14.058-33.942z" />
<glyph unicode="&#xe908;" glyph-name="airplanetilt" d="M722.678 507.6l124.56 117.242c21.005 21.005 32.806 49.494 32.806 79.2s-11.802 58.195-32.806 79.2c-21.005 21.005-49.494 32.805-79.2 32.805s-58.195-11.8-79.2-32.805l-0.32-0.36-116.922-124.2-342.119 124.4c-2.864 1.044-5.966 1.25-8.942 0.59s-5.702-2.155-7.858-4.31l-96-96c-1.676-1.674-2.96-3.7-3.758-5.93s-1.091-4.61-0.858-6.968c0.233-2.358 0.988-4.634 2.208-6.665s2.876-3.765 4.848-5.077l271.999-181.16-77.719-77.562h-89.4c-2.104-0.003-4.188-0.422-6.13-1.232s-3.706-1.994-5.19-3.488l-96-96c-1.87-1.869-3.247-4.176-4.008-6.71s-0.881-5.219-0.349-7.811c0.531-2.592 1.697-5.011 3.393-7.043 1.696-2.029 3.869-3.61 6.324-4.595l153.68-61.44 61.36-153.478v-0.362c1.018-2.461 2.637-4.627 4.704-6.304 2.070-1.677 4.525-2.813 7.142-3.299 2.618-0.49 5.315-0.317 7.85 0.502 2.534 0.816 4.826 2.256 6.662 4.182l95.722 95.718c1.52 1.478 2.73 3.245 3.558 5.197 0.832 1.949 1.267 4.045 1.28 6.163v89.402l77.52 77.52 181.162-271.802c1.312-1.971 3.046-3.626 5.078-4.848 2.029-1.219 4.307-1.974 6.662-2.208 2.358-0.234 4.739 0.061 6.97 0.858 2.23 0.8 4.256 2.083 5.93 3.76l96 96c2.157 2.154 3.651 4.88 4.31 7.856s0.454 6.080-0.592 8.944l-124.358 342.118zM738.678 89.12l-181.162 271.76c-1.322 2.006-3.082 3.69-5.146 4.922s-4.378 1.984-6.774 2.198h-1.558c-2.106-0.003-4.189-0.422-6.131-1.232s-3.706-1.994-5.19-3.488l-96-96c-3.005-2.986-4.701-7.043-4.72-11.28v-89.36l-74.118-74.16-55 137.482c-0.804 2.013-2.010 3.843-3.544 5.376s-3.363 2.739-5.376 3.542l-137.48 55.002 74.16 74.118h89.36c2.101 0 4.184 0.413 6.127 1.216s3.706 1.981 5.194 3.466l96 96c1.677 1.674 2.96 3.699 3.757 5.93 0.8 2.23 1.091 4.611 0.858 6.966-0.234 2.358-0.986 4.637-2.208 6.666-1.219 2.032-2.874 3.766-4.848 5.078l-271.759 181.2 74.88 75 342.44-124.52c2.931-1.078 6.115-1.274 9.158-0.563s5.811 2.298 7.962 4.563l124 131.72c14.995 15.016 35.341 23.461 56.563 23.476s41.581-8.401 56.595-23.396c15.018-14.996 23.462-35.342 23.478-56.564 0.013-21.222-8.403-41.58-23.398-56.596l-131.718-124c-2.266-2.15-3.853-4.918-4.563-7.962s-0.515-6.227 0.563-9.158l124.438-342.522-74.838-74.88z" />
<glyph unicode="&#xe909;" glyph-name="airplay" d="M524 330.4c-1.501 1.75-3.363 3.155-5.459 4.115-2.096 0.963-4.374 1.462-6.682 1.462-2.304 0-4.582-0.499-6.678-1.462-2.096-0.96-3.958-2.365-5.459-4.115l-192.002-224c-1.98-2.314-3.258-5.146-3.684-8.16s0.016-6.090 1.276-8.861c1.26-2.774 3.285-5.13 5.837-6.79s5.525-2.56 8.57-2.589h383.998c3.046 0.029 6.019 0.928 8.573 2.589 2.55 1.661 4.576 4.016 5.837 6.79 1.261 2.771 1.702 5.846 1.277 8.861s-1.706 5.846-3.686 8.16l-191.718 224zM354.8 112l157.2 183.402 157.2-183.402h-314.4zM912 704v-448c0-21.216-8.429-41.565-23.43-56.57-15.005-15.002-35.354-23.43-56.57-23.43h-32c-4.243 0-8.314 1.686-11.315 4.685-2.998 3.002-4.685 7.072-4.685 11.315s1.686 8.314 4.685 11.315c3.002 2.998 7.072 4.685 11.315 4.685h32c12.73 0 24.941 5.056 33.942 14.058s14.058 21.213 14.058 33.942v448c0 12.73-5.056 24.94-14.058 33.941s-21.213 14.059-33.942 14.059h-640c-12.73 0-24.94-5.057-33.941-14.059s-14.059-21.211-14.059-33.941v-448c0-12.73 5.057-24.941 14.059-33.942s21.211-14.058 33.941-14.058h32c4.244 0 8.313-1.686 11.314-4.685 3.001-3.002 4.686-7.072 4.686-11.315s-1.686-8.314-4.686-11.315c-3-2.998-7.070-4.685-11.314-4.685h-32c-21.217 0-41.566 8.429-56.569 23.43-15.003 15.005-23.431 35.354-23.431 56.57v448c0 21.217 8.428 41.566 23.431 56.569s35.351 23.431 56.569 23.431h640c21.216 0 41.565-8.428 56.57-23.431 15.002-15.003 23.43-35.351 23.43-56.569z" />
<glyph unicode="&#xe90a;" glyph-name="airtrafficcontrol" d="M903.322 667.56c-4.429 6.316-10.317 11.471-17.162 15.029s-14.445 5.414-22.16 5.411h-336v160h80c4.243 0 8.314 1.686 11.315 4.686 2.998 3 4.685 7.070 4.685 11.314s-1.686 8.313-4.685 11.314c-3.002 3.001-7.072 4.686-11.315 4.686h-192c-4.243 0-8.314-1.686-11.312-4.686-3.002-3-4.688-7.070-4.688-11.314s1.686-8.313 4.688-11.314c2.998-3.001 7.069-4.686 11.312-4.686h80v-160h-335.999c-7.716 0.001-15.318-1.857-22.163-5.419s-12.73-8.72-17.157-15.039c-4.428-6.319-7.266-13.612-8.276-21.262s-0.16-15.43 2.476-22.681l104.76-288c3.365-9.254 9.495-17.251 17.56-22.906 8.064-5.651 17.672-8.688 27.52-8.694h135.279v-272c0-4.243 1.686-8.314 4.688-11.315 2.998-2.998 7.069-4.685 11.312-4.685s8.314 1.686 11.315 4.685c2.998 3.002 4.685 7.072 4.685 11.315v272h160v-272c0-4.243 1.686-8.314 4.688-11.315 2.998-2.998 7.069-4.685 11.312-4.685s8.314 1.686 11.315 4.685c2.998 3.002 4.685 7.072 4.685 11.315v272h135.28c9.85 0.006 19.456 3.043 27.52 8.694 8.067 5.654 14.195 13.651 17.562 22.906l104.758 288c2.64 7.254 3.491 15.037 2.48 22.69-1.008 7.652-3.85 14.949-8.278 21.27zM429.36 336l-58.198 320h281.68l-58.202-320h-165.28zM249.681 346.522l-104.72 287.997c-0.881 2.419-1.166 5.014-0.831 7.566s1.281 4.985 2.757 7.093c1.476 2.108 3.439 3.829 5.722 5.017s4.819 1.807 7.392 1.806h178.639l58.16-320h-131.999c-3.297-0.019-6.519 0.982-9.226 2.867-2.707 1.882-4.765 4.554-5.894 7.654zM879.040 634.518l-104.72-287.997c-1.123-3.088-3.171-5.75-5.859-7.632-2.691-1.882-5.898-2.89-9.181-2.89h-132l58.202 320h178.518c2.573 0.001 5.11-0.618 7.392-1.806 2.285-1.188 4.246-2.909 5.722-5.017 1.478-2.108 2.422-4.541 2.758-7.093s0.051-5.147-0.832-7.566z" />
<glyph unicode="&#xe90b;" glyph-name="alarm" d="M511.994 783.999c-72.784 0-143.933-21.583-204.45-62.019s-107.685-97.909-135.538-165.154c-27.853-67.242-35.14-141.235-20.941-212.621s49.248-136.957 100.714-188.422c51.466-51.466 117.038-86.512 188.424-100.714 71.382-14.198 145.376-6.912 212.621 20.944 67.242 27.853 124.717 75.018 165.152 135.536s62.019 131.667 62.019 204.451c-0.106 97.565-38.912 191.107-107.901 260.097-68.992 68.99-162.531 107.796-260.099 107.902zM511.994 80c-66.454 0-131.418 19.706-186.672 56.624-55.255 36.922-98.321 89.398-123.752 150.794s-32.085 128.954-19.12 194.131c12.965 65.178 44.966 125.046 91.956 172.038 46.99 46.99 106.859 78.991 172.036 91.956s132.736 6.311 194.134-19.12c61.395-25.431 113.872-68.497 150.79-123.75 36.922-55.258 56.627-120.218 56.627-186.672-0.096-89.085-35.526-174.493-98.518-237.485s-148.4-98.422-237.482-98.515zM235.313 820.679l-128-128c-3.002-3.002-7.074-4.689-11.32-4.689s-8.318 1.687-11.32 4.689c-3.002 3.002-4.689 7.074-4.689 11.32s1.687 8.318 4.689 11.32l128 128c1.486 1.486 3.251 2.666 5.194 3.47s4.024 1.219 6.126 1.219c2.102 0 4.184-0.414 6.126-1.219s3.707-1.984 5.194-3.47c1.486-1.487 2.666-3.252 3.47-5.194s1.219-4.024 1.219-6.126c0-2.102-0.414-4.184-1.219-6.126s-1.984-3.707-3.47-5.194zM939.312 692.679c-1.485-1.488-3.248-2.668-5.19-3.473s-4.026-1.22-6.128-1.22c-2.102 0-4.186 0.414-6.128 1.22s-3.706 1.985-5.194 3.473l-128 128c-3.002 3.002-4.688 7.074-4.688 11.32s1.686 8.318 4.688 11.32c3.005 3.002 7.075 4.689 11.322 4.689s8.317-1.686 11.318-4.689l128-128c1.488-1.486 2.669-3.251 3.475-5.193 0.803-1.942 1.219-4.025 1.219-6.127s-0.416-4.185-1.219-6.127c-0.806-1.942-1.987-3.707-3.475-5.193zM751.994 416c0-4.243-1.686-8.314-4.688-11.315-2.998-3.002-7.069-4.685-11.312-4.685h-224c-4.243 0-8.314 1.683-11.315 4.685-2.998 3.002-4.685 7.072-4.685 11.315v224c0 4.242 1.686 8.312 4.685 11.313 3.002 3.001 7.072 4.686 11.315 4.686s8.314-1.686 11.312-4.686c3.002-3.001 4.688-7.070 4.688-11.313v-208h208c4.243 0 8.314-1.686 11.312-4.688 3.002-2.998 4.688-7.069 4.688-11.312z" />
<glyph unicode="&#xe90c;" glyph-name="alien" d="M512 880c-97.568-0.106-191.107-38.911-260.098-107.902s-107.796-162.53-107.902-260.098c0-92.762 49.040-213.322 131.2-322.522 63.12-83.878 158.442-173.478 236.8-173.478s173.68 89.6 236.8 173.478c82.16 109.2 131.2 229.76 131.2 322.522-0.106 97.568-38.912 191.108-107.901 260.098-68.992 68.991-162.531 107.796-260.099 107.902zM723.2 208.72c-73.44-97.642-156.362-160.72-211.2-160.72s-137.76 63.078-211.2 160.72c-76.8 102.32-124.8 218.518-124.8 303.28 0 89.114 35.4 174.576 98.412 237.588s148.474 98.412 237.588 98.412c89.114 0 174.576-35.4 237.587-98.412 63.014-63.012 98.413-148.474 98.413-237.588 0-84.762-47.798-200.96-124.8-303.28zM464 416c0 38.192-15.171 74.819-42.176 101.824s-63.632 42.176-101.824 42.176c-12.73 0-24.94-5.056-33.941-14.058s-14.059-21.213-14.059-33.942c0-38.192 15.172-74.819 42.177-101.824s63.631-42.176 101.823-42.176c12.73 0 24.941 5.056 33.942 14.058s14.058 21.213 14.058 33.942zM416 400c-29.706 0-58.192 11.798-79.197 32.803-21.003 21.005-32.803 49.491-32.803 79.197 0 4.243 1.686 8.314 4.686 11.315 3 2.998 7.070 4.685 11.314 4.685 29.706 0 58.192-11.798 79.197-32.803s32.803-49.491 32.803-79.197c0-4.243-1.686-8.314-4.685-11.315-3.002-2.998-7.072-4.685-11.315-4.685zM704 560c-38.192 0-74.819-15.171-101.824-42.176s-42.176-63.632-42.176-101.824c0-12.73 5.056-24.941 14.058-33.942s21.213-14.058 33.942-14.058c38.192 0 74.819 15.171 101.824 42.176s42.176 63.632 42.176 101.824c0 12.73-5.056 24.941-14.058 33.942s-21.213 14.058-33.942 14.058zM608 400c-4.243 0-8.314 1.686-11.315 4.685-2.998 3.002-4.685 7.072-4.685 11.315 0 29.706 11.798 58.192 32.803 79.197s49.491 32.803 79.197 32.803c4.243 0 8.314-1.686 11.315-4.685 2.998-3.002 4.685-7.072 4.685-11.315 0-29.706-11.798-58.192-32.803-79.197s-49.491-32.803-79.197-32.803zM592 224c0-4.243-1.686-8.314-4.685-11.315-3.002-2.998-7.072-4.685-11.315-4.685h-128c-4.243 0-8.314 1.686-11.315 4.685-2.998 3.002-4.685 7.072-4.685 11.315s1.686 8.314 4.685 11.315c3.002 2.998 7.072 4.685 11.315 4.685h128c4.243 0 8.314-1.686 11.315-4.685 2.998-3.002 4.685-7.072 4.685-11.315z" />
<glyph unicode="&#xe90d;" glyph-name="alignbottom" d="M880 96c0-4.243-1.686-8.314-4.685-11.315-3.002-2.998-7.072-4.685-11.315-4.685h-704c-4.244 0-8.313 1.686-11.314 4.685-3.001 3.002-4.686 7.072-4.686 11.315s1.686 8.314 4.686 11.315c3 2.998 7.070 4.685 11.314 4.685h704c4.243 0 8.314-1.686 11.315-4.685 2.998-3.002 4.685-7.072 4.685-11.315zM560 256v384c0 12.73 5.056 24.94 14.058 33.941s21.213 14.059 33.942 14.059h160c12.73 0 24.941-5.057 33.942-14.059s14.058-21.211 14.058-33.941v-384c0-12.73-5.056-24.941-14.058-33.942s-21.213-14.058-33.942-14.058h-160c-12.73 0-24.941 5.056-33.942 14.058s-14.058 21.213-14.058 33.942zM592 256c0-4.243 1.686-8.314 4.685-11.315 3.002-2.998 7.072-4.685 11.315-4.685h160c4.243 0 8.314 1.686 11.315 4.685 2.998 3.002 4.685 7.072 4.685 11.315v384c0 4.244-1.686 8.313-4.685 11.314-3.002 3.001-7.072 4.686-11.315 4.686h-160c-4.243 0-8.314-1.686-11.315-4.686-2.998-3-4.685-7.070-4.685-11.314v-384zM208 256v544c0 12.73 5.057 24.94 14.059 33.941s21.211 14.059 33.941 14.059h160c12.73 0 24.941-5.057 33.942-14.059s14.058-21.211 14.058-33.941v-544c0-12.73-5.056-24.941-14.058-33.942s-21.213-14.058-33.942-14.058h-160c-12.73 0-24.94 5.056-33.941 14.058s-14.059 21.213-14.059 33.942zM240 256c0-4.243 1.686-8.314 4.686-11.315 3-2.998 7.070-4.685 11.314-4.685h160c4.243 0 8.314 1.686 11.315 4.685 2.998 3.002 4.685 7.072 4.685 11.315v544c0 4.244-1.686 8.313-4.685 11.314-3.002 3.001-7.072 4.686-11.315 4.686h-160c-4.244 0-8.313-1.686-11.314-4.686s-4.686-7.070-4.686-11.314v-544z" />
<glyph unicode="&#xe90e;" glyph-name="alignbottomsimple" d="M816 32c0-4.243-1.686-8.314-4.685-11.315-3.002-2.998-7.072-4.685-11.315-4.685h-576c-4.244 0-8.313 1.686-11.314 4.685-3.001 3.002-4.686 7.072-4.686 11.315s1.686 8.314 4.686 11.315c3 2.998 7.070 4.685 11.314 4.685h576c4.243 0 8.314-1.686 11.315-4.685 2.998-3.002 4.685-7.072 4.685-11.315zM336 192v608c0 12.73 5.056 24.94 14.058 33.941s21.213 14.059 33.942 14.059h256c12.73 0 24.941-5.057 33.942-14.059s14.058-21.211 14.058-33.941v-608c0-12.73-5.056-24.941-14.058-33.942s-21.213-14.058-33.942-14.058h-256c-12.73 0-24.941 5.056-33.942 14.058s-14.058 21.213-14.058 33.942zM368 192c0-4.243 1.686-8.314 4.685-11.315 3.002-2.998 7.072-4.685 11.315-4.685h256c4.243 0 8.314 1.686 11.315 4.685 2.998 3.002 4.685 7.072 4.685 11.315v608c0 4.244-1.686 8.313-4.685 11.314-3.002 3.001-7.072 4.686-11.315 4.686h-256c-4.243 0-8.314-1.686-11.315-4.686-2.998-3-4.685-7.070-4.685-11.314v-608z" />
<glyph unicode="&#xe90f;" glyph-name="aligncenterhorizontal" d="M832 400h-304v96h208c12.73 0 24.941 5.056 33.942 14.058s14.058 21.213 14.058 33.942v160c0 12.73-5.056 24.94-14.058 33.941s-21.213 14.059-33.942 14.059h-208v80c0 4.244-1.686 8.313-4.685 11.314-3.002 3.001-7.072 4.686-11.315 4.686s-8.314-1.686-11.315-4.686c-2.998-3-4.685-7.070-4.685-11.314v-80h-208c-12.73 0-24.94-5.057-33.941-14.059s-14.059-21.211-14.059-33.941v-160c0-12.73 5.057-24.941 14.059-33.942s21.211-14.058 33.941-14.058h208v-96h-304c-12.73 0-24.94-5.056-33.941-14.058s-14.059-21.213-14.059-33.942v-160c0-12.73 5.057-24.941 14.059-33.942s21.211-14.058 33.941-14.058h304v-80c0-4.243 1.686-8.314 4.685-11.315 3.002-2.998 7.072-4.685 11.315-4.685s8.314 1.686 11.315 4.685c2.998 3.002 4.685 7.072 4.685 11.315v80h304c12.73 0 24.941 5.056 33.942 14.058s14.058 21.213 14.058 33.942v160c0 12.73-5.056 24.941-14.058 33.942s-21.213 14.058-33.942 14.058zM272 544v160c0 4.244 1.686 8.313 4.686 11.314s7.070 4.686 11.314 4.686h448c4.243 0 8.314-1.686 11.315-4.686 2.998-3 4.685-7.070 4.685-11.314v-160c0-4.243-1.686-8.314-4.685-11.315-3.002-2.998-7.072-4.685-11.315-4.685h-448c-4.244 0-8.313 1.686-11.314 4.685-3.001 3.002-4.686 7.072-4.686 11.315zM848 192c0-4.243-1.686-8.314-4.685-11.315-3.002-2.998-7.072-4.685-11.315-4.685h-640c-4.244 0-8.313 1.686-11.314 4.685-3.001 3.002-4.686 7.072-4.686 11.315v160c0 4.243 1.686 8.314 4.686 11.315 3 2.998 7.070 4.685 11.314 4.685h640c4.243 0 8.314-1.686 11.315-4.685 2.998-3.002 4.685-7.072 4.685-11.315v-160z" />
<glyph unicode="&#xe910;" glyph-name="aligncenterhorizontalsimple" d="M832 624h-304v144c0 4.244-1.686 8.313-4.685 11.314-3.002 3.001-7.072 4.686-11.315 4.686s-8.314-1.686-11.315-4.686c-2.998-3-4.685-7.070-4.685-11.314v-144h-304c-12.73 0-24.94-5.056-33.941-14.058s-14.059-21.213-14.059-33.942v-256c0-12.73 5.057-24.941 14.059-33.942s21.211-14.058 33.941-14.058h304v-144c0-4.243 1.686-8.314 4.685-11.315 3.002-2.998 7.072-4.685 11.315-4.685s8.314 1.686 11.315 4.685c2.998 3.002 4.685 7.072 4.685 11.315v144h304c12.73 0 24.941 5.056 33.942 14.058s14.058 21.213 14.058 33.942v256c0 12.73-5.056 24.941-14.058 33.942s-21.213 14.058-33.942 14.058zM848 320c0-4.243-1.686-8.314-4.685-11.315-3.002-2.998-7.072-4.685-11.315-4.685h-640c-4.244 0-8.313 1.686-11.314 4.685-3.001 3.002-4.686 7.072-4.686 11.315v256c0 4.243 1.686 8.314 4.686 11.315 3 2.998 7.070 4.685 11.314 4.685h640c4.243 0 8.314-1.686 11.315-4.685 2.998-3.002 4.685-7.072 4.685-11.315v-256z" />
<glyph unicode="&#xe911;" glyph-name="aligncentervertical" d="M896 464h-80v208c0 12.73-5.056 24.94-14.058 33.941s-21.213 14.059-33.942 14.059h-160c-12.73 0-24.941-5.057-33.942-14.059s-14.058-21.211-14.058-33.941v-208h-96v304c0 12.73-5.056 24.94-14.058 33.941s-21.213 14.059-33.942 14.059h-160c-12.73 0-24.94-5.057-33.941-14.059s-14.059-21.211-14.059-33.941v-304h-80c-4.244 0-8.313-1.686-11.314-4.685-3.001-3.002-4.686-7.072-4.686-11.315s1.686-8.314 4.686-11.315c3-2.998 7.070-4.685 11.314-4.685h80v-304c0-12.73 5.057-24.941 14.059-33.942s21.211-14.058 33.941-14.058h160c12.73 0 24.941 5.056 33.942 14.058s14.058 21.213 14.058 33.942v304h96v-208c0-12.73 5.056-24.941 14.058-33.942s21.213-14.058 33.942-14.058h160c12.73 0 24.941 5.056 33.942 14.058s14.058 21.213 14.058 33.942v208h80c4.243 0 8.314 1.686 11.315 4.685 2.998 3.002 4.685 7.072 4.685 11.315s-1.686 8.314-4.685 11.315c-3.002 2.998-7.072 4.685-11.315 4.685zM432 128c0-4.243-1.686-8.314-4.685-11.315-3.002-2.998-7.072-4.685-11.315-4.685h-160c-4.244 0-8.313 1.686-11.314 4.685-3.001 3.002-4.686 7.072-4.686 11.315v640c0 4.244 1.686 8.313 4.686 11.314s7.070 4.686 11.314 4.686h160c4.243 0 8.314-1.686 11.315-4.686 2.998-3 4.685-7.070 4.685-11.314v-640zM784 224c0-4.243-1.686-8.314-4.685-11.315-3.002-2.998-7.072-4.685-11.315-4.685h-160c-4.243 0-8.314 1.686-11.315 4.685-2.998 3.002-4.685 7.072-4.685 11.315v448c0 4.244 1.686 8.313 4.685 11.314 3.002 3.001 7.072 4.686 11.315 4.686h160c4.243 0 8.314-1.686 11.315-4.686 2.998-3 4.685-7.070 4.685-11.314v-448z" />
<glyph unicode="&#xe912;" glyph-name="aligncenterverticalsimple" d="M832 464h-144v304c0 12.73-5.056 24.94-14.058 33.941s-21.213 14.059-33.942 14.059h-256c-12.73 0-24.941-5.057-33.942-14.059s-14.058-21.211-14.058-33.941v-304h-144c-4.244 0-8.313-1.686-11.314-4.685-3.001-3.002-4.686-7.072-4.686-11.315s1.686-8.314 4.686-11.315c3-2.998 7.070-4.685 11.314-4.685h144v-304c0-12.73 5.056-24.941 14.058-33.942s21.213-14.058 33.942-14.058h256c12.73 0 24.941 5.056 33.942 14.058s14.058 21.213 14.058 33.942v304h144c4.243 0 8.314 1.686 11.315 4.685 2.998 3.002 4.685 7.072 4.685 11.315s-1.686 8.314-4.685 11.315c-3.002 2.998-7.072 4.685-11.315 4.685zM656 128c0-4.243-1.686-8.314-4.685-11.315-3.002-2.998-7.072-4.685-11.315-4.685h-256c-4.243 0-8.314 1.686-11.315 4.685-2.998 3.002-4.685 7.072-4.685 11.315v640c0 4.244 1.686 8.313 4.685 11.314 3.002 3.001 7.072 4.686 11.315 4.686h256c4.243 0 8.314-1.686 11.315-4.686 2.998-3 4.685-7.070 4.685-11.314v-640z" />
<glyph unicode="&#xe913;" glyph-name="alignleft" d="M176 800v-704c0-4.243-1.686-8.314-4.686-11.315-3-2.998-7.070-4.685-11.314-4.685s-8.313 1.686-11.314 4.685c-3.001 3.002-4.686 7.072-4.686 11.315v704c0 4.244 1.686 8.313 4.686 11.314s7.070 4.686 11.314 4.686c4.244 0 8.313-1.686 11.314-4.686s4.686-7.070 4.686-11.314zM272 544v160c0 12.73 5.057 24.94 14.059 33.941s21.211 14.059 33.941 14.059h384c12.73 0 24.941-5.057 33.942-14.059s14.058-21.211 14.058-33.941v-160c0-12.73-5.056-24.941-14.058-33.942s-21.213-14.058-33.942-14.058h-384c-12.73 0-24.94 5.056-33.941 14.058s-14.059 21.213-14.059 33.942zM304 544c0-4.243 1.686-8.314 4.686-11.315 3-2.998 7.070-4.685 11.314-4.685h384c4.243 0 8.314 1.686 11.315 4.685 2.998 3.002 4.685 7.072 4.685 11.315v160c0 4.244-1.686 8.313-4.685 11.314-3.002 3.001-7.072 4.686-11.315 4.686h-384c-4.244 0-8.313-1.686-11.314-4.686s-4.686-7.070-4.686-11.314v-160zM912 352v-160c0-12.73-5.056-24.941-14.058-33.942s-21.213-14.058-33.942-14.058h-544c-12.73 0-24.94 5.056-33.941 14.058s-14.059 21.213-14.059 33.942v160c0 12.73 5.057 24.941 14.059 33.942s21.211 14.058 33.941 14.058h544c12.73 0 24.941-5.056 33.942-14.058s14.058-21.213 14.058-33.942zM880 352c0 4.243-1.686 8.314-4.685 11.315-3.002 2.998-7.072 4.685-11.315 4.685h-544c-4.244 0-8.313-1.686-11.314-4.685-3.001-3.002-4.686-7.072-4.686-11.315v-160c0-4.243 1.686-8.314 4.686-11.315 3-2.998 7.070-4.685 11.314-4.685h544c4.243 0 8.314 1.686 11.315 4.685 2.998 3.002 4.685 7.072 4.685 11.315v160z" />
<glyph unicode="&#xe914;" glyph-name="alignleftsimple" d="M144 736v-576c0-4.243-1.686-8.314-4.686-11.315-3-2.998-7.070-4.685-11.314-4.685s-8.313 1.686-11.314 4.685c-3.001 3.002-4.686 7.072-4.686 11.315v576c0 4.244 1.686 8.313 4.686 11.314s7.070 4.686 11.314 4.686c4.244 0 8.313-1.686 11.314-4.686s4.686-7.070 4.686-11.314zM944 576v-256c0-12.73-5.056-24.941-14.058-33.942s-21.213-14.058-33.942-14.058h-608c-12.73 0-24.94 5.056-33.941 14.058s-14.059 21.213-14.059 33.942v256c0 12.73 5.057 24.941 14.059 33.942s21.211 14.058 33.941 14.058h608c12.73 0 24.941-5.056 33.942-14.058s14.058-21.213 14.058-33.942zM912 576c0 4.243-1.686 8.314-4.685 11.315-3.002 2.998-7.072 4.685-11.315 4.685h-608c-4.244 0-8.313-1.686-11.314-4.685-3.001-3.002-4.686-7.072-4.686-11.315v-256c0-4.243 1.686-8.314 4.686-11.315 3-2.998 7.070-4.685 11.314-4.685h608c4.243 0 8.314 1.686 11.315 4.685 2.998 3.002 4.685 7.072 4.685 11.315v256z" />
<glyph unicode="&#xe915;" glyph-name="alignright" d="M880 800v-704c0-4.243-1.686-8.314-4.685-11.315-3.002-2.998-7.072-4.685-11.315-4.685s-8.314 1.686-11.315 4.685c-2.998 3.002-4.685 7.072-4.685 11.315v704c0 4.244 1.686 8.313 4.685 11.314 3.002 3.001 7.072 4.686 11.315 4.686s8.314-1.686 11.315-4.686c2.998-3 4.685-7.070 4.685-11.314zM752 704v-160c0-12.73-5.056-24.941-14.058-33.942s-21.213-14.058-33.942-14.058h-384c-12.73 0-24.94 5.056-33.941 14.058s-14.059 21.213-14.059 33.942v160c0 12.73 5.057 24.94 14.059 33.941s21.211 14.059 33.941 14.059h384c12.73 0 24.941-5.057 33.942-14.059s14.058-21.211 14.058-33.941zM720 704c0 4.244-1.686 8.313-4.685 11.314-3.002 3.001-7.072 4.686-11.315 4.686h-384c-4.244 0-8.313-1.686-11.314-4.686s-4.686-7.070-4.686-11.314v-160c0-4.243 1.686-8.314 4.686-11.315 3-2.998 7.070-4.685 11.314-4.685h384c4.243 0 8.314 1.686 11.315 4.685 2.998 3.002 4.685 7.072 4.685 11.315v160zM752 352v-160c0-12.73-5.056-24.941-14.058-33.942s-21.213-14.058-33.942-14.058h-544c-12.73 0-24.94 5.056-33.941 14.058s-14.059 21.213-14.059 33.942v160c0 12.73 5.057 24.941 14.059 33.942s21.211 14.058 33.941 14.058h544c12.73 0 24.941-5.056 33.942-14.058s14.058-21.213 14.058-33.942zM720 352c0 4.243-1.686 8.314-4.685 11.315-3.002 2.998-7.072 4.685-11.315 4.685h-544c-4.244 0-8.313-1.686-11.314-4.685-3.001-3.002-4.686-7.072-4.686-11.315v-160c0-4.243 1.686-8.314 4.686-11.315 3-2.998 7.070-4.685 11.314-4.685h544c4.243 0 8.314 1.686 11.315 4.685 2.998 3.002 4.685 7.072 4.685 11.315v160z" />
<glyph unicode="&#xe916;" glyph-name="alignrightsimple" d="M912 736v-576c0-4.243-1.686-8.314-4.685-11.315-3.002-2.998-7.072-4.685-11.315-4.685s-8.314 1.686-11.315 4.685c-2.998 3.002-4.685 7.072-4.685 11.315v576c0 4.244 1.686 8.313 4.685 11.314 3.002 3.001 7.072 4.686 11.315 4.686s8.314-1.686 11.315-4.686c2.998-3 4.685-7.070 4.685-11.314zM784 576v-256c0-12.73-5.056-24.941-14.058-33.942s-21.213-14.058-33.942-14.058h-608c-12.73 0-24.94 5.056-33.941 14.058s-14.059 21.213-14.059 33.942v256c0 12.73 5.057 24.941 14.059 33.942s21.211 14.058 33.941 14.058h608c12.73 0 24.941-5.056 33.942-14.058s14.058-21.213 14.058-33.942zM752 576c0 4.243-1.686 8.314-4.685 11.315-3.002 2.998-7.072 4.685-11.315 4.685h-608c-4.244 0-8.313-1.686-11.314-4.685-3.001-3.002-4.686-7.072-4.686-11.315v-256c0-4.243 1.686-8.314 4.686-11.315 3-2.998 7.070-4.685 11.314-4.685h608c4.243 0 8.314 1.686 11.315 4.685 2.998 3.002 4.685 7.072 4.685 11.315v256z" />
<glyph unicode="&#xe917;" glyph-name="aligntop" d="M880 800c0-4.244-1.686-8.313-4.685-11.314-3.002-3.001-7.072-4.686-11.315-4.686h-704c-4.244 0-8.313 1.686-11.314 4.686s-4.686 7.070-4.686 11.314c0 4.244 1.686 8.313 4.686 11.314s7.070 4.686 11.314 4.686h704c4.243 0 8.314-1.686 11.315-4.686 2.998-3 4.685-7.070 4.685-11.314zM816 640v-384c0-12.73-5.056-24.941-14.058-33.942s-21.213-14.058-33.942-14.058h-160c-12.73 0-24.941 5.056-33.942 14.058s-14.058 21.213-14.058 33.942v384c0 12.73 5.056 24.94 14.058 33.941s21.213 14.059 33.942 14.059h160c12.73 0 24.941-5.057 33.942-14.059s14.058-21.211 14.058-33.941zM784 640c0 4.244-1.686 8.313-4.685 11.314-3.002 3.001-7.072 4.686-11.315 4.686h-160c-4.243 0-8.314-1.686-11.315-4.686-2.998-3-4.685-7.070-4.685-11.314v-384c0-4.243 1.686-8.314 4.685-11.315 3.002-2.998 7.072-4.685 11.315-4.685h160c4.243 0 8.314 1.686 11.315 4.685 2.998 3.002 4.685 7.072 4.685 11.315v384zM464 640v-544c0-12.73-5.056-24.941-14.058-33.942s-21.213-14.058-33.942-14.058h-160c-12.73 0-24.94 5.056-33.941 14.058s-14.059 21.213-14.059 33.942v544c0 12.73 5.057 24.94 14.059 33.941s21.211 14.059 33.941 14.059h160c12.73 0 24.941-5.057 33.942-14.059s14.058-21.211 14.058-33.941zM432 640c0 4.244-1.686 8.313-4.685 11.314-3.002 3.001-7.072 4.686-11.315 4.686h-160c-4.244 0-8.313-1.686-11.314-4.686s-4.686-7.070-4.686-11.314v-544c0-4.243 1.686-8.314 4.686-11.315 3-2.998 7.070-4.685 11.314-4.685h160c4.243 0 8.314 1.686 11.315 4.685 2.998 3.002 4.685 7.072 4.685 11.315v544z" />
<glyph unicode="&#xe918;" glyph-name="aligntopsimple" d="M816 832c0-4.244-1.686-8.313-4.685-11.314-3.002-3.001-7.072-4.686-11.315-4.686h-576c-4.244 0-8.313 1.686-11.314 4.686s-4.686 7.070-4.686 11.314c0 4.244 1.686 8.313 4.686 11.314s7.070 4.686 11.314 4.686h576c4.243 0 8.314-1.686 11.315-4.686 2.998-3 4.685-7.070 4.685-11.314zM688 672v-608c0-12.73-5.056-24.941-14.058-33.942s-21.213-14.058-33.942-14.058h-256c-12.73 0-24.941 5.056-33.942 14.058s-14.058 21.213-14.058 33.942v608c0 12.73 5.056 24.94 14.058 33.941s21.213 14.059 33.942 14.059h256c12.73 0 24.941-5.057 33.942-14.059s14.058-21.211 14.058-33.941zM656 672c0 4.244-1.686 8.313-4.685 11.314-3.002 3.001-7.072 4.686-11.315 4.686h-256c-4.243 0-8.314-1.686-11.315-4.686-2.998-3-4.685-7.070-4.685-11.314v-608c0-4.243 1.686-8.314 4.685-11.315 3.002-2.998 7.072-4.685 11.315-4.685h256c4.243 0 8.314 1.686 11.315 4.685 2.998 3.002 4.685 7.072 4.685 11.315v608z" />
<glyph unicode="&#xe919;" glyph-name="amazonlogo" d="M976 287.997v-128c0-4.243-1.686-8.31-4.688-11.312-2.998-3.002-7.069-4.688-11.312-4.688s-8.314 1.686-11.315 4.688c-2.998 3.002-4.685 7.069-4.685 11.312v89.36l-36.4-36.4c-9.52-10.438-154.4-164.96-395.6-164.96-244.32 0-389.8 158.56-396 165.28-2.843 3.184-4.306 7.366-4.066 11.626 0.24 4.262 2.163 8.253 5.346 11.094 3.182 2.845 7.364 4.307 11.625 4.067s8.252-2.163 11.095-5.347c1.4-1.558 142.52-154.72 372-154.72 229.478 0 370.72 153.162 372 154.72l0.56 0.602 36.678 36.678h-89.238c-4.243 0-8.314 1.686-11.315 4.688-2.998 3.002-4.685 7.069-4.685 11.312s1.686 8.314 4.685 11.315c3.002 3.002 7.072 4.685 11.315 4.685h128c4.243 0 8.314-1.683 11.312-4.685 3.002-3.002 4.688-7.072 4.688-11.315zM656 537.958v86.038c0.019 35.947-12.070 70.852-34.314 99.089s-53.344 48.162-88.294 56.562c-34.95 8.4-71.712 4.787-104.358-10.258s-59.274-40.644-75.594-72.671c-0.918-1.934-2.214-3.665-3.814-5.089-1.597-1.424-3.466-2.513-5.494-3.202-2.026-0.689-4.17-0.964-6.307-0.809-2.134 0.155-4.218 0.737-6.122 1.712-1.907 0.974-3.6 2.322-4.976 3.962s-2.41 3.54-3.037 5.586c-0.627 2.047-0.842 4.199-0.621 6.329 0.218 2.13 0.861 4.194 1.891 6.071 19.594 38.417 51.549 69.119 90.717 87.16 39.171 18.041 83.274 22.37 125.203 12.289s79.245-33.984 105.936-67.858c26.688-33.874 41.194-75.747 41.184-118.873v-368c0-4.243-1.686-8.31-4.688-11.312-2.998-3.002-7.069-4.688-11.312-4.688s-8.314 1.686-11.315 4.688c-2.998 3.002-4.685 7.069-4.685 11.312v70.042c-22.778-34.403-56.032-60.55-94.838-74.573-38.803-14.022-81.091-15.171-120.598-3.277s-74.134 36.198-98.746 69.315c-24.614 33.114-37.905 73.274-37.905 114.534 0 41.258 13.291 81.421 37.905 114.534 24.611 33.114 59.238 57.421 98.746 69.315s81.795 10.746 120.598-3.277c38.806-14.022 72.061-40.173 94.838-74.573v-0.080zM656 431.997c0 31.645-9.382 62.579-26.966 88.893-17.581 26.31-42.57 46.819-71.805 58.928-29.235 12.112-61.405 15.28-92.445 9.107-31.037-6.176-59.546-21.414-81.92-43.789-22.378-22.378-37.616-50.886-43.789-81.923-6.176-31.037-3.005-63.206 9.104-92.445 12.109-29.235 32.618-54.224 58.928-71.805 26.314-17.581 57.248-26.966 88.893-26.966 21.011 0 41.818 4.141 61.229 12.179 19.411 8.042 37.050 19.827 51.907 34.685s26.643 32.496 34.685 51.907c8.042 19.414 12.179 40.218 12.179 61.229z" />
<glyph unicode="&#xe91a;" glyph-name="ambulance" d="M336 480c0 4.243 1.686 8.314 4.685 11.315 3.002 2.998 7.072 4.685 11.315 4.685h80v80c0 4.243 1.686 8.314 4.685 11.315 3.002 2.998 7.072 4.685 11.315 4.685s8.314-1.686 11.315-4.685c2.998-3.002 4.685-7.072 4.685-11.315v-80h80c4.243 0 8.314-1.686 11.315-4.685 2.998-3.002 4.685-7.072 4.685-11.315s-1.686-8.314-4.685-11.315c-3.002-2.998-7.072-4.685-11.315-4.685h-80v-80c0-4.243-1.686-8.314-4.685-11.315-3.002-2.998-7.072-4.685-11.315-4.685s-8.314 1.686-11.315 4.685c-2.998 3.002-4.685 7.072-4.685 11.315v80h-80c-4.243 0-8.314 1.686-11.315 4.685-2.998 3.002-4.685 7.072-4.685 11.315zM1008 480v-256c0-12.73-5.056-24.941-14.058-33.942s-21.213-14.058-33.942-14.058h-81.158c-3.866-26.64-17.197-50.995-37.549-68.611-20.355-17.616-46.374-27.312-73.293-27.312s-52.938 9.696-73.293 27.312c-20.352 17.616-33.683 41.971-37.549 68.611h-226.32c-3.862-26.64-17.194-50.995-37.546-68.611-20.355-17.616-46.374-27.312-73.293-27.312s-52.937 9.696-73.292 27.312c-20.355 17.616-33.684 41.971-37.548 68.611h-81.16c-12.73 0-24.94 5.056-33.941 14.058s-14.059 21.213-14.059 33.942v448c0 12.73 5.057 24.94 14.059 33.941s21.211 14.059 33.941 14.059h608c4.243 0 8.314-1.686 11.315-4.686 2.998-3 4.685-7.070 4.685-11.314v-48h154.32c9.597 0.008 18.976-2.862 26.928-8.238 7.949-5.376 14.106-13.013 17.67-21.922l56-140c0.723-1.862 1.088-3.843 1.082-5.84zM752 624v-128h216.358l-47.158 117.958c-1.19 2.97-3.248 5.514-5.901 7.306-2.65 1.789-5.779 2.742-8.979 2.736h-154.32zM128 208h81.16c3.864 26.64 17.194 50.995 37.548 68.611s46.373 27.312 73.292 27.312c26.918 0 52.938-9.696 73.293-27.312 20.352-17.616 33.683-41.971 37.546-68.611h226.32c2.662 18.269 9.789 35.6 20.749 50.454 10.963 14.854 25.421 26.778 42.093 34.704v394.842h-592c-4.244 0-8.313-1.686-11.314-4.686s-4.686-7.070-4.686-11.314v-448c0-4.243 1.686-8.314 4.686-11.315 3-2.998 7.070-4.685 11.314-4.685zM400 192c0 15.824-4.691 31.29-13.482 44.445s-21.286 23.411-35.904 29.466c-14.618 6.054-30.703 7.638-46.222 4.554-15.518-3.088-29.773-10.707-40.961-21.894-11.188-11.19-18.807-25.443-21.894-40.963-3.087-15.517-1.503-31.603 4.552-46.221s16.309-27.114 29.465-35.904c13.156-8.79 28.623-13.482 44.446-13.482 21.216 0 41.565 8.429 56.57 23.43 15.002 15.005 23.43 35.354 23.43 56.57zM848 192c0 15.824-4.691 31.29-13.482 44.445s-21.286 23.411-35.904 29.466c-14.618 6.054-30.704 7.638-46.221 4.554-15.52-3.088-29.773-10.707-40.963-21.894-11.187-11.19-18.806-25.443-21.894-40.963-3.085-15.517-1.501-31.603 4.554-46.221s16.31-27.114 29.466-35.904c13.155-8.79 28.621-13.482 44.445-13.482 21.216 0 41.565 8.429 56.57 23.43 15.002 15.005 23.43 35.354 23.43 56.57zM976 224v240h-224v-161.158c29.395 4.24 59.274-3.37 83.059-21.155s39.536-44.291 43.782-73.686h81.158c4.243 0 8.314 1.686 11.315 4.685 2.998 3.002 4.685 7.072 4.685 11.315z" />
<glyph unicode="&#xe91b;" glyph-name="anchor" d="M864.003 400c-4.243 0-8.314-1.686-11.315-4.685-2.998-3.002-4.685-7.072-4.685-11.315 0-115.76-76-136.518-164.202-160.56-57.158-15.6-119.28-32.56-155.798-80.96v321.52h144c4.243 0 8.314 1.686 11.315 4.688 2.998 2.998 4.685 7.069 4.685 11.312s-1.686 8.314-4.685 11.315c-3.002 2.998-7.072 4.685-11.315 4.685h-144v129.162c28.026 4.045 53.478 18.554 71.235 40.609 17.76 22.055 26.506 50.018 24.477 78.261s-14.678 54.67-35.405 73.962c-20.726 19.292-47.99 30.018-76.307 30.018s-55.581-10.725-76.307-30.018c-20.726-19.292-33.376-45.719-35.405-73.962s6.717-56.206 24.477-78.261c17.757-22.055 43.21-36.564 71.235-40.609v-129.162h-144c-4.243 0-8.314-1.686-11.315-4.685-2.998-3.002-4.685-7.072-4.685-11.315s1.686-8.314 4.685-11.312c3.002-3.002 7.072-4.688 11.315-4.688h144v-321.52c-36.522 48.4-98.64 65.36-155.802 80.96-87.998 24-163.998 44.8-163.998 160.56 0 4.243-1.686 8.314-4.686 11.315-3.001 2.998-7.070 4.685-11.314 4.685s-8.313-1.686-11.314-4.685c-3-3.002-4.686-7.072-4.686-11.315 0-140.24 99.76-167.44 187.998-191.44 88.24-24 163.802-44.8 163.802-160.56 0-4.243 1.686-8.314 4.685-11.312 3.002-3.002 7.072-4.688 11.315-4.688s8.314 1.686 11.315 4.688c2.998 2.998 4.685 7.069 4.685 11.312 0 115.76 76 136.522 164.198 160.56 88.202 24.042 187.802 51.2 187.802 191.44 0 4.243-1.686 8.314-4.685 11.315-3.002 2.998-7.072 4.685-11.315 4.685zM432.003 736c0 15.823 4.691 31.29 13.482 44.446s21.286 23.41 35.904 29.465c14.618 6.055 30.704 7.639 46.221 4.553 15.52-3.087 29.773-10.706 40.963-21.894 11.187-11.188 18.806-25.443 21.894-40.961 3.085-15.518 1.501-31.604-4.554-46.222s-16.31-27.113-29.466-35.903c-13.155-8.79-28.621-13.483-44.445-13.483-21.216 0-41.565 8.429-56.57 23.432-15.002 15.003-23.43 35.351-23.43 56.568z" />
<glyph unicode="&#xe91c;" glyph-name="anchorsimple" d="M896 496h-96c-4.243 0-8.314-1.686-11.315-4.685-2.998-3.002-4.685-7.072-4.685-11.315s1.686-8.314 4.685-11.312c3.002-3.002 7.072-4.688 11.315-4.688h79.642c-4.125-91.933-42.496-178.998-107.568-244.074-65.072-65.072-152.138-103.443-244.074-107.565v480.8c28.026 4.045 53.478 18.554 71.235 40.608 17.76 22.057 26.506 50.020 24.477 78.263s-14.678 54.67-35.405 73.962c-20.726 19.292-47.99 30.018-76.307 30.018s-55.581-10.725-76.307-30.018c-20.726-19.292-33.376-45.719-35.405-73.962s6.717-56.206 24.477-78.263c17.757-22.054 43.21-36.563 71.235-40.608v-480.8c-91.936 4.122-179 42.493-244.073 107.565-65.073 65.075-103.444 152.141-107.567 244.074h79.64c4.244 0 8.313 1.686 11.314 4.688 3.001 2.998 4.686 7.069 4.686 11.312s-1.686 8.314-4.686 11.315c-3 2.998-7.070 4.685-11.314 4.685h-96c-4.244 0-8.313-1.686-11.314-4.685-3.001-3.002-4.686-7.072-4.686-11.315 0-106.086 42.143-207.827 117.157-282.842s176.756-117.158 282.843-117.158c106.086 0 207.827 42.144 282.842 117.158s117.158 176.755 117.158 282.842c0 4.243-1.686 8.314-4.685 11.315-3.002 2.998-7.072 4.685-11.315 4.685zM432 704c0 15.823 4.691 31.29 13.482 44.446s21.286 23.41 35.904 29.465c14.618 6.055 30.704 7.639 46.221 4.553 15.52-3.087 29.773-10.706 40.963-21.894 11.187-11.188 18.806-25.443 21.894-40.961 3.085-15.518 1.501-31.604-4.554-46.222s-16.31-27.113-29.466-35.904c-13.155-8.79-28.621-13.482-44.445-13.482-21.216 0-41.565 8.429-56.57 23.432-15.002 15.003-23.43 35.351-23.43 56.568z" />
<glyph unicode="&#xe91d;" glyph-name="androidlogo" d="M688 368c0-6.33-1.875-12.518-5.392-17.779-3.517-5.264-8.515-9.363-14.362-11.786s-12.282-3.056-18.49-1.821c-6.208 1.235-11.907 4.282-16.384 8.758-4.477 4.474-7.523 10.176-8.758 16.384s-0.602 12.64 1.821 18.486c2.422 5.85 6.525 10.848 11.786 14.362 5.264 3.517 11.45 5.395 17.779 5.395 8.486 0 16.627-3.373 22.627-9.373 6-6.003 9.373-14.141 9.373-22.627zM368 400c-6.33 0-12.515-1.878-17.779-5.395-5.261-3.514-9.363-8.512-11.786-14.362-2.422-5.846-3.056-12.278-1.821-18.486s4.282-11.91 8.758-16.384c4.477-4.477 10.176-7.523 16.384-8.758s12.643-0.602 18.49 1.821c5.846 2.422 10.845 6.522 14.362 11.786 3.517 5.261 5.392 11.45 5.392 17.779 0 8.486-3.373 16.624-9.373 22.627-6 6-14.141 9.373-22.627 9.373zM944 320v-96c0-12.733-5.056-24.941-14.058-33.942s-21.213-14.058-33.942-14.058h-768c-12.731 0-24.94 5.056-33.941 14.058s-14.059 21.21-14.059 33.942v91.478c-0.058 62.288 13.178 123.872 38.825 180.637 25.647 56.762 63.113 107.398 109.895 148.524l-112 112c-3.002 3.002-4.689 7.074-4.689 11.32s1.687 8.318 4.689 11.32c3.002 3.002 7.074 4.689 11.32 4.689s8.318-1.686 11.32-4.689l114.28-114.28c73.87 56.168 164.043 86.713 256.84 87h1.52c93.472 0.261 184.464-30.037 259.12-86.28l113.562 113.6c3.002 3.002 7.072 4.689 11.318 4.689s8.317-1.686 11.322-4.689c3.002-3.002 4.688-7.074 4.688-11.32s-1.686-8.318-4.688-11.32l-111.322-111.24c7.12-6.239 14.080-12.681 20.842-19.439 40.426-40.029 72.486-87.693 94.317-140.227s32.995-108.886 32.842-165.773zM912 320c0 52.528-10.346 104.541-30.448 153.072s-49.565 92.627-86.71 129.77c-37.142 37.142-81.238 66.607-129.77 86.709-48.528 20.102-100.544 30.448-153.072 30.448h-1.398c-219.801-0.76-398.601-182.239-398.601-404.521v-91.478c0-4.243 1.685-8.314 4.686-11.315s7.070-4.685 11.314-4.685h768c4.243 0 8.314 1.683 11.315 4.685 2.998 3.002 4.685 7.072 4.685 11.315v96z" />
<glyph unicode="&#xe91e;" glyph-name="angle" d="M400 672c0 4.244 1.686 8.313 4.685 11.314 3.002 3.001 7.072 4.686 11.315 4.686 106.051-0.116 207.725-42.297 282.714-117.286s117.171-176.662 117.286-282.714c0-4.243-1.686-8.314-4.685-11.315-3.002-2.998-7.072-4.685-11.315-4.685s-8.314 1.686-11.315 4.685c-2.998 3.002-4.685 7.072-4.685 11.315-0.106 97.568-38.912 191.107-107.901 260.099-68.992 68.989-162.531 107.795-260.099 107.901-4.243 0-8.314 1.686-11.315 4.686-2.998 3-4.685 7.070-4.685 11.314zM960 176h-656v656c0 4.244-1.686 8.313-4.686 11.314s-7.070 4.686-11.314 4.686c-4.244 0-8.313-1.686-11.314-4.686s-4.686-7.070-4.686-11.314v-144h-144c-4.244 0-8.313-1.686-11.314-4.686s-4.686-7.070-4.686-11.314c0-4.244 1.686-8.313 4.686-11.314s7.070-4.686 11.314-4.686h144v-496c0-4.243 1.686-8.314 4.686-11.315 3-2.998 7.070-4.685 11.314-4.685h672c4.243 0 8.314 1.686 11.315 4.685 2.998 3.002 4.685 7.072 4.685 11.315s-1.686 8.314-4.685 11.315c-3.002 2.998-7.072 4.685-11.315 4.685z" />
<glyph unicode="&#xe91f;" glyph-name="angularlogo" d="M902.16 686.759l-384 160c-1.952 0.814-4.045 1.234-6.16 1.234s-4.208-0.419-6.16-1.234l-384-160c-3.275-1.331-6.016-3.71-7.796-6.764s-2.499-6.611-2.044-10.116l64-480c0.342-2.586 1.312-5.050 2.825-7.178 1.513-2.125 3.523-3.85 5.855-5.021l320.001-160c2.221-1.114 4.672-1.693 7.158-1.693s4.938 0.579 7.162 1.693l320 160c2.33 1.171 4.339 2.896 5.853 5.021 1.514 2.128 2.483 4.592 2.826 7.178l64 480c0.477 3.468-0.195 6.996-1.914 10.045s-4.39 5.45-7.606 6.835zM817.28 202.518l-305.28-152.64-305.28 152.64-61.24 459.44 366.52 152.72 366.522-152.72-61.242-459.44zM498 615.76l-160-288c-1.018-1.84-1.667-3.862-1.904-5.949-0.237-2.090-0.061-4.205 0.518-6.224 0.579-2.022 1.549-3.907 2.858-5.552s2.931-3.018 4.768-4.035c1.84-1.021 3.859-1.667 5.949-1.904 2.090-0.24 4.202-0.064 6.224 0.515 2.019 0.579 3.907 1.552 5.552 2.861s3.018 2.928 4.035 4.768l48.762 87.76h194.48l48.758-87.76c1.021-1.84 2.39-3.459 4.035-4.768s3.533-2.282 5.552-2.861c2.022-0.579 4.138-0.755 6.224-0.515 2.090 0.237 4.112 0.883 5.949 1.904 1.84 1.018 3.459 2.39 4.768 4.035s2.278 3.53 2.858 5.552c0.579 2.019 0.755 4.134 0.518 6.224-0.237 2.086-0.883 4.109-1.904 5.949l-160 288c-1.382 2.499-3.411 4.586-5.875 6.035-2.461 1.453-5.267 2.218-8.125 2.218s-5.664-0.765-8.125-2.218c-2.464-1.45-4.493-3.536-5.875-6.035zM591.482 432h-158.96l79.478 143.040 79.482-143.040z" />
<glyph unicode="&#xe920;" glyph-name="aperture" d="M794.835 730.84c-37.082 37.41-81.19 67.128-129.792 87.446-48.598 20.318-100.733 30.836-153.408 30.952-52.678 0.115-104.858-10.175-153.546-30.28s-92.927-49.629-130.174-86.876c-37.248-37.248-66.772-81.485-86.876-130.174s-30.395-100.87-30.28-153.546c0.116-52.675 10.634-104.81 30.952-153.411 20.318-48.598 50.036-92.707 87.446-129.792 37.084-37.408 81.192-67.126 129.794-87.443 48.598-20.32 100.733-30.838 153.408-30.954 52.678-0.115 104.858 10.176 153.546 30.282 48.688 20.102 92.925 49.629 130.173 86.874 37.248 37.248 66.771 81.488 86.877 130.176s30.397 100.867 30.282 153.542c-0.115 52.678-10.634 104.813-30.954 153.411-20.317 48.601-50.035 92.709-87.446 129.793zM836.317 273.76l-244 44.56 249.28 293.68c26.125-52.694 39.274-110.874 38.355-169.68-0.918-58.81-15.878-116.547-43.635-168.4v-0.16zM383.475 471.478l84.522 99.562 128.56-23.44 44-123.082-84.56-99.558-128.56 23.44-43.962 123.078zM824.957 641.68l-160.522-189.001-129.44 362.521c58.672-3.687 115.61-21.363 166.051-51.55 50.445-30.187 92.931-72.009 123.91-121.97zM251.996 708c66.133 66.48 155.303 104.978 249.040 107.52l82.96-233.161-378.72 69.201c13.677 20.306 29.326 39.211 46.72 56.44zM187.996 622.038l244-44.56-249.6-293.478c-26.124 52.694-39.275 110.87-38.357 169.68s15.88 116.547 43.637 168.4l0.32-0.042zM199.356 254.038l160.519 189.002 129.44-362.522c-58.669 3.69-115.606 21.363-166.048 51.552-50.445 30.186-92.932 72.006-123.911 121.968zM772.515 187.52c-66.131-66.48-155.302-104.979-249.040-107.52l-83.478 233.638 378.88-69.2c-13.654-20.371-29.29-39.344-46.682-56.64l0.32-0.278z" />
<glyph unicode="&#xe921;" glyph-name="applelogo" d="M873.082 282.038c-73.642 50.602-89.082 135.562-89.082 197.962 0 76.678 57.002 142.118 91.002 174.28 1.578 1.495 2.835 3.297 3.696 5.295s1.302 4.15 1.302 6.325c0 2.175-0.442 4.327-1.302 6.325s-2.118 3.799-3.696 5.295c-47.002 44.56-128.64 74.48-203.002 74.48-57.475-0.072-113.466-18.268-160-52-52.253 38.154-116.454 56.309-180.95 51.172s-125.014-33.228-170.569-79.172c-26.477-27.068-47.245-59.181-61.071-94.429-13.825-35.251-20.426-72.922-19.409-110.771 1.549-65.382 16.107-129.798 42.822-189.494 26.716-59.693 65.054-113.469 112.778-158.186 26.7-25.226 62.069-39.229 98.8-39.12h350.8c19.626-0.038 39.050 3.955 57.072 11.728 18.019 7.776 34.25 19.168 47.69 33.472 26.8 28.774 49.958 60.733 68.96 95.158 24.32 44.403 21.68 50.48 19.76 54.88-1.194 2.749-3.136 5.104-5.6 6.8zM766.522 146.96c-10.445-11.078-23.050-19.898-37.037-25.91s-29.059-9.094-44.285-9.050h-350.8c-28.536-0.077-56.013 10.806-76.76 30.4-44.661 41.821-80.542 92.122-105.548 147.965s-38.635 116.106-40.092 177.277c-0.908 33.517 4.931 66.874 17.169 98.093 12.238 31.216 30.626 59.654 54.071 83.626 21.982 22.454 48.242 40.274 77.228 52.407s60.111 18.333 91.532 18.233h3.36c53.405-0.546 105.066-19.076 146.64-52.6 2.838-2.272 6.365-3.51 10-3.51s7.162 1.238 10 3.51c42.47 34.249 95.44 52.824 150 52.6 60.48 0 125.802-21.64 168.442-54.92-37.722-38.76-88.442-105.72-88.442-185.080 0-95.162 32-169.76 92.48-216.678-19.462-42.784-45.795-82.090-77.958-116.362zM528.522 836c7.981 30.919 26.016 58.308 51.264 77.858 25.251 19.55 56.282 30.153 88.214 30.142h4c4.243 0 8.314-1.686 11.315-4.686 2.998-3.001 4.685-7.070 4.685-11.314s-1.686-8.313-4.685-11.314c-3.002-3.001-7.072-4.686-11.315-4.686h-4c-24.835 0.008-48.97-8.239-68.608-23.445-19.635-15.206-33.664-36.508-39.872-60.555-0.886-3.439-2.896-6.485-5.706-8.658s-6.262-3.349-9.814-3.342c-1.35-0.002-2.694 0.173-4 0.52-4.102 1.064-7.619 3.712-9.77 7.365-2.154 3.652-2.768 8.010-1.709 12.115z" />
<glyph unicode="&#xe922;" glyph-name="applepodcastslogo" d="M589.040 398.8c16.266 15.414 27.533 35.35 32.346 57.235s2.95 44.71-5.344 65.526c-8.298 20.816-22.646 38.662-41.194 51.238-18.547 12.573-40.442 19.296-62.848 19.296s-44.301-6.723-62.848-19.296c-18.547-12.576-32.896-30.422-41.194-51.238-8.294-20.816-10.157-43.642-5.344-65.526s16.080-41.821 32.346-57.235c-19.901-3.382-37.805-14.118-50.16-30.080-7.466-9.504-12.64-20.602-15.123-32.429s-2.208-24.067 0.803-35.77l48.72-192c4.49-17.395 14.653-32.794 28.883-43.757s31.712-16.861 49.677-16.765h28.48c17.965-0.096 35.446 5.802 49.677 16.765s24.394 26.362 28.883 43.757l48.72 192c3.011 11.702 3.286 23.942 0.803 35.77s-7.658 22.925-15.123 32.429c-12.355 15.962-30.259 26.698-50.16 30.080zM432 480c0 15.824 4.691 31.29 13.482 44.445 8.79 13.158 21.286 23.411 35.904 29.466s30.704 7.638 46.221 4.554c15.52-3.088 29.773-10.707 40.963-21.894 11.187-11.19 18.806-25.443 21.894-40.963 3.085-15.517 1.501-31.603-4.554-46.221s-16.307-27.114-29.466-35.904c-13.155-8.79-28.621-13.482-44.445-13.482-21.216 0-41.565 8.429-56.57 23.43-15.002 15.005-23.43 35.354-23.43 56.57zM622.522 308.4l-48.72-192c-2.752-10.493-8.922-19.77-17.536-26.362-8.611-6.592-19.178-10.125-30.026-10.038h-28.48c-10.848-0.086-21.414 3.446-30.026 10.038-8.614 6.592-14.784 15.869-17.533 26.362l-48.72 192c-1.786 6.982-1.942 14.285-0.458 21.338 1.482 7.053 4.566 13.67 9.018 19.344 4.605 5.93 10.518 10.72 17.274 14 6.755 3.283 14.176 4.963 21.686 4.918h126c7.507 0.045 14.928-1.635 21.683-4.918 6.758-3.28 12.669-8.070 17.277-14 4.448-5.674 7.533-12.291 9.018-19.344 1.482-7.053 1.325-14.355-0.458-21.338zM752 448c-0.026 34.25-7.382 68.093-21.574 99.264-14.192 31.168-34.893 58.938-60.707 81.446-25.814 22.506-56.144 39.227-88.957 49.039s-67.344 12.488-101.277 7.848c-33.933-4.64-66.48-16.489-95.453-34.75s-53.702-42.511-72.527-71.123c-18.824-28.611-31.307-60.918-36.61-94.755-5.303-33.834-3.303-68.413 5.865-101.408 1.135-4.090 0.599-8.464-1.49-12.16-2.089-3.693-5.56-6.406-9.65-7.542-4.090-1.133-8.463-0.598-12.157 1.491s-6.408 5.562-7.543 9.651c-11.272 40.413-13.042 82.886-5.172 124.096s25.167 80.042 50.538 113.459c25.37 33.414 58.128 60.508 95.709 79.16s78.97 28.358 120.925 28.358c41.955 0 83.344-9.706 120.925-28.358s70.339-45.746 95.709-79.16c25.373-33.418 42.669-72.25 50.538-113.459 7.872-41.21 6.099-83.683-5.171-124.096-0.934-3.37-2.947-6.336-5.728-8.454-2.781-2.115-6.176-3.264-9.67-3.267-1.446-0.013-2.886 0.176-4.282 0.56-2.029 0.56-3.926 1.514-5.587 2.81-1.661 1.293-3.050 2.902-4.086 4.736-1.037 1.83-1.699 3.85-1.955 5.939s-0.096 4.208 0.47 6.237c5.872 20.976 8.874 42.653 8.918 64.438zM912 448c0.035-65.76-16.154-130.509-47.133-188.515-30.982-58.003-75.795-107.466-130.467-144.003-3.523-2.282-7.798-3.085-11.91-2.243-4.109 0.845-7.725 3.27-10.064 6.752-2.339 3.485-3.216 7.747-2.445 11.872 0.774 4.125 3.136 7.779 6.579 10.179 65.619 43.878 115.389 107.693 141.962 182.022 26.573 74.333 28.541 155.238 5.613 230.771-22.928 75.536-69.536 141.695-132.944 188.712s-140.253 72.4-219.19 72.4c-78.938 0-155.782-25.383-219.191-72.4s-110.016-113.176-132.944-188.712c-22.928-75.533-20.96-156.438 5.613-230.771 26.573-74.33 76.343-138.144 141.962-182.022 3.443-2.4 5.805-6.054 6.578-10.179s-0.104-8.387-2.444-11.872c-2.34-3.482-5.954-5.907-10.064-6.752-4.11-0.842-8.388-0.038-11.91 2.243-57.43 38.416-103.93 91.053-134.968 152.784s-45.558 130.448-42.143 199.459c3.415 69.008 24.648 135.958 61.629 194.322 36.982 58.364 88.451 106.154 149.392 138.713 60.944 32.559 129.28 48.776 198.355 47.072 69.072-1.704 136.528-21.271 195.789-56.795 59.264-35.524 108.314-85.794 142.374-145.91 34.058-60.118 51.962-128.031 51.971-197.126z" />
<glyph unicode="&#xe923;" glyph-name="approximateequals" d="M876.317 336.64c2.704-3.267 4-7.475 3.6-11.699-0.397-4.221-2.454-8.115-5.722-10.819-59.958-49.722-118.598-74.122-178.48-74.122-8.179-0.003-16.352 0.451-24.48 1.36-60 6.602-114.4 36-166.88 64.56-102.080 55.44-198.479 108-334.159-4.72-3.281-2.573-7.438-3.766-11.585-3.318-4.147 0.445-7.956 2.493-10.615 5.702-2.66 3.213-3.96 7.338-3.624 11.494s2.282 8.019 5.423 10.762c68 56.48 134.48 80.282 202.959 72.8 60-6.598 114.4-36 166.88-64.598 102.080-55.44 198.48-107.76 334.16 4.72 3.27 2.704 7.478 3.997 11.699 3.6 4.224-0.397 8.115-2.454 10.822-5.722zM170.196 557.242c135.68 112.479 231.999 60 334.159 4.72 52.48-28.522 106.762-58 166.88-64.602 8.131-0.877 16.304-1.315 24.48-1.318 60 0 118.522 24.4 178.48 74.118 1.683 1.318 3.082 2.96 4.118 4.829s1.686 3.926 1.917 6.051c0.227 2.125 0.029 4.272-0.589 6.32-0.614 2.045-1.635 3.946-2.995 5.594-1.363 1.645-3.043 3.002-4.938 3.987s-3.968 1.584-6.099 1.757c-2.128 0.173-4.272-0.083-6.301-0.755-2.029-0.669-3.904-1.738-5.514-3.142-135.68-112.518-232-60-334.16-4.72-52.48 28.522-106.758 57.92-166.88 64.56-68.479 7.52-134.879-16.279-202.959-72.759-1.681-1.322-3.081-2.963-4.117-4.832s-1.688-3.923-1.916-6.048c-0.228-2.125-0.029-4.275 0.587-6.32s1.635-3.949 2.997-5.594c1.363-1.645 3.041-3.002 4.936-3.987 1.895-0.989 3.969-1.584 6.098-1.757s4.272 0.083 6.301 0.752c2.029 0.669 3.904 1.738 5.513 3.146z" />
<glyph unicode="&#xe924;" glyph-name="appstorelogo" d="M243.6 184l-37.84-64c-0.922-2.042-2.262-3.866-3.933-5.354-1.671-1.491-3.636-2.614-5.768-3.296s-4.384-0.909-6.61-0.669c-2.226 0.243-4.376 0.95-6.311 2.077-1.935 1.123-3.613 2.643-4.925 4.458s-2.228 3.882-2.689 6.074c-0.462 2.192-0.459 4.454 0.009 6.643s1.39 4.256 2.707 6.067l37.76 64c2.286 3.315 5.738 5.648 9.667 6.531 3.929 0.88 8.047 0.25 11.531-1.77s6.078-5.28 7.265-9.126c1.187-3.85 0.878-8.003-0.863-11.635zM928 336h-200.32l-127.68 216c-1.069 1.808-2.483 3.392-4.163 4.653-1.68 1.264-3.594 2.182-5.629 2.707-4.112 1.056-8.474 0.438-12.128-1.722-3.654-2.157-6.301-5.68-7.36-9.792-1.056-4.109-0.438-8.474 1.722-12.128l245.798-415.718c1.024-1.898 2.419-3.568 4.102-4.912s3.622-2.333 5.696-2.912c2.077-0.576 4.25-0.726 6.384-0.445s4.192 0.995 6.048 2.093c1.853 1.094 3.469 2.557 4.742 4.291 1.277 1.738 2.189 3.712 2.685 5.808 0.493 2.099 0.56 4.275 0.192 6.397s-1.158 4.15-2.33 5.958l-99.162 168h181.402c4.243 0 8.314 1.686 11.315 4.688 2.998 3.002 4.685 7.069 4.685 11.312s-1.686 8.314-4.685 11.315c-3.002 3.002-7.072 4.685-11.315 4.685v-0.278zM569.882 336h-236.4l288.278 488c1.315 1.811 2.24 3.877 2.707 6.067s0.47 4.452 0.010 6.643c-0.461 2.191-1.379 4.26-2.691 6.074-1.309 1.814-2.989 3.333-4.925 4.459-1.933 1.125-4.083 1.832-6.31 2.074-2.224 0.242-4.477 0.015-6.608-0.668-2.134-0.683-4.099-1.805-5.77-3.295s-3.011-3.314-3.933-5.354l-82.24-139-82.24 139c-0.922 2.040-2.262 3.864-3.933 5.354s-3.635 2.612-5.77 3.295c-2.131 0.683-4.384 0.91-6.608 0.668-2.227-0.242-4.378-0.948-6.31-2.074-1.936-1.125-3.616-2.644-4.925-4.459-1.312-1.814-2.23-3.884-2.691-6.074s-0.458-4.454 0.010-6.643c0.467-2.189 1.392-4.256 2.707-6.067l91.158-154.32-197.078-333.68h-200.32c-4.244 0-8.313-1.686-11.314-4.688-3.001-2.998-4.686-7.069-4.686-11.312s1.686-8.314 4.686-11.315c3-2.998 7.070-4.685 11.314-4.685h473.882c4.243 0 8.31 1.686 11.312 4.685 3.002 3.002 4.688 7.072 4.688 11.315s-1.686 8.314-4.688 11.312c-3.002 3.002-7.069 4.688-11.312 4.688z" />
<glyph unicode="&#xe925;" glyph-name="appwindow" d="M864 784h-704c-12.73 0-24.94-5.057-33.941-14.059s-14.059-21.211-14.059-33.941v-576c0-12.73 5.057-24.941 14.059-33.942s21.211-14.058 33.941-14.058h704c12.73 0 24.941 5.056 33.942 14.058s14.058 21.213 14.058 33.942v576c0 12.73-5.056 24.94-14.058 33.941s-21.213 14.059-33.942 14.059zM880 160c0-4.243-1.686-8.314-4.685-11.315-3.002-2.998-7.072-4.685-11.315-4.685h-704c-4.244 0-8.313 1.686-11.314 4.685-3.001 3.002-4.686 7.072-4.686 11.315v576c0 4.244 1.686 8.313 4.686 11.314s7.070 4.686 11.314 4.686h704c4.243 0 8.314-1.686 11.315-4.686 2.998-3 4.685-7.070 4.685-11.314v-576zM304 624c0-6.33-1.877-12.515-5.393-17.779-3.516-5.261-8.514-9.363-14.361-11.786s-12.281-3.056-18.489-1.821c-6.207 1.235-11.909 4.282-16.385 8.758-4.475 4.474-7.523 10.176-8.758 16.384s-0.601 12.643 1.821 18.49c2.422 5.847 6.524 10.844 11.786 14.361s11.449 5.393 17.778 5.393c8.487 0 16.626-3.372 22.628-9.372s9.372-14.141 9.372-22.628zM464 624c0-6.33-1.875-12.515-5.392-17.779-3.517-5.261-8.515-9.363-14.362-11.786s-12.282-3.056-18.49-1.821c-6.208 1.235-11.91 4.282-16.384 8.758-4.477 4.474-7.523 10.176-8.758 16.384s-0.602 12.643 1.821 18.49c2.422 5.847 6.525 10.844 11.786 14.361 5.264 3.516 11.45 5.393 17.779 5.393 8.486 0 16.627-3.372 22.627-9.372s9.373-14.141 9.373-22.628z" />
<glyph unicode="&#xe926;" glyph-name="archive" d="M896 752h-768c-12.73 0-24.94-5.057-33.941-14.059s-14.059-21.211-14.059-33.941v-96c0-12.73 5.057-24.941 14.059-33.942s21.211-14.058 33.941-14.058h16v-368c0-12.73 5.057-24.941 14.059-33.942s21.211-14.058 33.941-14.058h640c12.73 0 24.941 5.056 33.942 14.058s14.058 21.213 14.058 33.942v368h16c12.73 0 24.941 5.056 33.942 14.058s14.058 21.213 14.058 33.942v96c0 12.73-5.056 24.94-14.058 33.941s-21.213 14.059-33.942 14.059zM848 192c0-4.243-1.686-8.314-4.685-11.315-3.002-2.998-7.072-4.685-11.315-4.685h-640c-4.244 0-8.313 1.686-11.314 4.685-3.001 3.002-4.686 7.072-4.686 11.315v368h672v-368zM912 608c0-4.243-1.686-8.314-4.685-11.315-3.002-2.998-7.072-4.685-11.315-4.685h-768c-4.244 0-8.313 1.686-11.314 4.685-3.001 3.002-4.686 7.072-4.686 11.315v96c0 4.244 1.686 8.313 4.686 11.314s7.070 4.686 11.314 4.686h768c4.243 0 8.314-1.686 11.315-4.686 2.998-3 4.685-7.070 4.685-11.314v-96zM400 416c0 4.243 1.686 8.314 4.685 11.315 3.002 2.998 7.072 4.685 11.315 4.685h192c4.243 0 8.314-1.686 11.315-4.685 2.998-3.002 4.685-7.072 4.685-11.315s-1.686-8.314-4.685-11.315c-3.002-2.998-7.072-4.685-11.315-4.685h-192c-4.243 0-8.314 1.686-11.315 4.685-2.998 3.002-4.685 7.072-4.685 11.315z" />
<glyph unicode="&#xe927;" glyph-name="armchair" d="M848 591.078v80.922c0 38.191-15.171 74.818-42.176 101.823s-63.632 42.177-101.824 42.177h-384c-38.191 0-74.818-15.172-101.823-42.177s-42.177-63.632-42.177-101.823v-80.922c-35.187-3.952-67.684-20.73-91.282-47.126s-36.644-60.563-36.644-95.971c0-35.408 13.045-69.574 36.644-95.974 23.598-26.397 56.095-43.174 91.282-47.126v-144.88c0-12.73 5.057-24.941 14.059-33.942s21.211-14.058 33.941-14.058h576c12.73 0 24.938 5.056 33.939 14.058 9.005 9.002 14.061 21.213 14.061 33.942v144.88c35.187 3.952 67.683 20.73 91.28 47.126 23.6 26.4 36.646 60.566 36.646 95.974s-13.046 69.574-36.646 95.971c-23.597 26.397-56.093 43.174-91.28 47.126zM320 784h384c29.702 0 58.192-11.8 79.197-32.804 21.002-21.004 32.803-49.492 32.803-79.196v-80.922c-35.197-3.933-67.709-20.701-91.322-47.098-23.613-26.394-36.672-60.566-36.678-95.981v-16h-352v16c-0.006 35.414-13.066 69.587-36.678 95.981-23.613 26.397-56.125 43.165-91.322 47.098v80.922c0 29.704 11.8 58.192 32.804 79.196s49.492 32.804 79.196 32.804zM833.2 336h-1.2c-4.243 0-8.314-1.686-11.315-4.685-2.998-3.002-4.685-7.072-4.685-11.315v-160c0-4.243-1.686-8.314-4.688-11.315-2.998-2.998-7.069-4.685-11.312-4.685h-576c-4.244 0-8.313 1.686-11.314 4.685-3.001 3.002-4.686 7.072-4.686 11.315v160c0 4.243-1.686 8.314-4.686 11.315-3 2.998-7.070 4.685-11.314 4.685h-1.2c-22.099 0.237-43.634 7.005-61.893 19.456s-32.428 30.022-40.722 50.509c-8.293 20.483-10.341 42.966-5.884 64.611 4.456 21.648 15.217 41.491 30.927 57.034 15.71 15.546 35.668 26.093 57.36 30.317 21.692 4.227 44.15 1.939 64.546-6.573 20.396-8.509 37.817-22.864 50.072-41.258 12.254-18.39 18.794-39.997 18.795-62.096v-160c0-4.243 1.686-8.314 4.686-11.315 3-2.998 7.070-4.685 11.314-4.685s8.314 1.686 11.312 4.685c3.002 3.002 4.688 7.072 4.688 11.315v112h352v-112c0-4.243 1.686-8.314 4.685-11.315 3.002-2.998 7.072-4.685 11.315-4.685s8.314 1.686 11.312 4.685c3.002 3.002 4.688 7.072 4.688 11.315v160c0 22.099 6.541 43.706 18.794 62.096 12.256 18.394 29.677 32.749 50.074 41.258 20.394 8.512 42.851 10.8 64.544 6.573 21.693-4.224 41.651-14.771 57.36-30.317 15.712-15.542 26.474-35.386 30.928-57.034 4.458-21.645 2.41-44.128-5.885-64.611-8.294-20.486-22.461-38.058-40.72-50.509-18.262-12.451-39.795-19.219-61.894-19.456z" />
<glyph unicode="&#xe928;" glyph-name="arrowarcleft" d="M912 224c0-4.243-1.686-8.314-4.685-11.315-3.002-2.998-7.072-4.685-11.315-4.685s-8.314 1.686-11.315 4.685c-2.998 3.002-4.685 7.072-4.685 11.315-0.086 72.72-21.715 143.786-62.157 204.224s-97.885 107.539-165.075 135.357c-67.187 27.818-141.114 35.104-212.442 20.941s-136.862-49.142-188.326-100.522l-117.2-116h217.2c4.243 0 8.314-1.686 11.315-4.685 2.998-3.002 4.685-7.072 4.685-11.315s-1.686-8.314-4.685-11.315c-3.002-2.998-7.072-4.685-11.315-4.685h-256c-4.244 0-8.313 1.686-11.314 4.685-3.001 3.002-4.686 7.072-4.686 11.315v256c0 4.243 1.686 8.314 4.686 11.315 3 2.998 7.070 4.685 11.314 4.685s8.313-1.686 11.314-4.685c3.001-3.002 4.686-7.072 4.686-11.315v-217.558l117.2 116.438c55.946 55.93 127.219 94.013 204.806 109.437 77.59 15.424 158.010 7.498 231.091-22.781 73.085-30.278 135.549-81.546 179.498-147.322 43.946-65.776 67.405-143.107 67.405-222.214z" />
<glyph unicode="&#xe929;" glyph-name="arrowarcright" d="M944 608v-256c0-4.243-1.686-8.314-4.685-11.315-3.002-2.998-7.072-4.685-11.315-4.685h-256c-4.243 0-8.314 1.686-11.315 4.685-2.998 3.002-4.685 7.072-4.685 11.315s1.686 8.314 4.685 11.315c3.002 2.998 7.072 4.685 11.315 4.685h217.2l-116.96 116c-51.453 51.462-117.005 86.512-188.374 100.723s-145.35 6.944-212.589-20.883c-67.24-27.827-124.719-74.966-165.173-135.456s-62.066-131.613-62.103-204.384c0-4.243-1.686-8.314-4.686-11.315-3-2.998-7.070-4.685-11.314-4.685s-8.313 1.686-11.314 4.685c-3.001 3.002-4.686 7.072-4.686 11.315 0.001 79.11 23.461 156.448 67.414 222.224 43.953 65.779 106.424 117.050 179.514 147.322 73.088 30.275 153.514 38.198 231.107 22.765 77.59-15.434 148.864-53.53 204.806-109.472l117.158-116.397v217.558c0 4.243 1.686 8.314 4.685 11.315 3.002 2.998 7.072 4.685 11.315 4.685s8.314-1.686 11.315-4.685c2.998-3.002 4.685-7.072 4.685-11.315z" />
<glyph unicode="&#xe92a;" glyph-name="arrowbenddoubleupleft" d="M331.318 363.318c3.005-3.002 4.691-7.072 4.691-11.318s-1.686-8.317-4.691-11.322c-3.002-3.002-7.072-4.688-11.318-4.688s-8.318 1.686-11.32 4.688l-192 192c-1.488 1.488-2.668 3.251-3.473 5.194s-1.22 4.026-1.22 6.128c0 2.102 0.414 4.186 1.22 6.128s1.985 3.706 3.473 5.19l192 192.002c1.486 1.486 3.251 2.666 5.194 3.47s4.024 1.219 6.126 1.219c2.102 0 4.182-0.414 6.125-1.219s3.709-1.984 5.194-3.47c1.488-1.487 2.669-3.252 3.472-5.194s1.219-4.024 1.219-6.126c0-2.102-0.416-4.184-1.219-6.126s-1.984-3.707-3.472-5.194l-180.678-180.68 180.678-180.682zM512 560h-153.36l164.678 164.68c3.005 3.002 4.691 7.074 4.691 11.32s-1.686 8.318-4.691 11.32c-3.002 3.002-7.072 4.689-11.318 4.689s-8.317-1.686-11.322-4.689l-191.998-192.002c-1.488-1.485-2.668-3.248-3.473-5.19s-1.22-4.026-1.22-6.128c0-2.102 0.414-4.186 1.22-6.128s1.985-3.706 3.473-5.194l191.998-192c3.005-3.002 7.075-4.688 11.322-4.688s8.317 1.686 11.318 4.688c3.005 3.005 4.691 7.075 4.691 11.322s-1.686 8.317-4.691 11.318l-164.678 164.682h153.36c97.568-0.106 191.107-38.912 260.099-107.901 68.989-68.992 107.795-162.531 107.901-260.099 0-4.243 1.686-8.314 4.685-11.315 3.002-2.998 7.072-4.685 11.315-4.685s8.314 1.686 11.312 4.685c3.002 3.002 4.688 7.072 4.688 11.315-0.115 106.051-42.298 207.725-117.286 282.714s-176.662 117.171-282.714 117.286z" />
<glyph unicode="&#xe92b;" glyph-name="arrowbenddoubleupright" d="M907.322 532.678l-192-192c-3.005-3.002-7.075-4.688-11.322-4.688s-8.317 1.686-11.322 4.688c-3.002 3.005-4.688 7.075-4.688 11.322s1.686 8.317 4.688 11.318l180.682 180.682-180.682 180.68c-3.002 3.002-4.688 7.074-4.688 11.32s1.686 8.318 4.688 11.32c3.005 3.002 7.075 4.689 11.322 4.689s8.317-1.686 11.322-4.689l192-192.002c1.485-1.485 2.666-3.248 3.472-5.19 0.803-1.942 1.219-4.026 1.219-6.128s-0.416-4.186-1.219-6.128c-0.806-1.942-1.987-3.706-3.472-5.194zM715.322 555.318l-192 192.002c-1.488 1.486-3.254 2.666-5.197 3.47-1.939 0.804-4.022 1.219-6.125 1.219s-4.186-0.414-6.125-1.219c-1.942-0.804-3.709-1.984-5.197-3.47-1.485-1.487-2.666-3.252-3.469-5.194s-1.219-4.024-1.219-6.126c0-2.102 0.416-4.184 1.219-6.126s1.984-3.707 3.469-5.194l164.682-164.68h-153.36c-106.051-0.115-207.725-42.298-282.714-117.286s-117.169-176.662-117.286-282.714c0-4.243 1.686-8.314 4.686-11.315 3-2.998 7.070-4.685 11.314-4.685s8.313 1.686 11.314 4.685c3.001 3.002 4.686 7.072 4.686 11.315 0.106 97.568 38.911 191.107 107.902 260.099 68.991 68.989 162.53 107.795 260.098 107.901h153.36l-164.682-164.682c-3.002-3.002-4.688-7.072-4.688-11.318s1.686-8.317 4.688-11.322c3.005-3.002 7.075-4.688 11.322-4.688s8.317 1.686 11.322 4.688l192 192c1.485 1.488 2.666 3.251 3.472 5.194 0.803 1.942 1.219 4.026 1.219 6.128s-0.416 4.186-1.219 6.128c-0.806 1.942-1.987 3.706-3.472 5.19z" />
<glyph unicode="&#xe92c;" glyph-name="arrowbenddownleft" d="M912 736c-0.115-106.051-42.298-207.725-117.286-282.714s-176.662-117.171-282.714-117.286h-345.36l164.678-164.678c3.005-3.005 4.691-7.075 4.691-11.322s-1.686-8.317-4.691-11.322c-3.002-3.002-7.072-4.688-11.318-4.688s-8.318 1.686-11.32 4.688l-192 192c-1.488 1.488-2.668 3.251-3.473 5.194s-1.22 4.026-1.22 6.128c0 2.102 0.414 4.186 1.22 6.128s1.985 3.706 3.473 5.194l192 192c1.486 1.485 3.251 2.666 5.194 3.469s4.024 1.219 6.126 1.219c2.102 0 4.182-0.416 6.125-1.219s3.709-1.984 5.194-3.469c1.488-1.488 2.669-3.254 3.472-5.197 0.803-1.939 1.219-4.022 1.219-6.125s-0.416-4.186-1.219-6.125c-0.803-1.942-1.984-3.709-3.472-5.197l-164.678-164.678h345.36c97.568 0.106 191.107 38.912 260.099 107.901 68.989 68.992 107.795 162.531 107.901 260.099 0 4.244 1.686 8.313 4.685 11.314 3.002 3.001 7.072 4.686 11.315 4.686s8.314-1.686 11.312-4.686c3.002-3 4.688-7.070 4.688-11.314z" />
<glyph unicode="&#xe92d;" glyph-name="arrowbenddownright" d="M907.322 340.678l-192-192c-3.005-3.002-7.075-4.688-11.322-4.688s-8.317 1.686-11.322 4.688c-3.002 3.005-4.688 7.075-4.688 11.322s1.686 8.317 4.688 11.322l164.682 164.678h-345.36c-106.051 0.115-207.725 42.298-282.714 117.286s-117.169 176.662-117.286 282.714c0 4.244 1.686 8.313 4.686 11.314s7.070 4.686 11.314 4.686c4.244 0 8.313-1.686 11.314-4.686s4.686-7.070 4.686-11.314c0.106-97.568 38.911-191.107 107.902-260.099 68.991-68.989 162.53-107.795 260.098-107.901h345.36l-164.682 164.678c-3.002 3.005-4.688 7.075-4.688 11.322s1.686 8.317 4.688 11.322c3.005 3.002 7.075 4.688 11.322 4.688s8.317-1.686 11.322-4.688l192-192c1.485-1.488 2.666-3.251 3.472-5.194 0.803-1.942 1.219-4.026 1.219-6.128s-0.416-4.186-1.219-6.128c-0.806-1.942-1.987-3.706-3.472-5.194z" />
<glyph unicode="&#xe92e;" glyph-name="arrowbendleftdown" d="M816 832c0-4.244-1.686-8.313-4.685-11.314-3.002-3.001-7.072-4.686-11.315-4.686-97.568-0.106-191.107-38.911-260.099-107.902-68.989-68.991-107.795-162.53-107.901-260.098v-345.36l164.682 164.682c3.002 3.002 7.072 4.688 11.318 4.688s8.317-1.686 11.322-4.688c3.002-3.005 4.688-7.075 4.688-11.322s-1.686-8.317-4.688-11.322l-192-192c-1.488-1.485-3.251-2.666-5.194-3.472-1.942-0.803-4.026-1.219-6.128-1.219s-4.186 0.416-6.128 1.219c-1.942 0.806-3.706 1.987-5.19 3.472l-192.002 192c-3.002 3.005-4.689 7.075-4.689 11.322s1.686 8.317 4.689 11.322c3.002 3.002 7.074 4.688 11.32 4.688s8.318-1.686 11.32-4.688l164.68-164.682v345.36c0.115 106.051 42.298 207.725 117.286 282.714s176.662 117.169 282.714 117.286c4.243 0 8.314-1.686 11.315-4.686 2.998-3 4.685-7.070 4.685-11.314z" />
<glyph unicode="&#xe92f;" glyph-name="arrowbendleftup" d="M816 64c0-4.243-1.686-8.314-4.688-11.312-2.998-3.002-7.069-4.688-11.312-4.688-106.051 0.115-207.725 42.298-282.714 117.286-74.992 74.989-117.171 176.662-117.286 282.714v345.36l-164.681-164.678c-1.486-1.488-3.251-2.669-5.194-3.472s-4.024-1.219-6.126-1.219c-2.102 0-4.184 0.416-6.126 1.219s-3.707 1.984-5.194 3.472c-1.486 1.485-2.666 3.251-3.47 5.194s-1.219 4.022-1.219 6.125c0 2.102 0.414 4.184 1.219 6.126s1.984 3.707 3.47 5.194l191.999 192c1.488 1.488 3.251 2.668 5.194 3.473s4.026 1.22 6.128 1.22c2.102 0 4.182-0.414 6.125-1.22s3.709-1.985 5.194-3.473l192-192c3.002-3.002 4.691-7.074 4.691-11.32s-1.69-8.317-4.691-11.318c-3.002-3.005-7.072-4.691-11.318-4.691s-8.32 1.686-11.322 4.691l-164.678 164.678v-345.36c0.106-97.568 38.909-191.107 107.901-260.099 68.992-68.989 162.531-107.795 260.099-107.901 4.243 0 8.314-1.686 11.312-4.685 3.002-3.002 4.688-7.072 4.688-11.315z" />
<glyph unicode="&#xe930;" glyph-name="arrowbendrightdown" d="M811.322 244.678l-192-192c-1.488-1.485-3.251-2.666-5.194-3.472-1.942-0.803-4.026-1.219-6.128-1.219s-4.186 0.416-6.128 1.219c-1.942 0.806-3.706 1.987-5.194 3.472l-192 192c-3.002 3.005-4.688 7.075-4.688 11.322s1.686 8.317 4.688 11.322c3.005 3.002 7.075 4.688 11.322 4.688s8.317-1.686 11.322-4.688l164.678-164.682v345.36c-0.106 97.568-38.912 191.107-107.901 260.098-68.992 68.991-162.531 107.796-260.099 107.902-4.244 0-8.313 1.686-11.314 4.686s-4.686 7.070-4.686 11.314c0 4.244 1.686 8.313 4.686 11.314s7.070 4.686 11.314 4.686c106.051-0.116 207.725-42.297 282.714-117.286s117.171-176.663 117.286-282.714v-345.36l164.678 164.682c3.005 3.002 7.075 4.688 11.322 4.688s8.317-1.686 11.322-4.688c3.002-3.005 4.688-7.075 4.688-11.322s-1.686-8.317-4.688-11.322z" />
<glyph unicode="&#xe931;" glyph-name="arrowbendrightup" d="M811.322 628.682c-1.488-1.488-3.251-2.669-5.194-3.475-1.942-0.803-4.026-1.219-6.128-1.219s-4.186 0.416-6.128 1.219c-1.942 0.806-3.706 1.987-5.194 3.475l-164.678 164.678v-345.36c-0.115-106.051-42.298-207.725-117.286-282.714s-176.662-117.171-282.714-117.286c-4.244 0-8.313 1.686-11.314 4.688-3.001 2.998-4.686 7.069-4.686 11.312s1.686 8.314 4.686 11.315c3 2.998 7.070 4.685 11.314 4.685 97.568 0.106 191.107 38.912 260.099 107.901 68.989 68.992 107.795 162.531 107.901 260.099v345.36l-164.678-164.678c-3.005-3.005-7.075-4.691-11.322-4.691s-8.317 1.686-11.322 4.691c-3.002 3.002-4.688 7.072-4.688 11.318s1.686 8.318 4.688 11.32l192 192c1.488 1.488 3.251 2.668 5.194 3.473s4.026 1.22 6.128 1.22c2.102 0 4.186-0.414 6.128-1.22s3.706-1.985 5.194-3.473l192-192c1.485-1.486 2.666-3.251 3.472-5.193 0.803-1.942 1.219-4.024 1.219-6.127s-0.416-4.186-1.219-6.128c-0.806-1.942-1.987-3.706-3.472-5.19z" />
<glyph unicode="&#xe932;" glyph-name="arrowbendupleft" d="M912 160c0-4.243-1.686-8.314-4.688-11.315-2.998-2.998-7.069-4.685-11.312-4.685s-8.314 1.686-11.315 4.685c-2.998 3.002-4.685 7.072-4.685 11.315-0.106 97.568-38.912 191.107-107.901 260.099-68.992 68.989-162.531 107.795-260.099 107.901h-345.36l164.678-164.682c3.005-3.002 4.691-7.072 4.691-11.318s-1.686-8.317-4.691-11.322c-3.002-3.002-7.072-4.688-11.318-4.688s-8.318 1.686-11.32 4.688l-192 192c-1.488 1.488-2.668 3.251-3.473 5.194s-1.22 4.026-1.22 6.128c0 2.102 0.414 4.186 1.22 6.128s1.985 3.706 3.473 5.19l192 192.002c1.486 1.486 3.251 2.666 5.194 3.47s4.024 1.219 6.126 1.219c2.102 0 4.182-0.414 6.125-1.219s3.709-1.984 5.194-3.47c1.488-1.487 2.669-3.252 3.472-5.194s1.219-4.024 1.219-6.126c0-2.102-0.416-4.184-1.219-6.126s-1.984-3.707-3.472-5.194l-164.678-164.68h345.36c106.051-0.115 207.725-42.298 282.714-117.286s117.171-176.662 117.286-282.714z" />
<glyph unicode="&#xe933;" glyph-name="arrowbendupright" d="M907.322 532.678l-192-192c-3.005-3.002-7.075-4.688-11.322-4.688s-8.317 1.686-11.322 4.688c-3.002 3.005-4.688 7.075-4.688 11.322s1.686 8.317 4.688 11.318l164.682 164.682h-345.36c-97.568-0.106-191.107-38.912-260.098-107.901-68.991-68.992-107.796-162.531-107.902-260.099 0-4.243-1.686-8.314-4.686-11.315-3-2.998-7.070-4.685-11.314-4.685s-8.313 1.686-11.314 4.685c-3.001 3.002-4.686 7.072-4.686 11.315 0.116 106.051 42.297 207.725 117.286 282.714s176.663 117.171 282.714 117.286h345.36l-164.682 164.68c-3.002 3.002-4.688 7.074-4.688 11.32s1.686 8.318 4.688 11.32c3.005 3.002 7.075 4.689 11.322 4.689s8.317-1.686 11.322-4.689l192-192.002c1.485-1.485 2.666-3.248 3.472-5.19 0.803-1.942 1.219-4.026 1.219-6.128s-0.416-4.186-1.219-6.128c-0.806-1.942-1.987-3.706-3.472-5.194z" />
<glyph unicode="&#xe934;" glyph-name="arrowcircledown" d="M512 848c-79.114 0-156.448-23.46-222.228-67.412s-117.049-106.424-147.324-179.516c-30.275-73.088-38.196-153.517-22.762-231.107 15.434-77.594 53.53-148.867 109.471-204.806 55.941-55.942 127.214-94.038 204.807-109.472 77.59-15.434 158.019-7.514 231.107 22.762 73.091 30.275 135.565 81.546 179.517 147.325s67.411 143.114 67.411 222.227c-0.115 106.051-42.298 207.725-117.286 282.714s-176.662 117.169-282.714 117.286zM512 80c-72.784 0-143.933 21.584-204.45 62.019s-107.685 97.91-135.538 165.152c-27.853 67.245-35.141 141.238-20.941 212.621 14.199 71.386 49.248 136.957 100.714 188.423s117.037 86.514 188.423 100.714c71.382 14.199 145.376 6.912 212.621-20.941 67.242-27.853 124.717-75.020 165.152-135.538s62.019-131.666 62.019-204.45c-0.106-97.568-38.912-191.107-107.901-260.099-68.992-68.989-162.531-107.795-260.099-107.901zM651.322 427.322c1.485-1.488 2.666-3.251 3.472-5.194 0.803-1.942 1.219-4.026 1.219-6.128s-0.416-4.186-1.219-6.128c-0.806-1.942-1.987-3.706-3.472-5.194l-128-128c-1.488-1.485-3.251-2.666-5.194-3.472-1.942-0.803-4.026-1.219-6.128-1.219s-4.186 0.416-6.128 1.219c-1.942 0.806-3.706 1.987-5.19 3.472l-128 128c-3.005 3.005-4.691 7.075-4.691 11.322s1.686 8.317 4.691 11.322c3.002 3.002 7.072 4.688 11.318 4.688s8.317-1.686 11.322-4.688l100.678-100.682v281.36c0 4.243 1.686 8.314 4.688 11.315 2.998 2.998 7.069 4.685 11.312 4.685s8.314-1.686 11.315-4.685c2.998-3.002 4.685-7.072 4.685-11.315v-281.36l100.682 100.682c1.485 1.485 3.248 2.666 5.19 3.472 1.942 0.803 4.026 1.219 6.128 1.219s4.186-0.416 6.128-1.219c1.942-0.806 3.706-1.987 5.194-3.472z" />
<glyph unicode="&#xe935;" glyph-name="arrowcircledownleft" d="M512 848c-79.114 0-156.448-23.46-222.228-67.412s-117.049-106.424-147.324-179.516c-30.275-73.088-38.196-153.517-22.762-231.107 15.434-77.594 53.53-148.867 109.471-204.806 55.941-55.942 127.214-94.038 204.807-109.472 77.59-15.434 158.019-7.514 231.107 22.762 73.091 30.275 135.565 81.546 179.517 147.325s67.411 143.114 67.411 222.227c-0.115 106.051-42.298 207.725-117.286 282.714s-176.662 117.169-282.714 117.286zM512 80c-72.784 0-143.933 21.584-204.45 62.019s-107.685 97.91-135.538 165.152c-27.853 67.245-35.141 141.238-20.941 212.621 14.199 71.386 49.248 136.957 100.714 188.423s117.037 86.514 188.423 100.714c71.382 14.199 145.376 6.912 212.621-20.941 67.242-27.853 124.717-75.020 165.152-135.538s62.019-131.666 62.019-204.45c-0.106-97.568-38.912-191.107-107.901-260.099-68.992-68.989-162.531-107.795-260.099-107.901zM651.322 587.322c1.485-1.488 2.666-3.251 3.472-5.194 0.803-1.942 1.219-4.026 1.219-6.128s-0.416-4.186-1.219-6.128c-0.806-1.942-1.987-3.706-3.472-5.194l-228.682-228.678h153.36c4.243 0 8.314-1.686 11.315-4.685 2.998-3.002 4.685-7.072 4.685-11.315s-1.686-8.314-4.685-11.315c-3.002-2.998-7.072-4.685-11.315-4.685h-192c-4.243 0-8.314 1.686-11.312 4.685-3.002 3.002-4.688 7.072-4.688 11.315v192c0 4.243 1.686 8.314 4.688 11.315 2.998 2.998 7.069 4.685 11.312 4.685s8.314-1.686 11.315-4.685c2.998-3.002 4.685-7.072 4.685-11.315v-153.36l228.682 228.682c1.485 1.485 3.248 2.666 5.19 3.472 1.942 0.803 4.026 1.219 6.128 1.219s4.186-0.416 6.128-1.219c1.942-0.806 3.706-1.987 5.194-3.472z" />
<glyph unicode="&#xe936;" glyph-name="arrowcircledownright" d="M512 848c-79.114 0-156.448-23.46-222.228-67.412s-117.049-106.424-147.324-179.516c-30.275-73.088-38.196-153.517-22.762-231.107 15.434-77.594 53.53-148.867 109.471-204.806 55.941-55.942 127.214-94.038 204.807-109.472 77.59-15.434 158.019-7.514 231.107 22.762 73.091 30.275 135.565 81.546 179.517 147.325s67.411 143.114 67.411 222.227c-0.115 106.051-42.298 207.725-117.286 282.714s-176.662 117.169-282.714 117.286zM512 80c-72.784 0-143.933 21.584-204.45 62.019s-107.685 97.91-135.538 165.152c-27.853 67.245-35.141 141.238-20.941 212.621 14.199 71.386 49.248 136.957 100.714 188.423s117.037 86.514 188.423 100.714c71.382 14.199 145.376 6.912 212.621-20.941 67.242-27.853 124.717-75.020 165.152-135.538s62.019-131.666 62.019-204.45c-0.106-97.568-38.912-191.107-107.901-260.099-68.992-68.989-162.531-107.795-260.099-107.901zM656 512v-192c0-4.243-1.686-8.314-4.685-11.315-3.002-2.998-7.072-4.685-11.315-4.685h-192c-4.243 0-8.314 1.686-11.312 4.685-3.002 3.002-4.688 7.072-4.688 11.315s1.686 8.314 4.688 11.315c2.998 2.998 7.069 4.685 11.312 4.685h153.36l-228.678 228.678c-3.005 3.005-4.691 7.075-4.691 11.322s1.686 8.317 4.691 11.322c3.002 3.002 7.072 4.688 11.318 4.688s8.317-1.686 11.322-4.688l228.678-228.682v153.36c0 4.243 1.686 8.314 4.688 11.315 2.998 2.998 7.069 4.685 11.312 4.685s8.314-1.686 11.315-4.685c2.998-3.002 4.685-7.072 4.685-11.315z" />
<glyph unicode="&#xe937;" glyph-name="arrowcircleleft" d="M512 848c-79.114 0-156.448-23.46-222.228-67.412s-117.049-106.424-147.324-179.516c-30.275-73.088-38.196-153.517-22.762-231.107 15.434-77.594 53.53-148.867 109.471-204.806 55.941-55.942 127.214-94.038 204.807-109.472 77.59-15.434 158.019-7.514 231.107 22.762 73.091 30.275 135.565 81.546 179.517 147.325s67.411 143.114 67.411 222.227c-0.115 106.051-42.298 207.725-117.286 282.714s-176.662 117.169-282.714 117.286zM512 80c-72.784 0-143.933 21.584-204.45 62.019s-107.685 97.91-135.538 165.152c-27.853 67.245-35.141 141.238-20.941 212.621 14.199 71.386 49.248 136.957 100.714 188.423s117.037 86.514 188.423 100.714c71.382 14.199 145.376 6.912 212.621-20.941 67.242-27.853 124.717-75.020 165.152-135.538s62.019-131.666 62.019-204.45c-0.106-97.568-38.912-191.107-107.901-260.099-68.992-68.989-162.531-107.795-260.099-107.901zM688 448c0-4.243-1.686-8.314-4.685-11.315-3.002-2.998-7.072-4.685-11.315-4.685h-281.36l100.682-100.678c3.002-3.005 4.688-7.075 4.688-11.322s-1.686-8.317-4.688-11.322c-3.005-3.002-7.075-4.688-11.322-4.688s-8.317 1.686-11.318 4.688l-128 128c-1.488 1.488-2.669 3.251-3.475 5.194-0.803 1.942-1.219 4.026-1.219 6.128s0.416 4.186 1.219 6.128c0.806 1.942 1.987 3.706 3.475 5.194l128 128c3.002 3.002 7.072 4.688 11.318 4.688s8.317-1.686 11.322-4.688c3.002-3.005 4.688-7.075 4.688-11.322s-1.686-8.317-4.688-11.322l-100.682-100.678h281.36c4.243 0 8.314-1.686 11.315-4.685 2.998-3.002 4.685-7.072 4.685-11.315z" />
<glyph unicode="&#xe938;" glyph-name="arrowcircleright" d="M512 848c-79.114 0-156.448-23.46-222.228-67.412s-117.049-106.424-147.324-179.516c-30.275-73.088-38.196-153.517-22.762-231.107 15.434-77.594 53.531-148.867 109.471-204.806 55.941-55.942 127.214-94.038 204.808-109.472 77.59-15.434 158.019-7.514 231.107 22.762 73.091 30.275 135.562 81.546 179.517 147.325 43.952 65.779 67.411 143.114 67.411 222.227-0.115 106.051-42.298 207.725-117.286 282.714s-176.662 117.169-282.714 117.286zM512 80c-72.784 0-143.933 21.584-204.45 62.019s-107.685 97.91-135.538 165.152c-27.853 67.245-35.14 141.238-20.941 212.621 14.199 71.386 49.248 136.957 100.714 188.423s117.038 86.514 188.423 100.714c71.382 14.199 145.376 6.912 212.621-20.941 67.242-27.853 124.717-75.020 165.152-135.538s62.019-131.666 62.019-204.45c-0.106-97.568-38.912-191.107-107.901-260.099-68.992-68.989-162.531-107.795-260.099-107.901zM683.318 459.322c1.488-1.488 2.669-3.251 3.475-5.194 0.803-1.942 1.219-4.026 1.219-6.128s-0.416-4.186-1.219-6.128c-0.806-1.942-1.987-3.706-3.475-5.194l-128-128c-3.002-3.002-7.072-4.688-11.318-4.688s-8.317 1.686-11.322 4.688c-3.002 3.005-4.688 7.075-4.688 11.322s1.686 8.317 4.688 11.322l100.682 100.678h-281.36c-4.243 0-8.314 1.686-11.315 4.685-2.998 3.002-4.685 7.072-4.685 11.315s1.686 8.314 4.685 11.315c3.002 2.998 7.072 4.685 11.315 4.685h281.36l-100.682 100.678c-3.002 3.005-4.688 7.075-4.688 11.322s1.686 8.317 4.688 11.322c3.005 3.002 7.075 4.688 11.322 4.688s8.317-1.686 11.318-4.688l128-128z" />
<glyph unicode="&#xe939;" glyph-name="arrowcircleup" d="M512 848c-79.114 0-156.448-23.46-222.228-67.412s-117.049-106.424-147.324-179.516c-30.275-73.088-38.196-153.517-22.762-231.107 15.434-77.594 53.53-148.867 109.471-204.806 55.941-55.942 127.214-94.038 204.807-109.472 77.59-15.434 158.019-7.514 231.107 22.762 73.091 30.275 135.565 81.546 179.517 147.325s67.411 143.114 67.411 222.227c-0.115 106.051-42.298 207.725-117.286 282.714s-176.662 117.169-282.714 117.286zM512 80c-72.784 0-143.933 21.584-204.45 62.019s-107.685 97.91-135.538 165.152c-27.853 67.245-35.141 141.238-20.941 212.621 14.199 71.386 49.248 136.957 100.714 188.423s117.037 86.514 188.423 100.714c71.382 14.199 145.376 6.912 212.621-20.941 67.242-27.853 124.717-75.020 165.152-135.538s62.019-131.666 62.019-204.45c-0.106-97.568-38.912-191.107-107.901-260.099-68.992-68.989-162.531-107.795-260.099-107.901zM651.322 491.322c3.002-3.005 4.688-7.075 4.688-11.322s-1.686-8.317-4.688-11.322c-3.005-3.002-7.075-4.688-11.322-4.688s-8.317 1.686-11.318 4.688l-100.682 100.682v-281.36c0-4.243-1.686-8.314-4.685-11.315-3.002-2.998-7.072-4.685-11.315-4.685s-8.314 1.686-11.312 4.685c-3.002 3.002-4.688 7.072-4.688 11.315v281.36l-100.678-100.682c-3.005-3.002-7.075-4.688-11.322-4.688s-8.317 1.686-11.318 4.688c-3.005 3.005-4.691 7.075-4.691 11.322s1.686 8.317 4.691 11.322l128 128c1.485 1.485 3.248 2.666 5.19 3.472 1.942 0.803 4.026 1.219 6.128 1.219s4.186-0.416 6.128-1.219c1.942-0.806 3.706-1.987 5.194-3.472l128-128z" />
<glyph unicode="&#xe93a;" glyph-name="arrowcircleupleft" d="M512 848c-79.114 0-156.448-23.46-222.228-67.412s-117.049-106.424-147.324-179.516c-30.275-73.088-38.196-153.517-22.762-231.107 15.434-77.594 53.53-148.867 109.471-204.806 55.941-55.942 127.214-94.038 204.807-109.472 77.59-15.434 158.019-7.514 231.107 22.762 73.091 30.275 135.565 81.546 179.517 147.325s67.411 143.114 67.411 222.227c-0.115 106.051-42.298 207.725-117.286 282.714s-176.662 117.169-282.714 117.286zM512 80c-72.784 0-143.933 21.584-204.45 62.019s-107.685 97.91-135.538 165.152c-27.853 67.245-35.141 141.238-20.941 212.621 14.199 71.386 49.248 136.957 100.714 188.423s117.037 86.514 188.423 100.714c71.382 14.199 145.376 6.912 212.621-20.941 67.242-27.853 124.717-75.020 165.152-135.538s62.019-131.666 62.019-204.45c-0.106-97.568-38.912-191.107-107.901-260.099-68.992-68.989-162.531-107.795-260.099-107.901zM651.322 331.322c3.002-3.005 4.688-7.075 4.688-11.322s-1.686-8.317-4.688-11.322c-3.005-3.002-7.075-4.688-11.322-4.688s-8.317 1.686-11.318 4.688l-228.682 228.682v-153.36c0-4.243-1.686-8.314-4.685-11.315-3.002-2.998-7.072-4.685-11.315-4.685s-8.314 1.686-11.312 4.685c-3.002 3.002-4.688 7.072-4.688 11.315v192c0 4.243 1.686 8.314 4.688 11.315 2.998 2.998 7.069 4.685 11.312 4.685h192c4.243 0 8.314-1.686 11.315-4.685 2.998-3.002 4.685-7.072 4.685-11.315s-1.686-8.314-4.685-11.315c-3.002-2.998-7.072-4.685-11.315-4.685h-153.36l228.682-228.678z" />
<glyph unicode="&#xe93b;" glyph-name="arrowcircleupright" d="M512 848c-79.114 0-156.448-23.46-222.228-67.412s-117.049-106.424-147.324-179.516c-30.275-73.088-38.196-153.517-22.762-231.107 15.434-77.594 53.53-148.867 109.471-204.806 55.941-55.942 127.214-94.038 204.807-109.472 77.59-15.434 158.019-7.514 231.107 22.762 73.091 30.275 135.565 81.546 179.517 147.325s67.411 143.114 67.411 222.227c-0.115 106.051-42.298 207.725-117.286 282.714s-176.662 117.169-282.714 117.286zM512 80c-72.784 0-143.933 21.584-204.45 62.019s-107.685 97.91-135.538 165.152c-27.853 67.245-35.141 141.238-20.941 212.621 14.199 71.386 49.248 136.957 100.714 188.423s117.037 86.514 188.423 100.714c71.382 14.199 145.376 6.912 212.621-20.941 67.242-27.853 124.717-75.020 165.152-135.538s62.019-131.666 62.019-204.45c-0.106-97.568-38.912-191.107-107.901-260.099-68.992-68.989-162.531-107.795-260.099-107.901zM656 576v-192c0-4.243-1.686-8.314-4.685-11.315-3.002-2.998-7.072-4.685-11.315-4.685s-8.314 1.686-11.312 4.685c-3.002 3.002-4.688 7.072-4.688 11.315v153.36l-228.678-228.682c-3.005-3.002-7.075-4.688-11.322-4.688s-8.317 1.686-11.318 4.688c-3.005 3.005-4.691 7.075-4.691 11.322s1.686 8.317 4.691 11.322l228.678 228.678h-153.36c-4.243 0-8.314 1.686-11.312 4.685-3.002 3.002-4.688 7.072-4.688 11.315s1.686 8.314 4.688 11.315c2.998 2.998 7.069 4.685 11.312 4.685h192c4.243 0 8.314-1.686 11.315-4.685 2.998-3.002 4.685-7.072 4.685-11.315z" />
<glyph unicode="&#xe93c;" glyph-name="arrowclockwise" d="M944 736v-192c0-4.243-1.686-8.314-4.688-11.315-2.998-2.998-7.069-4.685-11.312-4.685h-192c-4.243 0-8.314 1.686-11.315 4.685-2.998 3.002-4.685 7.072-4.685 11.315s1.686 8.314 4.685 11.312c3.002 3.002 7.072 4.688 11.315 4.688h150.8l-137.2 125.72c-46.701 46.687-106.122 78.579-170.842 91.69-64.723 13.111-131.872 6.86-193.059-17.971s-113.704-67.142-150.985-121.647c-37.281-54.506-57.675-118.787-58.634-184.816-0.959-66.026 17.56-130.874 53.243-186.438s86.947-99.382 147.387-125.978c60.445-26.598 127.382-34.797 192.458-23.571 65.072 11.226 125.395 41.379 173.43 86.691 3.088 2.918 7.21 4.49 11.453 4.368 4.246-0.118 8.272-1.92 11.187-5.008 2.918-3.088 4.49-7.206 4.371-11.453-0.122-4.246-1.923-8.269-5.011-11.187-68.173-64.675-158.627-100.63-252.598-100.4h-5.040c-60.259 0.867-119.386 16.518-172.182 45.581-52.794 29.066-97.644 70.65-130.606 121.104s-53.030 108.23-58.438 168.253c-5.408 60.022 4.008 120.458 27.421 175.99s60.107 104.464 106.856 142.498c46.748 38.033 102.124 64.003 161.26 75.627s120.221 8.547 177.888-8.962c57.667-17.508 110.15-48.911 152.842-91.45l140-128.202v155.562c0 4.243 1.686 8.313 4.685 11.314 3.002 3.001 7.072 4.686 11.315 4.686s8.314-1.686 11.312-4.686c3.002-3.001 4.688-7.070 4.688-11.314z" />
<glyph unicode="&#xe93d;" glyph-name="arrowcounterclockwise" d="M880 448c0.010-96.752-38.086-189.616-106.038-258.49-67.955-68.877-160.298-108.218-257.043-109.51h-4.918c-93.942-0.192-184.358 35.757-252.52 100.4-1.529 1.443-2.758 3.174-3.617 5.094s-1.332 3.99-1.392 6.093c-0.060 2.102 0.296 4.195 1.045 6.16s1.879 3.763 3.324 5.293c1.444 1.53 3.176 2.758 5.096 3.616 1.919 0.861 3.989 1.334 6.092 1.392 2.102 0.061 4.196-0.294 6.161-1.043 1.965-0.752 3.763-1.882 5.292-3.325 48.043-45.302 108.373-75.446 173.448-86.662 65.075-11.213 132.013-3.005 192.451 23.603 60.435 26.608 111.693 70.432 147.366 126.003s54.182 120.419 53.213 186.448c-0.97 66.029-21.376 130.307-58.666 184.803-37.29 54.5-89.811 96.802-151.005 121.623s-128.342 31.060-193.059 17.939c-64.72-13.122-124.138-45.022-170.829-91.717l-0.52-0.48-136.68-125.24h150.8c4.244 0 8.313-1.686 11.314-4.685 3.001-3.002 4.686-7.072 4.686-11.315s-1.686-8.314-4.686-11.315c-3-2.998-7.070-4.685-11.314-4.685h-192c-4.244 0-8.313 1.686-11.314 4.685-3.001 3.002-4.686 7.072-4.686 11.315v192c0 4.244 1.686 8.313 4.686 11.314s7.070 4.686 11.314 4.686c4.244 0 8.313-1.686 11.314-4.686s4.686-7.070 4.686-11.314v-155.558l140 127.998c51.491 51.405 117.062 86.394 188.432 100.543s145.331 6.826 212.541-21.046c67.206-27.872 124.646-75.042 165.053-135.547 40.41-60.505 61.978-131.632 61.974-204.39z" />
<glyph unicode="&#xe93e;" glyph-name="arrowdown" d="M811.322 372.678l-288-288c-1.488-1.485-3.251-2.666-5.194-3.472-1.942-0.803-4.026-1.219-6.128-1.219s-4.186 0.416-6.128 1.219c-1.942 0.806-3.706 1.987-5.19 3.472l-288.002 288c-3.002 3.005-4.689 7.075-4.689 11.322s1.686 8.317 4.689 11.322c3.002 3.002 7.074 4.688 11.32 4.688s8.318-1.686 11.32-4.688l260.68-260.682v665.36c0 4.244 1.686 8.313 4.688 11.314 2.998 3.001 7.069 4.686 11.312 4.686s8.314-1.686 11.315-4.686c2.998-3 4.685-7.070 4.685-11.314v-665.36l260.682 260.682c3.002 3.002 7.072 4.688 11.318 4.688s8.317-1.686 11.322-4.688c3.002-3.005 4.688-7.075 4.688-11.322s-1.686-8.317-4.688-11.322z" />
<glyph unicode="&#xe93f;" glyph-name="arrowdownleft" d="M779.322 692.68l-484.682-484.68h377.36c4.243 0 8.314-1.686 11.315-4.688 2.998-2.998 4.685-7.069 4.685-11.312s-1.686-8.314-4.685-11.315c-3.002-2.998-7.072-4.685-11.315-4.685h-416c-4.244 0-8.313 1.686-11.314 4.685-3.001 3.002-4.686 7.072-4.686 11.315v416c0 4.243 1.686 8.314 4.686 11.315 3 2.998 7.070 4.685 11.314 4.685s8.313-1.686 11.314-4.685c3.001-3.002 4.686-7.072 4.686-11.315v-377.36l484.678 484.68c1.488 1.486 3.254 2.666 5.197 3.47 1.939 0.804 4.022 1.219 6.125 1.219s4.186-0.414 6.125-1.219c1.942-0.804 3.709-1.984 5.197-3.47 1.485-1.487 2.666-3.252 3.469-5.194s1.219-4.024 1.219-6.126c0-2.102-0.416-4.184-1.219-6.126s-1.984-3.707-3.469-5.194z" />
<glyph unicode="&#xe940;" glyph-name="arrowdownright" d="M784 608v-416c0-4.243-1.686-8.314-4.685-11.312-3.002-3.002-7.072-4.688-11.315-4.688h-416c-4.243 0-8.314 1.686-11.315 4.688-2.998 2.998-4.685 7.069-4.685 11.312s1.686 8.314 4.685 11.315c3.002 2.998 7.072 4.685 11.315 4.685h377.36l-484.68 484.681c-3.002 3.002-4.689 7.074-4.689 11.32s1.686 8.318 4.689 11.32c3.002 3.002 7.074 4.689 11.32 4.689s8.318-1.687 11.32-4.689l484.68-484.681v377.36c0 4.243 1.686 8.314 4.688 11.315 2.998 2.998 7.069 4.685 11.312 4.685s8.314-1.686 11.315-4.685c2.998-3.002 4.685-7.072 4.685-11.315z" />
<glyph unicode="&#xe941;" glyph-name="arrowelbowdownleft" d="M784 832v-576c0-4.243-1.686-8.314-4.688-11.315-2.998-2.998-7.069-4.685-11.312-4.685h-537.36l164.678-164.678c1.488-1.488 2.669-3.254 3.472-5.197 0.803-1.939 1.219-4.022 1.219-6.125s-0.416-4.186-1.219-6.125c-0.803-1.942-1.984-3.709-3.472-5.197-1.485-1.485-3.251-2.666-5.194-3.469s-4.022-1.219-6.125-1.219c-2.102 0-4.186 0.416-6.128 1.219-1.939 0.803-3.706 1.984-5.194 3.469l-191.998 192c-1.488 1.488-2.668 3.251-3.473 5.194s-1.22 4.026-1.22 6.128c0 2.102 0.414 4.186 1.22 6.128s1.985 3.706 3.473 5.194l191.998 192c1.488 1.485 3.254 2.666 5.194 3.469 1.942 0.803 4.026 1.219 6.128 1.219s4.182-0.416 6.125-1.219c1.942-0.803 3.709-1.984 5.194-3.469 1.488-1.488 2.669-3.254 3.472-5.197 0.803-1.939 1.219-4.022 1.219-6.125s-0.416-4.186-1.219-6.125c-0.803-1.942-1.984-3.709-3.472-5.197l-164.678-164.678h521.36v560c0 4.244 1.686 8.313 4.685 11.314 3.002 3.001 7.072 4.686 11.315 4.686s8.314-1.686 11.312-4.686c3.002-3 4.688-7.070 4.688-11.314z" />
<glyph unicode="&#xe942;" glyph-name="arrowelbowdownright" d="M875.322 244.678l-192-192c-1.488-1.485-3.254-2.666-5.197-3.469-1.939-0.803-4.022-1.219-6.125-1.219s-4.186 0.416-6.125 1.219c-1.942 0.803-3.709 1.984-5.197 3.469-1.485 1.488-2.666 3.254-3.469 5.197-0.803 1.939-1.219 4.022-1.219 6.125s0.416 4.186 1.219 6.125c0.803 1.942 1.984 3.709 3.469 5.197l164.682 164.678h-537.36c-4.244 0-8.313 1.686-11.314 4.685-3.001 3.002-4.686 7.072-4.686 11.315v576c0 4.244 1.686 8.313 4.686 11.314s7.070 4.686 11.314 4.686c4.244 0 8.313-1.686 11.314-4.686s4.686-7.070 4.686-11.314v-560h521.36l-164.682 164.678c-1.485 1.488-2.666 3.254-3.469 5.197-0.803 1.939-1.219 4.022-1.219 6.125s0.416 4.186 1.219 6.125c0.803 1.942 1.984 3.709 3.469 5.197 1.488 1.485 3.254 2.666 5.197 3.469 1.939 0.803 4.022 1.219 6.125 1.219s4.186-0.416 6.125-1.219c1.942-0.803 3.709-1.984 5.197-3.469l192-192c1.485-1.488 2.666-3.251 3.472-5.194 0.803-1.942 1.219-4.026 1.219-6.128s-0.416-4.186-1.219-6.128c-0.806-1.942-1.987-3.706-3.472-5.194z" />
<glyph unicode="&#xe943;" glyph-name="arrowelbowleft" d="M939.322 564.678l-384-384c-1.488-1.485-3.251-2.666-5.194-3.472-1.942-0.803-4.026-1.219-6.128-1.219s-4.186 0.416-6.128 1.219c-1.942 0.806-3.706 1.987-5.194 3.472l-420.678 420.682v-249.36c0-4.243-1.686-8.314-4.686-11.315-3-2.998-7.070-4.685-11.314-4.685s-8.313 1.686-11.314 4.685c-3.001 3.002-4.686 7.072-4.686 11.315v288c0 4.244 1.686 8.313 4.686 11.314s7.070 4.686 11.314 4.686h288c4.243 0 8.314-1.686 11.315-4.686 2.998-3 4.685-7.070 4.685-11.314s-1.686-8.314-4.685-11.315c-3.002-2.998-7.072-4.685-11.315-4.685h-249.36l409.36-409.36 372.678 372.682c1.488 1.485 3.254 2.666 5.197 3.469 1.939 0.803 4.022 1.219 6.125 1.219s4.186-0.416 6.125-1.219c1.942-0.803 3.709-1.984 5.197-3.469 1.485-1.488 2.666-3.254 3.469-5.197 0.803-1.939 1.219-4.022 1.219-6.125s-0.416-4.186-1.219-6.125c-0.803-1.942-1.984-3.709-3.469-5.197z" />
<glyph unicode="&#xe944;" glyph-name="arrowelbowleftdown" d="M944 672c0-4.244-1.686-8.313-4.685-11.314-3.002-3.001-7.072-4.686-11.315-4.686h-560v-521.36l164.682 164.682c3.002 3.002 7.072 4.688 11.318 4.688s8.317-1.686 11.322-4.688c3.002-3.005 4.688-7.075 4.688-11.322s-1.686-8.317-4.688-11.322l-192-192c-1.488-1.485-3.251-2.666-5.194-3.472-1.942-0.803-4.026-1.219-6.128-1.219s-4.186 0.416-6.128 1.219c-1.942 0.806-3.706 1.987-5.19 3.472l-192.002 192c-3.002 3.005-4.689 7.075-4.689 11.322s1.686 8.317 4.689 11.322c3.002 3.002 7.074 4.688 11.32 4.688s8.318-1.686 11.32-4.688l164.68-164.682v537.36c0 4.244 1.686 8.313 4.685 11.314 3.002 3.001 7.072 4.686 11.315 4.686h576c4.243 0 8.314-1.686 11.315-4.686 2.998-3 4.685-7.070 4.685-11.314z" />
</font>
</defs>
</svg>
