<?xml version="1.0" standalone="no"?>
<!DOCTYPE svg PUBLIC "-//W3C//DTD SVG 1.1//EN" "http://www.w3.org/Graphics/SVG/1.1/DTD/svg11.dtd" >
<svg xmlns="http://www.w3.org/2000/svg">
<metadata>Generated by IcoMoon</metadata>
<defs>
<font id="icomoon" horiz-adv-x="1024">
<font-face units-per-em="1024" ascent="960" descent="-64" />
<missing-glyph horiz-adv-x="1024" />
<glyph unicode="&#x20;" horiz-adv-x="512" d="" />
<glyph unicode="&#xe900;" d="M864 512v-64c0-212-352-352-352-448 0 96-352 236-352 448v64h704z" />
<glyph unicode="&#xe901;" d="M928 544c-0.064 59.389-23.683 116.327-65.677 158.322-41.997 41.995-98.934 65.615-158.323 65.678h-160c0 25.461 10.115 49.879 28.118 67.882s42.422 28.118 67.882 28.118c8.486 0 16.627 3.372 22.627 9.372s9.373 14.14 9.373 22.628c0 8.487-3.373 16.626-9.373 22.628s-14.141 9.372-22.627 9.372c-42.435 0-83.133-16.857-113.136-46.863-30.006-30.006-46.864-70.702-46.864-113.137h-160c-59.389-0.064-116.327-23.684-158.322-65.678s-65.615-98.933-65.678-158.322c0.019-11.216 2.985-22.23 8.601-31.939s13.686-17.773 23.399-23.382v-40.678c0-142.118 132.48-248.48 238.96-333.962 47.68-38.32 113.040-90.758 113.040-114.038 0-8.486 3.373-16.627 9.373-22.627s14.141-9.373 22.627-9.373c8.486 0 16.627 3.373 22.627 9.373s9.373 14.141 9.373 22.627c0 23.28 65.36 75.718 113.040 114.038 106.48 85.482 238.96 191.843 238.96 333.962v40.678c9.715 5.61 17.782 13.674 23.398 23.382s8.582 20.723 8.602 31.939zM320 704h384c42.416-0.063 83.075-16.941 113.066-46.933 29.994-29.992 46.87-70.651 46.934-113.067h-704c0 42.435 16.857 83.133 46.863 113.137 30.006 30.006 70.702 46.863 113.137 46.863zM616.998 164c-42.48-34.080-80-64-104.998-93.478-24.998 29.28-62.518 59.398-104.998 93.478-95.802 76.838-215.002 172.56-215.002 284v32h640v-32c0-111.44-119.2-207.162-215.002-284z" />
<glyph unicode="&#xe902;" d="M832 832h-576c-8.487 0-16.626-3.372-22.628-9.372s-9.372-14.14-9.372-22.628v-704c0-8.486 3.372-16.627 9.372-22.627s14.14-9.373 22.628-9.373h576c8.486 0 16.627 3.373 22.627 9.373s9.373 14.141 9.373 22.627v704c0 8.487-3.373 16.626-9.373 22.628s-14.141 9.372-22.627 9.372zM544 384c-25.315 0-50.064 7.507-71.114 21.571s-37.456 34.058-47.142 57.446c-9.69 23.389-12.224 49.123-7.283 73.955 4.938 24.829 17.13 47.635 35.030 65.536s40.707 30.093 65.536 35.030c24.832 4.94 50.566 2.406 73.955-7.283 23.389-9.686 43.382-26.093 57.446-47.142s21.571-45.798 21.571-71.114c0-33.949-13.485-66.506-37.491-90.509-24.003-24.006-56.56-37.491-90.509-37.491z" />
<glyph unicode="&#xe903;" d="M332.762 262.4c3.36-2.528 7.19-4.368 11.264-5.414 4.077-1.046 8.317-1.277 12.48-0.685 4.166 0.595 8.173 2.006 11.792 4.15s6.781 4.982 9.302 8.349c19.376 25.834 44.499 46.8 73.379 61.242 28.883 14.442 60.73 21.958 93.021 21.958s64.138-7.517 93.021-21.958c28.883-14.442 54.003-35.408 73.379-61.242 2.522-3.363 5.68-6.195 9.296-8.336s7.619-3.549 11.779-4.144c4.16-0.592 8.397-0.362 12.467 0.682s7.894 2.877 11.258 5.398c3.363 2.522 6.195 5.68 8.336 9.296s3.549 7.619 4.144 11.779c0.592 4.16 0.362 8.397-0.682 12.467s-2.877 7.894-5.398 11.258c-28.336 37.99-66.122 67.901-109.6 86.762 23.827 21.754 40.522 50.202 47.891 81.616 7.37 31.411 5.069 64.317-6.598 94.397-11.664 30.083-32.154 55.933-58.774 74.163-26.624 18.229-58.134 27.984-90.4 27.984-32.262 0-63.773-9.755-90.397-27.984-26.621-18.23-47.11-44.079-58.774-74.163-11.667-30.080-13.968-62.986-6.598-94.397 7.37-31.414 24.064-59.862 47.891-81.616-43.568-18.826-81.437-48.739-109.84-86.762-5.098-6.784-7.289-15.315-6.096-23.718 1.19-8.4 5.674-15.984 12.458-21.082zM448 512c0 18.986 5.629 37.549 16.179 53.334 10.547 15.789 25.542 28.093 43.082 35.357 17.542 7.267 36.845 9.168 55.469 5.466 18.621-3.706 35.728-12.848 49.152-26.275 13.427-13.424 22.57-30.531 26.275-49.152 3.702-18.624 1.802-37.926-5.466-55.469-7.264-17.539-19.568-32.534-35.357-43.082-15.786-10.55-34.349-16.179-53.334-16.179-25.459 0-49.878 10.115-67.882 28.118s-28.118 42.422-28.118 67.882zM832 864h-576c-16.974 0-33.252-6.743-45.255-18.745s-18.745-28.281-18.745-45.255v-96h-64c-8.487 0-16.626-3.372-22.628-9.372s-9.372-14.14-9.372-22.628c0-8.487 3.372-16.626 9.372-22.628s14.14-9.372 22.628-9.372h64v-160h-64c-8.487 0-16.626-3.373-22.628-9.373s-9.372-14.141-9.372-22.627c0-8.486 3.372-16.627 9.372-22.627s14.14-9.373 22.628-9.373h64v-160h-64c-8.487 0-16.626-3.373-22.628-9.373s-9.372-14.141-9.372-22.627c0-8.486 3.372-16.627 9.372-22.627s14.14-9.373 22.628-9.373h64v-96c0-16.973 6.743-33.251 18.745-45.254s28.281-18.746 45.255-18.746h576c16.973 0 33.251 6.742 45.254 18.746s18.746 28.282 18.746 45.254v704c0 16.974-6.742 33.252-18.746 45.255s-28.282 18.745-45.254 18.745zM832 96h-576v704h576v-704z" />
<glyph unicode="&#xe904;" d="M192 800c-8.487 0-16.626-3.372-22.628-9.372s-9.372-14.14-9.372-22.628v-640c0-8.486 3.372-16.627 9.372-22.627s14.14-9.373 22.628-9.373h544v704h-544zM448 384c-18.986 0-37.549 5.629-53.334 16.179-15.789 10.547-28.093 25.542-35.357 43.082-7.267 17.542-9.168 36.845-5.466 55.469 3.706 18.621 12.848 35.728 26.275 49.152 13.424 13.427 30.531 22.57 49.152 26.275 18.624 3.702 37.926 1.802 55.469-5.466 17.539-7.264 32.534-19.568 43.082-35.357 10.55-15.786 16.179-34.349 16.179-53.334 0-25.459-10.115-49.878-28.118-67.882s-42.422-28.118-67.882-28.118z" />
<glyph unicode="&#xe905;" d="M832 832h-640c-16.974 0-33.252-6.743-45.255-18.745s-18.745-28.281-18.745-45.255v-640c0-16.973 6.743-33.251 18.745-45.254s28.281-18.746 45.255-18.746h640c16.973 0 33.251 6.742 45.254 18.746s18.746 28.282 18.746 45.254v640c0 16.974-6.742 33.252-18.746 45.255s-28.282 18.745-45.254 18.745zM768 544h64v-192h-64v192zM832 608h-64v160h64v-160zM192 768h512v-640h-512v640zM832 128h-64v160h64v-160zM607.002 296c-10.355 38.662-34.909 72-68.762 93.36 17.978 17.872 30.243 40.675 35.245 65.526s2.509 50.627-7.155 74.061c-9.667 23.434-26.070 43.469-47.136 57.568-21.069 14.096-45.846 21.622-71.194 21.622s-50.125-7.526-71.194-21.622c-21.066-14.099-37.469-34.134-47.136-57.568-9.664-23.434-12.156-49.21-7.155-74.061s17.267-47.654 35.245-65.526c-33.83-21.382-58.376-54.71-68.76-93.36-2.122-8.221-0.891-16.95 3.423-24.262 4.314-7.315 11.356-12.614 19.577-14.739 8.221-2.122 16.95-0.89 24.262 3.424 7.315 4.314 12.614 11.357 14.739 19.578 10.557 40.998 52.237 72 96.998 72s86.48-30.918 96.998-72c2.125-8.221 7.424-15.264 14.739-19.578 7.312-4.314 16.042-5.546 24.262-3.424 8.221 2.125 15.264 7.424 19.578 14.739 4.314 7.312 5.546 16.042 3.424 24.262zM384 480c0 12.659 3.754 25.030 10.787 35.555 7.030 10.525 17.027 18.73 28.72 23.574 11.696 4.842 24.563 6.109 36.979 3.642 12.413-2.47 23.818-8.566 32.768-17.517s15.046-20.355 17.517-32.768c2.467-12.416 1.2-25.283-3.642-36.979-4.845-11.693-13.050-21.69-23.574-28.72-10.525-7.034-22.896-10.787-35.555-10.787-16.973 0-33.251 6.742-45.254 18.746s-18.746 28.282-18.746 45.254z" />
<glyph unicode="&#xe906;" d="M608 352v-128l64-64v-128l-160 64-160-64v128l64 64v128l-320-64v128l320 160v192c0 25.461 10.115 49.879 28.118 67.882s42.422 28.118 67.882 28.118c25.459 0 49.878-10.114 67.882-28.118s28.118-42.421 28.118-67.882v-192l320-160v-128l-320 64z" />
<glyph unicode="&#xe907;" d="M942.32 444.64l-302.32 151.12v172.24c0 33.948-13.485 66.505-37.491 90.51-24.003 24.004-56.56 37.49-90.509 37.49s-66.506-13.486-90.509-37.49c-24.006-24.005-37.491-56.562-37.491-90.51v-172.24l-302.32-151.12c-5.316-2.659-9.787-6.749-12.909-11.808s-4.775-10.886-4.771-16.832v-128c0.003-4.733 1.055-9.408 3.082-13.683 2.027-4.278 4.977-8.054 8.639-11.053s7.943-5.149 12.535-6.294c4.593-1.146 9.382-1.258 14.024-0.33l281.72 56.32v-75.722l-54.64-54.598c-2.97-2.973-5.325-6.506-6.931-10.387-1.606-3.885-2.432-8.048-2.429-12.253v-128c-0.009-5.245 1.27-10.41 3.728-15.043 2.458-4.637 6.016-8.595 10.362-11.53s9.347-4.758 14.563-5.306c5.216-0.55 10.486 0.192 15.347 2.16l148 59.238 148-59.238c4.861-1.968 10.131-2.71 15.347-2.16 5.216 0.547 10.218 2.371 14.563 5.306s7.904 6.893 10.362 11.53c2.458 4.634 3.738 9.798 3.728 15.043v128c0.003 4.205-0.822 8.368-2.429 12.253-1.606 3.882-3.962 7.414-6.931 10.387l-54.64 54.598v75.722l281.718-56.32c4.643-0.928 9.434-0.816 14.026 0.33s8.874 3.296 12.534 6.294c3.661 2.998 6.611 6.774 8.64 11.053 2.026 4.275 3.078 8.95 3.082 13.683v128c0.003 5.946-1.648 11.773-4.771 16.832s-7.594 9.149-12.909 11.808zM896 327.040l-281.718 56.32c-4.643 0.928-9.434 0.816-14.026-0.33s-8.874-3.296-12.534-6.294c-3.661-2.998-6.611-6.774-8.64-11.053-2.026-4.275-3.078-8.95-3.082-13.683v-128c-0.003-4.205 0.822-8.368 2.429-12.253 1.606-3.882 3.962-7.414 6.931-10.387l54.64-54.598v-67.482l-116 46.438c-7.626 3.050-16.134 3.050-23.76 0l-116.24-46.438v67.482l54.64 54.598c2.97 2.973 5.325 6.506 6.931 10.387 1.606 3.885 2.432 8.048 2.429 12.253v128c-0.003 4.733-1.056 9.408-3.082 13.683-2.029 4.278-4.979 8.054-8.64 11.053s-7.942 5.149-12.534 6.294c-4.592 1.146-9.382 1.258-14.022 0.33l-281.722-56.32v69.2l302.32 151.12c5.315 2.659 9.786 6.749 12.909 11.808s4.774 10.886 4.771 16.832v192c0 16.974 6.742 33.252 18.746 45.255s28.282 18.745 45.254 18.745c16.973 0 33.251-6.743 45.254-18.745s18.746-28.281 18.746-45.255v-192c-0.003-5.946 1.648-11.773 4.771-16.832s7.594-9.149 12.909-11.808l302.32-151.12v-69.2z" />
<glyph unicode="&#xe908;" d="M960 416v-96h-715.761c-27.525 0-54.317 8.87-76.401 25.299s-38.285 39.539-46.199 65.901l-56.28 187.6c-1.434 4.778-1.731 9.824-0.868 14.736 0.863 4.915 2.863 9.558 5.84 13.562 2.977 4 6.848 7.251 11.305 9.494 4.457 2.24 9.376 3.408 14.364 3.408h32l96-96h147.64l-49.958 149.88c-1.603 4.807-2.042 9.926-1.28 14.936 0.765 5.010 2.704 9.766 5.664 13.879 2.963 4.113 6.858 7.463 11.366 9.777s9.501 3.522 14.57 3.528h32l192-192h256c33.946 0 66.502-13.485 90.509-37.491 24.003-24.003 37.491-56.56 37.491-90.509z" />
<glyph unicode="&#xe909;" d="M895.997 96c0-8.486-3.373-16.627-9.373-22.627s-14.141-9.373-22.627-9.373h-576c-8.487 0-16.626 3.373-22.628 9.373s-9.372 14.141-9.372 22.627c0 8.486 3.372 16.627 9.372 22.627s14.14 9.373 22.628 9.373h576c8.486 0 16.627-3.373 22.627-9.373s9.373-14.141 9.373-22.627zM991.997 416v-96c0-8.486-3.373-16.627-9.373-22.627s-14.141-9.373-22.627-9.373h-715.72c-34.449-0.157-68.018 10.877-95.654 31.443s-47.845 49.552-57.586 82.595l-56.28 187.562c-2.867 9.552-3.463 19.642-1.738 29.466 1.724 9.821 5.72 19.107 11.669 27.111s13.686 14.508 22.595 18.991c8.908 4.484 18.741 6.823 28.715 6.832h32c8.476-0.004 16.604-3.37 22.6-9.36l86.68-86.64h89.958l-35.998 107.76c-3.208 9.624-4.083 19.873-2.551 29.902s5.425 19.549 11.36 27.777c5.935 8.228 13.74 14.927 22.774 19.545 9.030 4.618 19.034 7.023 29.178 7.016h32c4.205 0.003 8.368-0.822 12.25-2.428 3.885-1.606 7.418-3.962 10.39-6.932l182.64-182.64h242.72c42.435 0 83.133-16.858 113.136-46.864 30.006-30.003 46.864-70.701 46.864-113.136zM927.997 416c0 25.459-10.115 49.878-28.118 67.882s-42.422 28.118-67.882 28.118h-256c-8.477 0.003-16.605 3.37-22.602 9.36l-182.64 182.64h-18.758l49.958-149.882c1.603-4.806 2.042-9.926 1.28-14.934-0.765-5.011-2.704-9.766-5.664-13.878s-6.858-7.466-11.366-9.776c-4.509-2.314-9.501-3.523-14.57-3.53h-147.638c-4.204-0.003-8.367 0.822-12.251 2.429s-7.415 3.962-10.389 6.931l-86.6 86.64h-18.76l56.28-187.6c5.852-19.83 17.987-37.222 34.58-49.562 16.593-12.336 36.744-18.947 57.42-18.838h683.72v64z" />
<glyph unicode="&#xe90a;" d="M928 366.72v-142.72l-706.52 197.84c-26.892 7.533-50.584 23.654-67.461 45.904s-26.015 49.411-26.019 77.338v222.92c0 5.071 1.204 10.069 3.515 14.583s5.66 8.414 9.774 11.379c4.114 2.965 8.873 4.91 13.885 5.675s10.135 0.327 14.946-1.276l21.88-7.32 48-132.88 176-50.162v160.002c0 5.071 1.203 10.069 3.514 14.583s5.661 8.414 9.776 11.379c4.112 2.965 8.87 4.91 13.885 5.675 5.011 0.765 10.134 0.327 14.944-1.276l21.882-7.32 96-228.802 258.24-72c26.992-7.491 50.778-23.632 67.715-45.942 16.934-22.314 26.086-49.565 26.045-77.578z" />
<glyph unicode="&#xe90b;" d="M1024 96c0-8.486-3.373-16.627-9.373-22.627-6-6.003-14.141-9.373-22.627-9.373h-576c-8.486 0-16.627 3.37-22.627 9.373-6 6-9.373 14.141-9.373 22.627s3.373 16.624 9.373 22.627c6 6 14.141 9.373 22.627 9.373h576c8.486 0 16.627-3.373 22.627-9.373 6-6.003 9.373-14.141 9.373-22.627zM919.36 193.2l-706.52 197.84c-33.578 9.488-63.149 29.661-84.233 57.466-21.084 27.802-32.531 61.722-32.607 96.614v222.879c-0.001 10.141 2.409 20.138 7.029 29.165s11.321 16.828 19.548 22.758c8.227 5.93 17.746 9.82 27.771 11.349s20.271 0.654 29.892-2.553l21.88-7.28c4.589-1.525 8.772-4.070 12.236-7.444s6.118-7.489 7.764-12.036l42.4-117.48 119.48-34.040v117.56c0 10.141 2.41 20.138 7.030 29.165s11.318 16.828 19.546 22.758c8.227 5.93 17.747 9.82 27.773 11.349s20.269 0.654 29.891-2.553l21.878-7.28c4.333-1.443 8.304-3.796 11.648-6.9 3.347-3.105 5.99-6.889 7.754-11.1l90-214.521 243.36-68c33.648-9.45 63.29-29.619 84.429-57.45 21.139-27.834 32.618-61.802 32.691-96.749v-142.72c-0.003-4.941-1.146-9.811-3.344-14.234s-5.392-8.275-9.328-11.258c-3.936-2.986-8.509-5.018-13.36-5.936-4.854-0.922-9.853-0.707-14.608 0.627zM896 366.72c-0.054 20.973-6.954 41.354-19.645 58.051s-30.483 28.8-50.675 34.467l-258.278 72c-4.653 1.296-8.954 3.629-12.576 6.822s-6.477 7.165-8.346 11.619l-90.48 215.639-8 2.68v-159.999c0.003-4.954-1.142-9.837-3.347-14.272s-5.411-8.298-9.36-11.283c-3.952-2.986-8.541-5.011-13.408-5.923-4.87-0.909-9.882-0.678-14.646 0.678l-175.998 50.16c-4.887 1.398-9.37 3.946-13.077 7.421-3.708 3.478-6.533 7.791-8.243 12.578l-42.76 118.28-7.16 2.36v-222.879c0.052-20.941 6.924-41.296 19.576-57.981 12.652-16.688 30.395-28.797 50.544-34.499l665.88-186.442v100.522z" />
<glyph unicode="&#xe90c;" d="M960.003 593.44l-589.638-352c-23.821-13.869-51.48-19.68-78.867-16.566s-53.036 14.986-73.134 33.846l-144.24 141.28c-3.879 3.635-6.791 8.182-8.473 13.226s-2.080 10.429-1.159 15.664c0.921 5.238 3.132 10.16 6.435 14.33 3.302 4.166 7.59 7.446 12.477 9.539l12.6 6.16 127.16-42.918 128.84 77.958-117.4 114.042c-3.993 3.594-7.018 8.134-8.794 13.203s-2.249 10.506-1.372 15.805c0.877 5.301 3.074 10.295 6.388 14.523s7.64 7.553 12.578 9.669l28.6 10.8 230.121-84.681 219.36 131.001c26.33 15.496 57.338 21.061 87.414 15.692s57.242-21.321 76.586-44.972l74.518-95.6z" />
<glyph unicode="&#xe90d;" d="M704 96c0-8.486-3.373-16.627-9.373-22.627s-14.141-9.373-22.627-9.373h-576.001c-8.487 0-16.626 3.373-22.627 9.373s-9.373 14.141-9.373 22.627c0 8.486 3.372 16.627 9.373 22.627s14.14 9.373 22.627 9.373h576.001c8.486 0 16.627-3.373 22.627-9.373s9.373-14.141 9.373-22.627zM991.44 587.402c-0.838-4.454-2.611-8.682-5.203-12.397-2.595-3.718-5.946-6.842-9.837-9.165l-589.642-352c-24.576-14.413-52.547-22.032-81.039-22.080-40.587 0.045-79.623 15.6-109.12 43.482l-0.48 0.48-144.12 141.078c-7.625 7.242-13.348 16.25-16.664 26.23-3.316 9.978-4.121 20.621-2.346 30.986s6.078 20.131 12.526 28.438c6.448 8.307 14.844 14.896 24.444 19.187l12 5.878c7.578 3.722 16.32 4.294 24.32 1.6l113.040-38.16 80.68 48.8-87.32 84.762c-7.853 7.232-13.771 16.317-17.215 26.426-3.444 10.106-4.305 20.912-2.503 31.438 1.801 10.524 6.207 20.431 12.816 28.817s15.211 14.986 25.022 19.198l1.28 0.52 28.6 10.84c7.211 2.689 15.149 2.689 22.36 0l215.761-79.28 206.278 123.12c32.874 19.564 71.69 26.644 109.354 19.946 37.661-6.698 71.658-26.727 95.766-56.426l0.48-0.6 74.56-95.56c2.787-3.578 4.781-7.706 5.85-12.112s1.187-8.992 0.352-13.446zM912.48 602.202l-52 66.679c-14.474 17.705-34.819 29.631-57.338 33.609s-45.718-0.254-65.382-11.929l-219.2-130.88c-4.106-2.435-8.701-3.926-13.453-4.368-4.752-0.445-9.542 0.173-14.029 1.808l-219.079 80.56-16-6.118 0.84-0.8 117.439-113.962c3.507-3.408 6.189-7.574 7.834-12.179 1.648-4.605 2.214-9.526 1.664-14.384-0.554-4.861-2.211-9.526-4.851-13.645-2.637-4.118-6.182-7.578-10.365-10.112l-128.841-77.958c-3.986-2.41-8.449-3.917-13.077-4.422-4.629-0.502-9.312 0.010-13.723 1.501l-114.68 38.682-0.76-0.4-1.48-0.682c0.193-0.138 0.367-0.298 0.52-0.48l144-141.040c15.028-14.122 34.228-22.995 54.722-25.286 20.494-2.294 41.181 2.115 58.957 12.566l558.282 333.242z" />
<glyph unicode="&#xe90e;" d="M960 416v-96h-715.761c-27.525 0-54.317 8.87-76.401 25.299s-38.285 39.539-46.199 65.901l-56.28 187.6c-1.434 4.778-1.731 9.824-0.868 14.736 0.863 4.915 2.863 9.558 5.84 13.562 2.977 4 6.848 7.251 11.305 9.494 4.457 2.24 9.376 3.408 14.364 3.408h32l96-96h147.64l-49.958 149.88c-1.603 4.807-2.042 9.926-1.28 14.936 0.765 5.010 2.704 9.766 5.664 13.879 2.963 4.113 6.858 7.463 11.366 9.777s9.501 3.522 14.57 3.528h32l192-192h256c33.946 0 66.502-13.485 90.509-37.491 24.003-24.003 37.491-56.56 37.491-90.509z" />
<glyph unicode="&#xe90f;" d="M831.997 576h-242.72l-182.64 182.64c-2.973 2.971-6.506 5.326-10.39 6.932-3.882 1.606-8.045 2.431-12.25 2.428h-32c-10.138-0.005-20.131-2.42-29.152-7.043-9.023-4.623-16.818-11.324-22.743-19.55s-9.812-17.742-11.339-27.764c-1.527-10.022-0.652-20.264 2.554-29.882l35.998-107.76h-90.038l-86.64 86.64c-2.974 2.971-6.504 5.326-10.389 6.932s-8.048 2.431-12.251 2.428h-32c-9.973-0.009-19.806-2.349-28.715-6.832s-16.646-10.987-22.595-18.991c-5.949-8.004-9.945-17.29-11.669-27.111-1.724-9.824-1.129-19.914 1.738-29.466l56.28-187.562c9.741-33.043 29.95-62.029 57.586-82.595s61.205-31.6 95.654-31.443h715.72c8.486 0 16.627 3.373 22.627 9.373s9.373 14.141 9.373 22.627v96c0 42.435-16.858 83.133-46.864 113.136-30.003 30.006-70.701 46.864-113.136 46.864zM927.997 352h-683.72c-20.676-0.109-40.828 6.502-57.42 18.838-16.593 12.339-28.728 29.731-34.58 49.562l-56.28 187.6h18.72l86.64-86.64c2.974-2.97 6.504-5.325 10.389-6.931s8.048-2.432 12.251-2.429h147.6c5.072 0 10.070 1.203 14.582 3.514 4.515 2.31 8.413 5.661 11.379 9.776 2.966 4.112 4.909 8.87 5.674 13.885 0.765 5.011 0.33 10.134-1.277 14.944l-49.958 149.882h18.72l182.64-182.64c2.973-2.97 6.506-5.325 10.387-6.931 3.885-1.606 8.048-2.432 12.253-2.429h256c25.459 0 49.878-10.115 67.882-28.118s28.118-42.422 28.118-67.882v-64zM895.997 160c0-12.659-3.754-25.030-10.787-35.555-7.030-10.525-17.027-18.73-28.72-23.574-11.696-4.842-24.563-6.109-36.979-3.642-12.413 2.47-23.818 8.566-32.768 17.517s-15.046 20.355-17.517 32.768c-2.467 12.416-1.2 25.283 3.642 36.979 4.845 11.693 13.050 21.69 23.574 28.72 10.525 7.034 22.896 10.787 35.555 10.787 16.973 0 33.251-6.742 45.254-18.746s18.746-28.282 18.746-45.254zM511.997 160c0-12.659-3.754-25.030-10.787-35.555-7.030-10.525-17.027-18.73-28.72-23.574-11.696-4.842-24.563-6.109-36.979-3.642-12.413 2.47-23.818 8.566-32.768 17.517s-15.046 20.355-17.517 32.768c-2.467 12.416-1.2 25.283 3.642 36.979 4.845 11.693 13.050 21.69 23.574 28.72 10.525 7.034 22.896 10.787 35.555 10.787 16.973 0 33.251-6.742 45.254-18.746s18.746-28.282 18.746-45.254z" />
<glyph unicode="&#xe910;" d="M836 636l-132-124 128-352-96-96-192 288-96-96v-96l-96-96-64 160-160 64 96 96h96l96 96-288 192.002 96 96 352-128 124 132c18.035 18.035 42.496 28.166 68 28.166s49.965-10.132 68-28.166c18.035-18.035 28.166-42.495 28.166-68s-10.131-49.965-28.166-68.002z" />
<glyph unicode="&#xe911;" d="M741.322 503.162l117.238 110.358c24.006 24.006 37.494 56.569 37.494 90.52s-13.488 66.513-37.494 90.52c-24.006 24.007-56.57 37.495-90.518 37.495-33.952 0-66.515-13.487-90.522-37.495l-110.358-117.24-332.001 120.8c-5.722 2.081-11.919 2.487-17.864 1.169s-11.39-4.304-15.696-8.609l-96-96c-3.345-3.348-5.906-7.396-7.499-11.853s-2.176-9.212-1.709-13.921c0.467-4.71 1.972-9.257 4.409-13.315s5.742-7.524 9.679-10.151l255.561-170.358-59.281-59.082h-82.76c-8.476-0.003-16.604-3.37-22.6-9.36l-96-96c-3.744-3.734-6.504-8.339-8.033-13.402s-1.78-10.426-0.73-15.606c1.050-5.184 3.368-10.026 6.747-14.093 3.379-4.070 7.714-7.235 12.616-9.219l147.28-58.918 59.040-147.642c2.035-4.925 5.267-9.261 9.402-12.621s9.043-5.632 14.278-6.614c5.238-0.979 10.637-0.64 15.709 0.995 5.069 1.632 9.651 4.506 13.331 8.362l95.482 95.52c2.986 2.957 5.36 6.477 6.989 10.355 1.626 3.878 2.474 8.038 2.49 12.243v82.762l59.040 59.040 170.362-255.562c2.624-3.936 6.093-7.242 10.15-9.68 4.058-2.435 8.605-3.939 13.315-4.406 4.707-0.467 9.462 0.115 13.92 1.709 4.458 1.59 8.506 4.154 11.853 7.498l96 96c4.304 4.307 7.293 9.75 8.608 15.696 1.318 5.946 0.912 12.141-1.168 17.866l-120.758 332.24zM741.040 114.24l-170.358 255.562c-2.618 3.958-6.080 7.286-10.141 9.744-4.061 2.454-8.618 3.978-13.341 4.454-1.053 0.058-2.106 0.058-3.158 0-4.205 0.003-8.368-0.822-12.253-2.429-3.885-1.603-7.414-3.962-10.387-6.931l-96-96c-2.979-2.97-5.341-6.499-6.954-10.384-1.616-3.885-2.445-8.048-2.448-12.256v-82.758l-52.278-52.282-46.001 115.040c-1.61 3.994-4.008 7.622-7.053 10.666-3.045 3.046-6.673 5.446-10.667 7.056l-114.96 46 52.24 52.278h82.72c4.205-0.003 8.368 0.822 12.253 2.429s7.414 3.962 10.387 6.931l96 96c3.354 3.347 5.92 7.398 7.517 11.859s2.182 9.222 1.715 13.936c-0.467 4.717-1.974 9.267-4.416 13.328-2.438 4.064-5.75 7.533-9.696 10.157l-255.52 170.4 54 53.96 332.88-121.038c5.866-2.157 12.234-2.547 18.317-1.126 6.086 1.421 11.619 4.595 15.923 9.126l123.76 131.518c12.154 11.132 28.131 17.146 44.611 16.79 16.477-0.356 32.179-7.054 43.84-18.7 11.664-11.646 18.381-27.342 18.758-43.818 0.381-16.476-5.613-32.463-16.73-44.632l-131.478-123.76c-4.531-4.304-7.702-9.837-9.126-15.923-1.421-6.083-1.030-12.451 1.126-18.317l121.040-332.88-54.122-54z" />
<glyph unicode="&#xe912;" d="M896 704v-448c0-16.973-6.742-33.251-18.746-45.254s-28.282-18.746-45.254-18.746h-210.282l-109.718 128-109.722-128h-210.278c-16.974 0-33.252 6.742-45.255 18.746s-18.745 28.282-18.745 45.254v448c0 16.974 6.743 33.252 18.745 45.255s28.281 18.745 45.255 18.745h640c16.973 0 33.251-6.743 45.254-18.745s18.746-28.281 18.746-45.255z" />
<glyph unicode="&#xe913;" d="M536.32 340.842c-3.005 3.504-6.733 6.32-10.925 8.25-4.195 1.93-8.758 2.928-13.376 2.928s-9.178-0.998-13.373-2.928c-4.195-1.93-7.923-4.746-10.925-8.25l-192.002-224c-3.987-4.646-6.557-10.339-7.407-16.4s0.057-12.24 2.613-17.802c2.556-5.562 6.653-10.275 11.806-13.581 5.153-3.302 11.146-5.059 17.267-5.059h384c6.122 0 12.115 1.757 17.267 5.059 5.152 3.306 9.251 8.019 11.808 13.581 2.554 5.562 3.462 11.741 2.611 17.802-0.848 6.061-3.421 11.754-7.405 16.4l-191.962 224zM389.558 128l122.442 142.842 122.442-142.842h-244.883zM928 704v-448c0-25.459-10.115-49.878-28.118-67.882s-42.422-28.118-67.882-28.118h-32c-8.486 0-16.627 3.373-22.627 9.373s-9.373 14.141-9.373 22.627c0 8.486 3.373 16.627 9.373 22.627s14.141 9.373 22.627 9.373h32c8.486 0 16.627 3.373 22.627 9.373s9.373 14.141 9.373 22.627v448c0 8.487-3.373 16.626-9.373 22.628s-14.141 9.372-22.627 9.372h-640c-8.487 0-16.626-3.372-22.628-9.372s-9.372-14.14-9.372-22.628v-448c0-8.486 3.372-16.627 9.372-22.627s14.14-9.373 22.628-9.373h32c8.487 0 16.626-3.373 22.628-9.373s9.372-14.141 9.372-22.627c0-8.486-3.372-16.627-9.372-22.627s-14.14-9.373-22.628-9.373h-32c-25.461 0-49.879 10.115-67.882 28.118s-28.118 42.422-28.118 67.882v448c0 25.461 10.114 49.879 28.118 67.882s42.421 28.118 67.882 28.118h640c25.459 0 49.878-10.114 67.882-28.118s28.118-42.421 28.118-67.882z" />
<glyph unicode="&#xe914;" d="M894.038 629.078l-104.72-287.997c-2.24-6.179-6.33-11.517-11.712-15.286-5.382-3.773-11.795-5.795-18.368-5.795h-494.478c-6.572 0-12.984 2.022-18.366 5.795-5.382 3.77-9.472 9.107-11.714 15.286l-104.72 287.997c-1.754 4.832-2.318 10.013-1.646 15.108s2.562 9.953 5.508 14.163c2.947 4.21 6.864 7.649 11.42 10.025s9.618 3.62 14.757 3.626h704c5.139-0.006 10.202-1.25 14.758-3.626 4.554-2.376 8.474-5.814 11.418-10.025 2.947-4.21 4.838-9.068 5.51-14.163s0.106-10.276-1.648-15.108z" />
<glyph unicode="&#xe915;" d="M916.438 676.72c-5.904 8.428-13.754 15.308-22.883 20.057s-19.267 7.227-29.558 7.223h-320v128h64c8.486 0 16.627 3.372 22.627 9.372 6.003 6.001 9.373 14.14 9.373 22.628s-3.37 16.626-9.373 22.628c-6 6.001-14.141 9.372-22.627 9.372h-192c-8.486 0-16.627-3.372-22.627-9.372s-9.373-14.14-9.373-22.628c0-8.487 3.373-16.626 9.373-22.628s14.141-9.372 22.627-9.372h64v-128h-320c-10.276-0.023-20.395-2.52-29.502-7.28s-16.934-11.642-22.819-20.066c-5.885-8.423-9.655-18.14-10.992-28.329s-0.201-20.549 3.313-30.207l104.76-288c4.482-12.32 12.641-22.966 23.372-30.499s23.517-11.59 36.628-11.619h119.24v-256c0-8.486 3.373-16.627 9.373-22.627s14.141-9.373 22.627-9.373c8.486 0 16.627 3.373 22.627 9.373s9.373 14.141 9.373 22.627v256h128v-256c0-8.486 3.373-16.627 9.373-22.627s14.141-9.373 22.627-9.373c8.486 0 16.627 3.373 22.627 9.373 6.003 6 9.373 14.141 9.373 22.627v256h119.28c13.11 0.029 25.898 4.086 36.627 11.619 10.733 7.533 18.89 18.179 23.373 30.499l104.762 288c3.533 9.661 4.688 20.032 3.366 30.231-1.322 10.201-5.085 19.932-10.966 28.37zM442.717 352l-52.4 288h243.36l-52.4-288h-138.56zM159.997 640h165.28l52.362-288h-112.921l-104.72 288zM759.277 352h-112.918l52.358 288h165.28l-104.72-288z" />
<glyph unicode="&#xe916;" d="M864 416c0-69.619-20.643-137.674-59.322-195.562-38.678-57.885-93.654-103.002-157.974-129.645-64.32-26.64-135.094-33.613-203.376-20.029-68.282 13.581-131.001 47.104-180.229 96.333s-82.753 111.949-96.335 180.23c-13.582 68.282-6.611 139.056 20.031 203.376s71.759 119.295 129.645 157.973c57.887 38.678 125.941 59.323 195.561 59.323 93.357 0 182.89-37.086 248.902-103.099s103.098-155.545 103.098-248.901z" />
<glyph unicode="&#xe917;" d="M512.003 800.002c-75.949 0-150.192-22.521-213.34-64.716s-112.367-102.166-141.431-172.332c-29.064-70.17-36.668-147.379-21.852-221.866 14.817-74.49 51.389-142.912 105.093-196.614 53.703-53.706 122.125-90.275 196.615-105.094 74.49-14.816 151.699-7.21 221.866 21.853 70.166 29.066 130.138 78.282 172.333 141.43s64.717 137.392 64.717 213.341c-0.118 101.805-40.611 199.411-112.602 271.399-71.987 71.988-169.594 112.483-271.398 112.599zM512.003 96.003c-63.29 0-125.158 18.765-177.782 53.93-52.625 35.162-93.64 85.139-117.86 143.61-24.22 58.474-30.557 122.813-18.21 184.89 12.348 62.074 42.824 119.091 87.577 163.844s101.773 75.23 163.846 87.577c62.074 12.347 126.413 6.010 184.886-18.21s108.451-65.235 143.613-117.858c35.162-52.624 53.93-114.493 53.93-177.782-0.096-84.842-33.84-166.179-93.834-226.17-59.99-59.99-141.328-93.738-226.166-93.83zM246.642 809.362l-128-128c-6.004-6.004-14.148-9.378-22.64-9.378s-16.636 3.373-22.64 9.378c-6.004 6.004-9.378 14.148-9.378 22.64s3.373 16.636 9.378 22.64l128 128c6.004 6.005 14.148 9.378 22.64 9.378s16.636-3.373 22.64-9.378c6.004-6.004 9.378-14.148 9.378-22.64s-3.373-16.635-9.378-22.64zM950.643 681.362c-2.973-2.975-6.502-5.335-10.387-6.946s-8.048-2.439-12.253-2.439c-4.205 0-8.371 0.829-12.256 2.439s-7.414 3.971-10.384 6.946l-128 128c-6.006 6.005-9.379 14.148-9.379 22.64s3.373 16.636 9.379 22.64c6.003 6.005 14.147 9.378 22.64 9.378 8.49 0 16.634-3.373 22.64-9.378l128-128c2.973-2.972 5.334-6.501 6.944-10.386 1.613-3.884 2.442-8.049 2.442-12.254s-0.829-8.369-2.442-12.254c-1.61-3.884-3.971-7.414-6.944-10.386zM736.003 448.003c8.486 0 16.624-3.373 22.627-9.373 6-6.003 9.373-14.141 9.373-22.627 0-8.49-3.373-16.627-9.373-22.63-6.003-6-14.141-9.37-22.627-9.37h-224c-8.486 0-16.627 3.37-22.627 9.37-6.003 6.003-9.373 14.141-9.373 22.63v223.998c0 8.487 3.37 16.626 9.373 22.628 6 6.001 14.141 9.372 22.627 9.372s16.624-3.371 22.627-9.372c6-6.001 9.373-14.14 9.373-22.628v-191.998h192z" />
<glyph unicode="&#xe918;" d="M512 864c-93.357 0-182.89-37.086-248.901-103.099s-103.099-155.545-103.099-248.901c0-194.4 224-480 352-480s352 285.6 352 480c0 93.357-37.085 182.889-103.098 248.901s-155.546 103.099-248.902 103.099zM416 384c-33.949 0-66.506 13.485-90.509 37.491-24.005 24.003-37.491 56.56-37.491 90.509 0 8.486 3.372 16.627 9.372 22.627s14.14 9.373 22.628 9.373c33.949 0 66.506-13.485 90.509-37.491 24.006-24.003 37.491-56.56 37.491-90.509 0-8.486-3.373-16.627-9.373-22.627s-14.141-9.373-22.627-9.373zM608 384c-8.486 0-16.627 3.373-22.627 9.373s-9.373 14.141-9.373 22.627c0 33.949 13.485 66.506 37.491 90.509 24.003 24.006 56.56 37.491 90.509 37.491 8.486 0 16.627-3.373 22.627-9.373s9.373-14.141 9.373-22.627c0-33.949-13.485-66.506-37.491-90.509-24.003-24.006-56.56-37.491-90.509-37.491z" />
<glyph unicode="&#xe919;" d="M512 896c-101.808-0.116-199.412-40.611-271.4-112.6s-112.483-169.592-112.6-271.4c0-96 50.24-220.24 134.44-332 84.722-112.598 178.002-180 249.56-180s164.838 67.238 249.558 180c84.202 112 134.442 236 134.442 332-0.115 101.808-40.611 199.412-112.598 271.4-71.99 71.989-169.594 112.483-271.402 112.6zM710.442 218.32c-69.482-92.278-149.203-154.32-198.442-154.32s-128.96 62.042-198.44 154.32c-74.96 99.68-121.56 212.198-121.56 293.68 0 84.87 33.714 166.262 93.726 226.274s141.404 93.726 226.274 93.726c84.87 0 166.262-33.714 226.275-93.726 60.010-60.012 93.725-141.404 93.725-226.274 0-81.482-46.598-194-121.558-293.68zM480 416c0 42.435-16.858 83.133-46.864 113.136-30.003 30.006-70.701 46.864-113.136 46.864-16.974 0-33.252-6.742-45.255-18.746s-18.745-28.282-18.745-45.254c0-42.435 16.857-83.133 46.863-113.136 30.004-30.006 70.702-46.864 113.137-46.864 16.973 0 33.251 6.742 45.254 18.746s18.746 28.282 18.746 45.254zM320 512c25.459 0 49.878-10.115 67.882-28.118s28.118-42.422 28.118-67.882c-25.459 0-49.878 10.115-67.882 28.118s-28.118 42.422-28.118 67.882zM704 576c-42.435 0-83.133-16.858-113.136-46.864-30.006-30.003-46.864-70.701-46.864-113.136 0-16.973 6.742-33.251 18.746-45.254s28.282-18.746 45.254-18.746c21.011 0 41.818 4.138 61.229 12.179s37.050 19.827 51.907 34.685c14.858 14.858 26.643 32.496 34.685 51.907s12.179 40.218 12.179 61.229c0 16.973-6.742 33.251-18.746 45.254s-28.282 18.746-45.254 18.746zM608 416c0 25.459 10.115 49.878 28.118 67.882s42.422 28.118 67.882 28.118c0-25.459-10.115-49.878-28.118-67.882s-42.422-28.118-67.882-28.118zM608 224c0-8.486-3.373-16.627-9.373-22.627s-14.141-9.373-22.627-9.373h-128c-8.486 0-16.627 3.373-22.627 9.373s-9.373 14.141-9.373 22.627c0 8.486 3.373 16.627 9.373 22.627s14.141 9.373 22.627 9.373h128c8.486 0 16.627-3.373 22.627-9.373s9.373-14.141 9.373-22.627z" />
<glyph unicode="&#xe91a;" d="M800 640v-384c0-8.486-3.373-16.627-9.373-22.627s-14.141-9.373-22.627-9.373h-160c-8.486 0-16.627 3.373-22.627 9.373s-9.373 14.141-9.373 22.627v384c0 8.487 3.373 16.626 9.373 22.628s14.141 9.372 22.627 9.372h160c8.486 0 16.627-3.372 22.627-9.372s9.373-14.14 9.373-22.628zM416 832h-160c-8.487 0-16.626-3.372-22.628-9.372s-9.372-14.14-9.372-22.628v-544c0-8.486 3.372-16.627 9.372-22.627s14.14-9.373 22.628-9.373h160c8.486 0 16.627 3.373 22.627 9.373s9.373 14.141 9.373 22.627v544c0 8.487-3.373 16.626-9.373 22.628s-14.141 9.372-22.627 9.372z" />
<glyph unicode="&#xe91b;" d="M256 192h160c16.973 0 33.251 6.742 45.254 18.746s18.746 28.282 18.746 45.254v544c0 16.974-6.742 33.252-18.746 45.255s-28.282 18.745-45.254 18.745h-160c-16.974 0-33.252-6.743-45.255-18.745s-18.745-28.281-18.745-45.255v-544c0-16.973 6.743-33.251 18.745-45.254s28.281-18.746 45.255-18.746zM256 800h160v-544h-160v544zM896 96c0-8.486-3.373-16.627-9.373-22.627s-14.141-9.373-22.627-9.373h-704c-8.487 0-16.626 3.373-22.628 9.373s-9.372 14.141-9.372 22.627c0 8.486 3.372 16.627 9.372 22.627s14.14 9.373 22.628 9.373h704c8.486 0 16.627-3.373 22.627-9.373s9.373-14.141 9.373-22.627zM608 192h160c16.973 0 33.251 6.742 45.254 18.746s18.746 28.282 18.746 45.254v384c0 16.974-6.742 33.252-18.746 45.255s-28.282 18.745-45.254 18.745h-160c-16.973 0-33.251-6.743-45.254-18.745s-18.746-28.281-18.746-45.255v-384c0-16.973 6.742-33.251 18.746-45.254s28.282-18.746 45.254-18.746zM608 640h160v-384h-160v384z" />
<glyph unicode="&#xe91c;" d="M672 800v-608c0-8.486-3.373-16.627-9.373-22.627s-14.141-9.373-22.627-9.373h-256c-8.486 0-16.627 3.373-22.627 9.373s-9.373 14.141-9.373 22.627v608c0 8.487 3.373 16.626 9.373 22.628s14.141 9.372 22.627 9.372h256c8.486 0 16.627-3.372 22.627-9.372s9.373-14.14 9.373-22.628z" />
<glyph unicode="&#xe91d;" d="M832 32c0-8.486-3.373-16.627-9.373-22.627s-14.141-9.373-22.627-9.373h-576c-8.487 0-16.626 3.373-22.628 9.373s-9.372 14.141-9.372 22.627c0 8.486 3.372 16.627 9.372 22.627s14.14 9.373 22.628 9.373h576c8.486 0 16.627-3.373 22.627-9.373s9.373-14.141 9.373-22.627zM320 192v608c0 16.974 6.742 33.252 18.746 45.255s28.282 18.745 45.254 18.745h256c16.973 0 33.251-6.743 45.254-18.745s18.746-28.281 18.746-45.255v-608c0-16.973-6.742-33.251-18.746-45.254s-28.282-18.746-45.254-18.746h-256c-16.973 0-33.251 6.742-45.254 18.746s-18.746 28.282-18.746 45.254zM384 192h256v608h-256v-608z" />
<glyph unicode="&#xe91e;" d="M256 544v160c0 8.487 3.372 16.626 9.372 22.628s14.14 9.372 22.628 9.372h448c8.486 0 16.627-3.372 22.627-9.372s9.373-14.14 9.373-22.628v-160c0-8.486-3.373-16.627-9.373-22.627s-14.141-9.373-22.627-9.373h-448c-8.487 0-16.626 3.373-22.628 9.373s-9.372 14.141-9.372 22.627zM832 384h-640c-8.487 0-16.626-3.373-22.628-9.373s-9.372-14.141-9.372-22.627v-160c0-8.486 3.372-16.627 9.372-22.627s14.14-9.373 22.628-9.373h640c8.486 0 16.627 3.373 22.627 9.373s9.373 14.141 9.373 22.627v160c0 8.486-3.373 16.627-9.373 22.627s-14.141 9.373-22.627 9.373z" />
<glyph unicode="&#xe91f;" d="M832 416h-288v64h192c16.973 0 33.251 6.742 45.254 18.746s18.746 28.282 18.746 45.254v160c0 16.974-6.742 33.252-18.746 45.255s-28.282 18.745-45.254 18.745h-192v64c0 8.487-3.373 16.626-9.373 22.628s-14.141 9.372-22.627 9.372c-8.486 0-16.627-3.372-22.627-9.372s-9.373-14.14-9.373-22.628v-64h-192c-16.974 0-33.252-6.743-45.255-18.745s-18.745-28.281-18.745-45.255v-160c0-16.973 6.743-33.251 18.745-45.254s28.281-18.746 45.255-18.746h192v-64h-288c-16.974 0-33.252-6.742-45.255-18.746s-18.745-28.282-18.745-45.254v-160c0-16.973 6.743-33.251 18.745-45.254s28.281-18.746 45.255-18.746h288v-64c0-8.486 3.373-16.627 9.373-22.627s14.141-9.373 22.627-9.373c8.486 0 16.627 3.373 22.627 9.373s9.373 14.141 9.373 22.627v64h288c16.973 0 33.251 6.742 45.254 18.746s18.746 28.282 18.746 45.254v160c0 16.973-6.742 33.251-18.746 45.254s-28.282 18.746-45.254 18.746zM288 704h448v-160h-448v160zM832 192h-640v160h640v-160z" />
<glyph unicode="&#xe920;" d="M864 576v-256c0-8.486-3.373-16.627-9.373-22.627s-14.141-9.373-22.627-9.373h-640c-8.487 0-16.626 3.373-22.628 9.373s-9.372 14.141-9.372 22.627v256c0 8.486 3.372 16.627 9.372 22.627s14.14 9.373 22.628 9.373h640c8.486 0 16.627-3.373 22.627-9.373s9.373-14.141 9.373-22.627z" />
<glyph unicode="&#xe921;" d="M832 640h-288v128c0 8.487-3.373 16.626-9.373 22.628s-14.141 9.372-22.627 9.372c-8.486 0-16.627-3.372-22.627-9.372s-9.373-14.14-9.373-22.628v-128h-288c-16.974 0-33.252-6.742-45.255-18.746s-18.745-28.282-18.745-45.254v-256c0-16.973 6.743-33.251 18.745-45.254s28.281-18.746 45.255-18.746h288v-128c0-8.486 3.373-16.627 9.373-22.627s14.141-9.373 22.627-9.373c8.486 0 16.627 3.373 22.627 9.373s9.373 14.141 9.373 22.627v128h288c16.973 0 33.251 6.742 45.254 18.746s18.746 28.282 18.746 45.254v256c0 16.973-6.742 33.251-18.746 45.254s-28.282 18.746-45.254 18.746zM832 320h-640v256h640v-256z" />
<glyph unicode="&#xe922;" d="M800 672v-448c0-8.486-3.373-16.627-9.373-22.627s-14.141-9.373-22.627-9.373h-160c-8.486 0-16.627 3.373-22.627 9.373s-9.373 14.141-9.373 22.627v448c0 8.487 3.373 16.626 9.373 22.628s14.141 9.372 22.627 9.372h160c8.486 0 16.627-3.372 22.627-9.372s9.373-14.14 9.373-22.628zM416 800h-160c-8.487 0-16.626-3.372-22.628-9.372s-9.372-14.14-9.372-22.628v-640c0-8.486 3.372-16.627 9.372-22.627s14.14-9.373 22.628-9.373h160c8.486 0 16.627 3.373 22.627 9.373s9.373 14.141 9.373 22.627v640c0 8.487-3.373 16.626-9.373 22.628s-14.141 9.372-22.627 9.372z" />
<glyph unicode="&#xe923;" d="M896 480h-64v192c0 16.974-6.742 33.252-18.746 45.255s-28.282 18.745-45.254 18.745h-160c-16.973 0-33.251-6.743-45.254-18.745s-18.746-28.281-18.746-45.255v-192h-64v288c0 16.974-6.742 33.252-18.746 45.255s-28.282 18.745-45.254 18.745h-160c-16.974 0-33.252-6.743-45.255-18.745s-18.745-28.281-18.745-45.255v-288h-64c-8.487 0-16.626-3.373-22.628-9.373s-9.372-14.141-9.372-22.627c0-8.486 3.372-16.627 9.372-22.627s14.14-9.373 22.628-9.373h64v-288c0-16.973 6.743-33.251 18.745-45.254s28.281-18.746 45.255-18.746h160c16.973 0 33.251 6.742 45.254 18.746s18.746 28.282 18.746 45.254v288h64v-192c0-16.973 6.742-33.251 18.746-45.254s28.282-18.746 45.254-18.746h160c16.973 0 33.251 6.742 45.254 18.746s18.746 28.282 18.746 45.254v192h64c8.486 0 16.627 3.373 22.627 9.373s9.373 14.141 9.373 22.627c0 8.486-3.373 16.627-9.373 22.627s-14.141 9.373-22.627 9.373zM416 128h-160v640h160v-640zM768 224h-160v448h160v-448z" />
<glyph unicode="&#xe924;" d="M672 768v-640c0-8.486-3.373-16.627-9.373-22.627s-14.141-9.373-22.627-9.373h-256c-8.486 0-16.627 3.373-22.627 9.373s-9.373 14.141-9.373 22.627v640c0 8.487 3.373 16.626 9.373 22.628s14.141 9.372 22.627 9.372h256c8.486 0 16.627-3.372 22.627-9.372s9.373-14.14 9.373-22.628z" />
<glyph unicode="&#xe925;" d="M832 480h-128v288c0 16.974-6.742 33.252-18.746 45.255s-28.282 18.745-45.254 18.745h-256c-16.973 0-33.251-6.743-45.254-18.745s-18.746-28.281-18.746-45.255v-288h-128c-8.487 0-16.626-3.373-22.628-9.373s-9.372-14.141-9.372-22.627c0-8.486 3.372-16.627 9.372-22.627s14.14-9.373 22.628-9.373h128v-288c0-16.973 6.742-33.251 18.746-45.254s28.282-18.746 45.254-18.746h256c16.973 0 33.251 6.742 45.254 18.746s18.746 28.282 18.746 45.254v288h128c8.486 0 16.627 3.373 22.627 9.373s9.373 14.141 9.373 22.627c0 8.486-3.373 16.627-9.373 22.627s-14.141 9.373-22.627 9.373zM640 128h-256v640h256v-640z" />
<glyph unicode="&#xe926;" d="M288 544v160c0 8.487 3.372 16.626 9.372 22.628s14.14 9.372 22.628 9.372h384c8.486 0 16.627-3.372 22.627-9.372s9.373-14.14 9.373-22.628v-160c0-8.486-3.373-16.627-9.373-22.627s-14.141-9.373-22.627-9.373h-384c-8.487 0-16.626 3.373-22.628 9.373s-9.372 14.141-9.372 22.627zM864 384h-544c-8.487 0-16.626-3.373-22.628-9.373s-9.372-14.141-9.372-22.627v-160c0-8.486 3.372-16.627 9.372-22.627s14.14-9.373 22.628-9.373h544c8.486 0 16.627 3.373 22.627 9.373s9.373 14.141 9.373 22.627v160c0 8.486-3.373 16.627-9.373 22.627s-14.141 9.373-22.627 9.373z" />
<glyph unicode="&#xe927;" d="M864 416h-544c-16.974 0-33.252-6.742-45.255-18.746s-18.745-28.282-18.745-45.254v-160c0-16.973 6.743-33.251 18.745-45.254s28.281-18.746 45.255-18.746h544c16.973 0 33.251 6.742 45.254 18.746s18.746 28.282 18.746 45.254v160c0 16.973-6.742 33.251-18.746 45.254s-28.282 18.746-45.254 18.746zM864 192h-544v160h544v-160zM192 800v-704c0-8.486-3.372-16.627-9.372-22.627s-14.14-9.373-22.628-9.373c-8.487 0-16.626 3.373-22.628 9.373s-9.372 14.141-9.372 22.627v704c0 8.487 3.372 16.626 9.372 22.628s14.14 9.372 22.628 9.372c8.487 0 16.626-3.372 22.628-9.372s9.372-14.14 9.372-22.628zM320 480h384c16.973 0 33.251 6.742 45.254 18.746s18.746 28.282 18.746 45.254v160c0 16.974-6.742 33.252-18.746 45.255s-28.282 18.745-45.254 18.745h-384c-16.974 0-33.252-6.743-45.255-18.745s-18.745-28.281-18.745-45.255v-160c0-16.973 6.743-33.251 18.745-45.254s28.281-18.746 45.255-18.746zM320 704h384v-160h-384v160z" />
<glyph unicode="&#xe928;" d="M928 576v-256c0-8.486-3.373-16.627-9.373-22.627s-14.141-9.373-22.627-9.373h-608c-8.487 0-16.626 3.373-22.628 9.373s-9.372 14.141-9.372 22.627v256c0 8.486 3.372 16.627 9.372 22.627s14.14 9.373 22.628 9.373h608c8.486 0 16.627-3.373 22.627-9.373s9.373-14.141 9.373-22.627z" />
<glyph unicode="&#xe929;" d="M160 736v-576c0-8.486-3.372-16.627-9.372-22.627s-14.14-9.373-22.628-9.373c-8.487 0-16.626 3.373-22.628 9.373s-9.372 14.141-9.372 22.627v576c0 8.487 3.372 16.626 9.372 22.628s14.14 9.372 22.628 9.372c8.487 0 16.626-3.372 22.628-9.372s9.372-14.14 9.372-22.628zM960 576v-256c0-16.973-6.742-33.251-18.746-45.254s-28.282-18.746-45.254-18.746h-608c-16.974 0-33.252 6.742-45.255 18.746s-18.745 28.282-18.745 45.254v256c0 16.973 6.743 33.251 18.745 45.254s28.281 18.746 45.255 18.746h608c16.973 0 33.251-6.742 45.254-18.746s18.746-28.282 18.746-45.254zM896 320v256h-608v-256h608z" />
<glyph unicode="&#xe92a;" d="M736 704v-160c0-8.486-3.373-16.627-9.373-22.627s-14.141-9.373-22.627-9.373h-384c-8.487 0-16.626 3.373-22.628 9.373s-9.372 14.141-9.372 22.627v160c0 8.487 3.372 16.626 9.372 22.628s14.14 9.372 22.628 9.372h384c8.486 0 16.627-3.372 22.627-9.372s9.373-14.14 9.373-22.628zM704 384h-544c-8.487 0-16.626-3.373-22.628-9.373s-9.372-14.141-9.372-22.627v-160c0-8.486 3.372-16.627 9.372-22.627s14.14-9.373 22.628-9.373h544c8.486 0 16.627 3.373 22.627 9.373s9.373 14.141 9.373 22.627v160c0 8.486-3.373 16.627-9.373 22.627s-14.141 9.373-22.627 9.373z" />
<glyph unicode="&#xe92b;" d="M896 800v-704c0-8.486-3.373-16.627-9.373-22.627s-14.141-9.373-22.627-9.373c-8.486 0-16.627 3.373-22.627 9.373s-9.373 14.141-9.373 22.627v704c0 8.487 3.373 16.626 9.373 22.628s14.141 9.372 22.627 9.372c8.486 0 16.627-3.372 22.627-9.372s9.373-14.14 9.373-22.628zM768 704v-160c0-16.973-6.742-33.251-18.746-45.254s-28.282-18.746-45.254-18.746h-384c-16.974 0-33.252 6.742-45.255 18.746s-18.745 28.282-18.745 45.254v160c0 16.974 6.743 33.252 18.745 45.255s28.281 18.745 45.255 18.745h384c16.973 0 33.251-6.743 45.254-18.745s18.746-28.281 18.746-45.255zM704 704h-384v-160h384v160zM768 352v-160c0-16.973-6.742-33.251-18.746-45.254s-28.282-18.746-45.254-18.746h-544c-16.974 0-33.252 6.742-45.255 18.746s-18.745 28.282-18.745 45.254v160c0 16.973 6.743 33.251 18.745 45.254s28.281 18.746 45.255 18.746h544c16.973 0 33.251-6.742 45.254-18.746s18.746-28.282 18.746-45.254zM704 352h-544v-160h544v160z" />
<glyph unicode="&#xe92c;" d="M768 576v-256c0-8.486-3.373-16.627-9.373-22.627s-14.141-9.373-22.627-9.373h-608c-8.487 0-16.626 3.373-22.628 9.373s-9.372 14.141-9.372 22.627v256c0 8.486 3.372 16.627 9.372 22.627s14.14 9.373 22.628 9.373h608c8.486 0 16.627-3.373 22.627-9.373s9.373-14.141 9.373-22.627z" />
<glyph unicode="&#xe92d;" d="M928 736v-576c0-8.486-3.373-16.627-9.373-22.627s-14.141-9.373-22.627-9.373c-8.486 0-16.627 3.373-22.627 9.373s-9.373 14.141-9.373 22.627v576c0 8.487 3.373 16.626 9.373 22.628s14.141 9.372 22.627 9.372c8.486 0 16.627-3.372 22.627-9.372s9.373-14.14 9.373-22.628zM800 576v-256c0-16.973-6.742-33.251-18.746-45.254s-28.282-18.746-45.254-18.746h-608c-16.974 0-33.252 6.742-45.255 18.746s-18.745 28.282-18.745 45.254v256c0 16.973 6.743 33.251 18.745 45.254s28.281 18.746 45.255 18.746h608c16.973 0 33.251-6.742 45.254-18.746s18.746-28.282 18.746-45.254zM736 576h-608v-256h608v256z" />
<glyph unicode="&#xe92e;" d="M800 640v-384c0-8.486-3.373-16.627-9.373-22.627s-14.141-9.373-22.627-9.373h-160c-8.486 0-16.627 3.373-22.627 9.373s-9.373 14.141-9.373 22.627v384c0 8.487 3.373 16.626 9.373 22.628s14.141 9.372 22.627 9.372h160c8.486 0 16.627-3.372 22.627-9.372s9.373-14.14 9.373-22.628zM416 672h-160c-8.487 0-16.626-3.372-22.628-9.372s-9.372-14.14-9.372-22.628v-544c0-8.486 3.372-16.627 9.372-22.627s14.14-9.373 22.628-9.373h160c8.486 0 16.627 3.373 22.627 9.373s9.373 14.141 9.373 22.627v544c0 8.487-3.373 16.626-9.373 22.628s-14.141 9.372-22.627 9.372z" />
<glyph unicode="&#xe92f;" d="M896 800c0-8.487-3.373-16.626-9.373-22.628s-14.141-9.372-22.627-9.372h-704c-8.487 0-16.626 3.372-22.628 9.372s-9.372 14.14-9.372 22.628c0 8.487 3.372 16.626 9.372 22.628s14.14 9.372 22.628 9.372h704c8.486 0 16.627-3.372 22.627-9.372s9.373-14.14 9.373-22.628zM832 640v-384c0-16.973-6.742-33.251-18.746-45.254s-28.282-18.746-45.254-18.746h-160c-16.973 0-33.251 6.742-45.254 18.746s-18.746 28.282-18.746 45.254v384c0 16.974 6.742 33.252 18.746 45.255s28.282 18.745 45.254 18.745h160c16.973 0 33.251-6.743 45.254-18.745s18.746-28.281 18.746-45.255zM768 640h-160v-384h160v384zM480 640v-544c0-16.973-6.742-33.251-18.746-45.254s-28.282-18.746-45.254-18.746h-160c-16.974 0-33.252 6.742-45.255 18.746s-18.745 28.282-18.745 45.254v544c0 16.974 6.743 33.252 18.745 45.255s28.281 18.745 45.255 18.745h160c16.973 0 33.251-6.743 45.254-18.745s18.746-28.281 18.746-45.255zM416 640h-160v-544h160v544z" />
<glyph unicode="&#xe930;" d="M672 672v-608c0-8.486-3.373-16.627-9.373-22.627s-14.141-9.373-22.627-9.373h-256c-8.486 0-16.627 3.373-22.627 9.373s-9.373 14.141-9.373 22.627v608c0 8.487 3.373 16.626 9.373 22.628s14.141 9.372 22.627 9.372h256c8.486 0 16.627-3.372 22.627-9.372s9.373-14.14 9.373-22.628z" />
<glyph unicode="&#xe931;" d="M832 832c0-8.487-3.373-16.626-9.373-22.628s-14.141-9.372-22.627-9.372h-576c-8.487 0-16.626 3.372-22.628 9.372s-9.372 14.14-9.372 22.628c0 8.487 3.372 16.626 9.372 22.628s14.14 9.372 22.628 9.372h576c8.486 0 16.627-3.372 22.627-9.372s9.373-14.14 9.373-22.628zM704 672v-608c0-16.973-6.742-33.251-18.746-45.254s-28.282-18.746-45.254-18.746h-256c-16.973 0-33.251 6.742-45.254 18.746s-18.746 28.282-18.746 45.254v608c0 16.974 6.742 33.252 18.746 45.255s28.282 18.745 45.254 18.745h256c16.973 0 33.251-6.743 45.254-18.745s18.746-28.281 18.746-45.255zM640 672h-256v-608h256v608z" />
<glyph unicode="&#xe932;" d="M672 432c0-34.81-10.323-68.838-29.661-97.779-19.341-28.944-46.826-51.504-78.986-64.822-32.16-13.322-67.549-16.806-101.69-10.016s-65.501 23.552-90.115 48.166c-24.614 24.614-41.376 55.974-48.166 90.115-6.792 34.141-3.306 69.53 10.016 101.69 13.318 32.16 35.878 59.645 64.822 78.986 28.941 19.338 62.97 29.661 97.779 29.661 46.678 0 91.443-18.544 124.451-51.549 33.005-33.008 51.549-77.773 51.549-124.451z" />
<glyph unicode="&#xe933;" d="M992 288v-128c0-8.486-3.373-16.624-9.373-22.627-6-6-14.141-9.373-22.627-9.373s-16.627 3.373-22.627 9.373c-6 6.003-9.373 14.141-9.373 22.627v50.762l-8.842-8.88c-12.4-13.482-161.398-169.882-407.158-169.882-251.36 0-401.52 163.642-407.8 170.602-5.676 6.339-8.601 14.672-8.132 23.168s4.293 16.458 10.632 22.131c6.339 5.677 14.672 8.602 23.168 8.131 8.495-0.467 16.457-4.291 22.132-10.63 1.080-1.402 138-149.402 360-149.402s358.922 148 360.282 149.44c0.336 0.419 0.698 0.819 1.078 1.2l9.402 9.36h-50.762c-8.486 0-16.627 3.373-22.627 9.373-6 6.003-9.373 14.141-9.373 22.627 0 8.49 3.373 16.627 9.373 22.63 6 6 14.141 9.37 22.627 9.37h128c8.486 0 16.627-3.37 22.627-9.37 6-6.003 9.373-14.141 9.373-22.63zM640 581.882v42.118c0.022 32.357-10.854 63.778-30.877 89.196-20.019 25.419-48.016 43.354-79.478 50.914-31.459 7.56-64.55 4.305-93.933-9.242s-53.35-36.594-68.032-65.427c-3.862-7.559-10.566-13.274-18.643-15.888-8.074-2.614-16.858-1.913-24.416 1.948s-13.275 10.568-15.889 18.643c-2.614 8.076-1.914 16.859 1.948 24.417 21.218 41.633 55.838 74.909 98.277 94.463 42.442 19.555 90.23 24.249 135.664 13.326s85.866-36.827 114.781-73.536c28.912-36.709 44.624-82.085 44.598-128.815v-368c0-8.486-3.373-16.624-9.373-22.627-6-6-14.141-9.373-22.627-9.373s-16.627 3.373-22.627 9.373c-6 6.003-9.373 14.141-9.373 22.627v26.122c-29.398-28.288-66.467-47.306-106.592-54.688-40.122-7.382-81.533-2.8-119.072 13.174-37.542 15.974-69.555 42.637-92.058 76.669-22.502 34.029-34.5 73.926-34.5 114.723 0 40.8 11.998 80.698 34.5 114.726 22.502 34.032 54.515 60.694 92.058 76.669 37.539 15.974 78.95 20.555 119.072 13.174 40.125-7.382 77.194-26.4 106.592-54.688zM640 432c0 28.483-8.445 56.323-24.269 80.003s-38.314 42.138-64.624 53.037c-26.314 10.899-55.267 13.75-83.2 8.195-27.933-5.558-53.59-19.27-73.731-39.411-20.138-20.138-33.853-45.795-39.408-73.728-5.558-27.936-2.707-56.89 8.192-83.2 10.899-26.314 29.357-48.803 53.037-64.627 23.683-15.821 51.523-24.269 80.003-24.269 18.909 0 37.635 3.725 55.107 10.963 17.469 7.235 33.344 17.843 46.717 31.216 13.37 13.37 23.978 29.245 31.216 46.717 7.235 17.469 10.96 36.195 10.96 55.104z" />
<glyph unicode="&#xe934;" d="M992 480v-256c0-8.486-3.373-16.627-9.373-22.627s-14.141-9.373-22.627-9.373h-96c0.003 15.36-3.683 30.493-10.742 44.134s-17.286 25.389-29.827 34.256c-12.541 8.867-27.024 14.598-42.24 16.71-15.213 2.109-30.71 0.538-45.19-4.579-18.72-6.621-34.925-18.88-46.387-35.091s-17.616-35.578-17.613-55.43h-256c0 25.459-10.115 49.878-28.118 67.882s-42.422 28.118-67.882 28.118c-25.461 0-49.879-10.115-67.882-28.118s-28.118-42.422-28.118-67.882h-96c-8.487 0-16.626 3.373-22.628 9.373s-9.372 14.141-9.372 22.627v448c0 8.487 3.372 16.626 9.372 22.628s14.14 9.372 22.628 9.372h608v-224h256z" />
<glyph unicode="&#xe935;" d="M320 480c0 8.486 3.373 16.627 9.373 22.627s14.141 9.373 22.627 9.373h64v64c0 8.486 3.373 16.627 9.373 22.627s14.141 9.373 22.627 9.373c8.486 0 16.627-3.373 22.627-9.373s9.373-14.141 9.373-22.627v-64h64c8.486 0 16.627-3.373 22.627-9.373s9.373-14.141 9.373-22.627c0-8.486-3.373-16.627-9.373-22.627s-14.141-9.373-22.627-9.373h-64v-64c0-8.486-3.373-16.627-9.373-22.627s-14.141-9.373-22.627-9.373c-8.486 0-16.627 3.373-22.627 9.373s-9.373 14.141-9.373 22.627v64h-64c-8.486 0-16.627 3.373-22.627 9.373s-9.373 14.141-9.373 22.627zM1024 480v-256c0-16.973-6.742-33.251-18.746-45.254s-28.282-18.746-45.254-18.746h-68c-7.050-27.533-23.062-51.936-45.514-69.363s-50.064-26.886-78.486-26.886c-28.422 0-56.035 9.459-78.486 26.886s-38.464 41.83-45.514 69.363h-200c-7.050-27.533-23.062-51.936-45.514-69.363s-50.064-26.886-78.486-26.886c-28.421 0-56.035 9.459-78.486 26.886s-38.464 41.83-45.514 69.363h-68c-16.974 0-33.252 6.742-45.255 18.746s-18.745 28.282-18.745 45.254v448c0 16.974 6.743 33.252 18.745 45.255s28.281 18.745 45.255 18.745h608c8.486 0 16.627-3.372 22.627-9.372s9.373-14.14 9.373-22.628v-32h138.32c12.803 0.041 25.322-3.776 35.926-10.954 10.602-7.178 18.797-17.383 23.514-29.286l56-140c1.488-3.741 2.246-7.734 2.24-11.76zM768 608v-96h176.72l-38.4 96h-138.32zM128 224h68c7.050 27.533 23.062 51.936 45.514 69.363s50.065 26.886 78.486 26.886c28.422 0 56.035-9.459 78.486-26.886s38.464-41.83 45.514-69.363h200c4.291 16.445 11.805 31.875 22.106 45.395 10.301 13.517 23.181 24.861 37.894 33.366v369.238h-576v-448zM384 192c0 12.659-3.754 25.030-10.787 35.555-7.030 10.525-17.027 18.73-28.72 23.574-11.696 4.842-24.564 6.109-36.979 3.642-12.415-2.47-23.819-8.566-32.769-17.517s-15.046-20.355-17.516-32.768c-2.469-12.416-1.202-25.283 3.642-36.979 4.844-11.693 13.047-21.69 23.572-28.72 10.525-7.034 22.899-10.787 35.556-10.787 16.973 0 33.251 6.742 45.254 18.746s18.746 28.282 18.746 45.254zM832 192c0 12.659-3.754 25.030-10.787 35.555-7.030 10.525-17.027 18.73-28.72 23.574-11.696 4.842-24.563 6.109-36.979 3.642-12.413-2.47-23.818-8.566-32.768-17.517s-15.046-20.355-17.517-32.768c-2.467-12.416-1.2-25.283 3.642-36.979 4.845-11.693 13.050-21.69 23.574-28.72 10.525-7.034 22.896-10.787 35.555-10.787 16.973 0 33.251 6.742 45.254 18.746s18.746 28.282 18.746 45.254zM960 224v224h-192v-128c28.378-0.026 55.946-9.466 78.384-26.838 22.438-17.37 38.483-41.696 45.616-69.162h68z" />
<glyph unicode="&#xe936;" d="M608 736c0-18.987-5.629-37.548-16.179-53.335-10.547-15.787-25.542-28.092-43.082-35.358-17.542-7.266-36.845-9.167-55.469-5.463-18.621 3.704-35.728 12.847-49.152 26.273-13.427 13.426-22.57 30.532-26.275 49.154-3.702 18.622-1.802 37.924 5.466 55.466 7.264 17.542 19.568 32.535 35.357 43.084 15.786 10.548 34.349 16.179 53.334 16.179 25.462 0 49.878-10.114 67.882-28.118s28.118-42.421 28.118-67.882z" />
<glyph unicode="&#xe937;" d="M864 415.997c-8.486 0-16.627-3.37-22.627-9.373-6-6-9.373-14.138-9.373-22.627 0-98.758-55.082-118.56-152.4-145.12-45.44-12.4-96.48-26.4-135.6-57.36v266.48h128c8.486 0 16.627 3.373 22.627 9.373 6 6.003 9.373 14.141 9.373 22.627 0 8.49-3.373 16.627-9.373 22.627-6 6.003-14.141 9.373-22.627 9.373h-128v100c30.166 7.789 56.454 26.314 73.939 52.098s24.966 57.062 21.040 87.968c-3.926 30.906-18.989 59.319-42.365 79.914s-53.459 31.957-84.614 31.957c-31.155 0-61.238-11.362-84.614-31.957s-38.438-49.008-42.365-79.914c-3.926-30.906 3.555-62.183 21.040-87.968s43.773-44.309 73.939-52.098v-100h-128c-8.486 0-16.627-3.37-22.627-9.373-6-6-9.373-14.138-9.373-22.627 0-8.486 3.373-16.624 9.373-22.627 6-6 14.141-9.373 22.627-9.373h128v-266.48c-39.12 30.96-90.16 44.96-135.6 57.36-97.32 26.56-152.4 46.362-152.4 145.12 0 8.49-3.372 16.627-9.372 22.627-6.001 6.003-14.14 9.373-22.628 9.373s-16.626-3.37-22.628-9.373c-6.001-6-9.372-14.138-9.372-22.627 0-152.438 110.68-182.64 199.6-206.88 97.322-26.56 152.4-46.358 152.4-145.12 0-8.486 3.373-16.624 9.373-22.627 6-6 14.141-9.373 22.627-9.373s16.627 3.373 22.627 9.373c6 6.003 9.373 14.141 9.373 22.627 0 98.762 55.082 118.56 152.4 145.12 88.922 24.24 199.6 54.442 199.6 206.88 0 8.49-3.373 16.627-9.373 22.627-6 6.003-14.141 9.373-22.627 9.373zM448 735.998c0 12.658 3.754 25.032 10.787 35.556 7.030 10.525 17.027 18.728 28.72 23.572 11.696 4.844 24.563 6.111 36.979 3.642 12.413-2.469 23.818-8.565 32.768-17.515s15.046-20.355 17.517-32.769c2.467-12.415 1.2-25.283-3.642-36.978-4.845-11.694-13.050-21.69-23.574-28.722s-22.896-10.786-35.555-10.786c-16.973 0-33.251 6.743-45.254 18.745s-18.746 28.281-18.746 45.255z" />
<glyph unicode="&#xe938;" d="M608 704c0-18.987-5.629-37.548-16.179-53.335-10.547-15.788-25.542-28.092-43.082-35.356-17.542-7.267-36.845-9.168-55.469-5.466-18.621 3.706-35.728 12.848-49.152 26.275-13.427 13.425-22.57 30.531-26.275 49.153-3.702 18.622-1.802 37.924 5.466 55.466 7.264 17.542 19.568 32.535 35.357 43.084 15.786 10.548 34.349 16.179 53.334 16.179 25.462 0 49.878-10.114 67.882-28.118s28.118-42.421 28.118-67.882z" />
<glyph unicode="&#xe939;" d="M896 511.997h-96c-8.486 0-16.627-3.37-22.627-9.373-6-6-9.373-14.138-9.373-22.627 0-8.486 3.373-16.624 9.373-22.627 6-6 14.141-9.373 22.627-9.373h62.56c-7.6-81.914-43.606-158.595-101.782-216.765s-134.861-94.163-216.778-101.754v450.518c30.166 7.789 56.454 26.314 73.939 52.096 17.485 25.787 24.966 57.063 21.040 87.969s-18.989 59.319-42.365 79.914c-23.376 20.595-53.459 31.957-84.614 31.957s-61.238-11.362-84.614-31.957c-23.376-20.595-38.438-49.008-42.365-79.914s3.555-62.183 21.040-87.969c17.485-25.782 43.773-44.307 73.939-52.096v-450.518c-81.917 7.59-158.602 43.584-216.778 101.754s-94.181 134.851-101.782 216.765h62.56c8.487 0 16.626 3.373 22.628 9.373 6.001 6.003 9.372 14.141 9.372 22.627 0 8.49-3.372 16.627-9.372 22.627-6.001 6.003-14.14 9.373-22.628 9.373h-96c-8.487 0-16.626-3.37-22.628-9.373-6.001-6-9.372-14.138-9.372-22.627 0-110.33 43.828-216.141 121.844-294.154 78.015-78.016 183.827-121.846 294.156-121.846s216.141 43.83 294.157 121.846c78.016 78.013 121.843 183.824 121.843 294.154 0 8.49-3.373 16.627-9.373 22.627-6 6.003-14.141 9.373-22.627 9.373zM448 703.998c0 12.658 3.754 25.032 10.787 35.556 7.030 10.525 17.027 18.728 28.72 23.572 11.696 4.844 24.563 6.111 36.979 3.642 12.413-2.469 23.818-8.565 32.768-17.515s15.046-20.355 17.517-32.769c2.467-12.415 1.2-25.283-3.642-36.978-4.845-11.694-13.050-21.69-23.574-28.722s-22.896-10.787-35.555-10.787c-16.973 0-33.251 6.744-45.254 18.747s-18.746 28.281-18.746 45.255z" />
<glyph unicode="&#xe93a;" d="M928 320v-96c0-8.486-3.373-16.624-9.373-22.627-6-6-14.141-9.373-22.627-9.373h-768c-8.487 0-16.626 3.373-22.628 9.373-6.001 6.003-9.372 14.141-9.372 22.627v91.482c0 229.92 184.6 419.72 414.518 420.52 54.755 0.195 109.011-10.422 159.651-31.24 50.643-20.819 96.678-51.43 135.466-90.079 38.784-38.65 69.558-84.573 90.557-135.142 20.998-50.566 31.808-104.784 31.808-159.539z" />
<glyph unicode="&#xe93b;" d="M704 368c0-9.494-2.816-18.774-8.090-26.669-5.274-7.891-12.771-14.045-21.542-17.677-8.771-3.635-18.422-4.586-27.731-2.733-9.312 1.853-17.866 6.426-24.579 13.136-6.71 6.714-11.283 15.267-13.136 24.579-1.853 9.309-0.899 18.96 2.733 27.731s9.786 16.269 17.68 21.542c7.891 5.274 17.171 8.090 26.666 8.090 12.73 0 24.941-5.056 33.942-14.058s14.058-21.213 14.058-33.942zM368 416c-9.494 0-18.774-2.816-26.666-8.090-7.894-5.274-14.048-12.771-17.68-21.542s-4.584-18.422-2.733-27.731c1.853-9.312 6.426-17.866 13.136-24.579 6.714-6.71 15.267-11.283 24.579-13.136 9.309-1.853 18.96-0.902 27.731 2.733 8.771 3.632 16.269 9.786 21.542 17.677 5.274 7.894 8.090 17.174 8.090 26.669 0 12.73-5.056 24.941-14.058 33.942s-21.213 14.058-33.942 14.058zM960 320v-96c0-16.973-6.742-33.251-18.746-45.254s-28.282-18.746-45.254-18.746h-768c-16.974 0-33.252 6.742-45.255 18.746s-18.745 28.282-18.745 45.254v91.478c-0.057 61.69 12.471 122.739 36.818 179.418 24.347 56.682 60.001 107.798 104.782 150.224l-100.24 100.24c-6.004 6.004-9.378 14.148-9.378 22.64s3.373 16.636 9.378 22.64c6.004 6.004 14.148 9.378 22.64 9.378s16.636-3.373 22.64-9.378l104.64-104.64c75.132 53.232 164.908 81.882 256.985 82.011s181.936-28.27 257.216-81.291l104 104c6.003 6.004 14.147 9.378 22.64 9.378 8.49 0 16.634-3.373 22.64-9.378 6.003-6.004 9.376-14.148 9.376-22.64s-3.373-16.636-9.376-22.64l-99.482-99.44c3.002-2.84 6-5.72 8.96-8.682 41.898-41.52 75.12-90.954 97.741-145.43 22.621-54.474 34.182-112.902 34.019-171.888zM896 320c0 101.843-40.458 199.514-112.47 271.53-72.016 72.013-169.686 112.47-271.53 112.47h-1.36c-211-0.72-382.64-175.002-382.64-388.522v-91.478h768v96z" />
<glyph unicode="&#xe93c;" d="M800 288v-128h-512v512h128c101.843 0 199.514-40.458 271.53-112.47 72.013-72.016 112.47-169.686 112.47-271.53z" />
<glyph unicode="&#xe93d;" d="M384 672c0 8.487 3.373 16.626 9.373 22.628s14.141 9.372 22.627 9.372c110.294-0.116 216.038-43.982 294.029-121.971s121.856-183.734 121.971-294.029c0-8.486-3.373-16.627-9.373-22.627s-14.141-9.373-22.627-9.373c-8.486 0-16.627 3.373-22.627 9.373s-9.373 14.141-9.373 22.627c-0.106 93.325-37.226 182.794-103.216 248.784s-155.459 103.11-248.784 103.216c-8.486 0-16.627 3.372-22.627 9.372s-9.373 14.14-9.373 22.628zM960 192h-640v640c0 8.487-3.372 16.626-9.372 22.628s-14.14 9.372-22.628 9.372c-8.487 0-16.626-3.372-22.628-9.372s-9.372-14.14-9.372-22.628v-128h-128c-8.487 0-16.626-3.372-22.628-9.372s-9.372-14.14-9.372-22.628c0-8.487 3.372-16.626 9.372-22.628s14.14-9.372 22.628-9.372h128v-480c0-8.486 3.372-16.627 9.372-22.627s14.14-9.373 22.628-9.373h672c8.486 0 16.627 3.373 22.627 9.373s9.373 14.141 9.373 22.627c0 8.486-3.373 16.627-9.373 22.627s-14.141 9.373-22.627 9.373z" />
<glyph unicode="&#xe93e;" d="M896 672l-64-480-320-160-320 160-64 480 384 160 384-160z" />
<glyph unicode="&#xe93f;" d="M908.32 701.521l-384 160c-3.901 1.644-8.090 2.491-12.32 2.491s-8.419-0.847-12.32-2.491l-384-160c-6.497-2.71-11.918-7.486-15.426-13.59s-4.904-13.193-3.974-20.17l64-480.002c0.688-5.178 2.634-10.109 5.667-14.362s7.061-7.699 11.733-10.038l320-160c4.445-2.224 9.347-3.382 14.32-3.382s9.875 1.158 14.32 3.382l320 160c4.672 2.339 8.701 5.786 11.731 10.038 3.034 4.253 4.979 9.184 5.667 14.362l64 480.002c0.931 6.977-0.467 14.067-3.974 20.17s-8.928 10.88-15.424 13.59zM802.518 213.040l-290.518-145.28-290.52 145.28-58.52 438.961 349.040 145.32 349.040-145.32-58.522-438.961zM484 623.52l-160-288c-2.038-3.677-3.331-7.718-3.808-11.894-0.476-4.179-0.125-8.406 1.034-12.448s3.104-7.814 5.722-11.104c2.618-3.293 5.856-6.035 9.533-8.074 3.677-2.035 7.718-3.331 11.898-3.808 4.176-0.474 8.406-0.122 12.448 1.037s7.814 3.101 11.104 5.718c3.29 2.618 6.032 5.856 8.070 9.533l44 79.52h176l44-79.52c2.038-3.677 4.781-6.915 8.070-9.533s7.062-4.56 11.104-5.718c4.042-1.158 8.272-1.51 12.448-1.037 4.179 0.477 8.221 1.773 11.898 3.808 3.677 2.038 6.915 4.781 9.533 8.074 2.618 3.29 4.56 7.062 5.722 11.104 1.158 4.042 1.51 8.269 1.034 12.448-0.477 4.176-1.77 8.218-3.808 11.894l-160 288c-2.768 5.002-6.822 9.171-11.747 12.077-4.925 2.902-10.538 4.433-16.253 4.433s-11.328-1.53-16.253-4.433c-4.925-2.906-8.979-7.075-11.747-12.077zM564.278 448h-104.56l52.282 94.122 52.278-94.122z" />
<glyph unicode="&#xe940;" d="M783.523 719.52c-53.702 53.706-122.125 90.281-196.614 105.1s-151.699 7.216-221.869-21.848c-70.168-29.063-130.143-78.281-172.338-141.43s-64.717-137.393-64.717-213.341c0-75.949 22.522-150.192 64.717-213.341s102.17-112.368 172.338-141.43c70.17-29.066 147.379-36.669 221.869-21.85s142.912 51.395 196.614 105.101c72.006 72.013 112.461 169.68 112.461 271.52s-40.454 199.507-112.461 271.52zM562.163 307.52l-146.72 26.758-50.16 140.522 96.56 113.638 146.72-26.758 50.16-140.48-96.56-113.68z" />
<glyph unicode="&#xe941;" d="M806.157 742.159c-78.016 78.016-183.827 121.845-294.16 121.845-110.33 0-216.143-43.829-294.16-121.845s-121.845-183.829-121.845-294.159c0-110.333 43.829-216.144 121.845-294.16s183.83-121.846 294.16-121.846c110.333 0 216.144 43.83 294.16 121.846s121.846 183.827 121.846 294.16c0 110.33-43.83 216.143-121.846 294.159zM760.918 696.879c16.406-16.479 31.146-34.54 44-53.92l-134.72-158.959-111.68 312.879c76.672-10.016 147.859-45.186 202.4-100zM622.358 428l-72.64-85.482-110.362 20-37.718 105.482 72.64 85.478 110.358-20 37.722-105.478zM263.077 696.879c60.433 60.763 141.096 97.193 226.641 102.36l70.038-196-326.56 59.48c9.215 12.018 19.196 23.428 29.88 34.16zM186.597 313.84c-18.989 46.371-27.907 96.25-26.162 146.326 1.745 50.080 14.112 99.216 36.282 144.154l204.841-37.402-214.961-253.078zM263.077 199.12c-16.408 16.477-31.147 34.538-44 53.92l134.721 158.96 111.68-312.72c-76.656 9.971-147.838 45.085-202.401 99.84zM760.918 199.12c-60.435-60.765-141.098-97.194-226.64-102.362l-70.042 196 326.56-59.638c-9.219-11.965-19.2-23.322-29.878-34zM622.438 329.078l214.96 253.082c18.989-46.371 27.907-96.25 26.16-146.33-1.744-50.077-14.112-99.213-36.282-144.15l-204.838 37.398z" />
<glyph unicode="&#xe942;" d="M864 268.88c-67.158 46.118-96 123.478-96 211.12 0 73.2 46.72 139.238 96 185.919-45.878 43.44-124 70.080-192 70.080-58.16 0.135-114.618-19.625-160-56-44.435 35.629-99.526 55.344-156.48 56-147.52 2-263.28-121.199-259.52-268.761 1.606-63.258 15.743-125.568 41.594-183.325s62.901-109.814 109.006-153.155c23.767-22.352 55.173-34.787 87.8-34.758h350.8c17.424-0.070 34.675 3.443 50.678 10.323 16.006 6.883 30.426 16.982 42.362 29.677 63.402 68 85.76 132.8 85.76 132.8v0.080z" />
<glyph unicode="&#xe943;" d="M893.2 281.638c-2.4 5.485-6.278 10.195-11.2 13.6-67.878 46.64-82 126.202-82 184.762 0 70.678 53.882 132.24 86 162.68 3.158 2.99 5.677 6.594 7.395 10.589 1.722 3.996 2.608 8.3 2.608 12.651s-0.886 8.655-2.608 12.651c-1.718 3.996-4.237 7.599-7.395 10.589-50.72 47.88-134.72 78.84-214 78.84-56.95-0.051-112.614-16.931-160-48.52-55.274 37.066-121.738 53.712-187.958 47.076s-128.060-36.139-174.882-83.436c-27.99-28.576-49.953-62.486-64.582-99.715s-21.627-77.018-20.578-117.005c1.571-67.494 16.578-133.997 44.147-195.626 27.568-61.626 67.144-117.139 116.413-163.296 29.672-28.032 68.979-43.597 109.802-43.478h350.72c21.821-0.042 43.421 4.4 63.459 13.050 20.035 8.65 38.080 21.322 53.021 37.229 27.67 29.782 51.606 62.826 71.28 98.4 28.080 51.322 24.48 59.322 20.358 68.96zM754.682 157.878c-8.934-9.485-19.722-17.030-31.696-22.173-11.974-5.139-24.877-7.763-37.904-7.706h-350.72c-24.451-0.080-47.994 9.245-65.762 26.038-43.117 40.368-77.758 88.925-101.899 142.832-24.14 53.904-37.297 112.080-38.701 171.13-0.875 31.373 4.571 62.602 16.012 91.827s28.646 55.853 50.588 78.291c20.501 20.946 44.993 37.567 72.028 48.883s56.063 17.096 85.372 16.999h3.12c49.85-0.525 98.070-17.829 136.88-49.12 5.677-4.544 12.73-7.020 20-7.020s14.323 2.476 20 7.020c39.635 31.976 89.075 49.323 140 49.12 50.851-0.59 100.602-14.893 144-41.4-52-58.082-80-121.88-80-182.6 0-95.082 30.56-170.922 88.72-221.2-18.301-36.877-41.898-70.877-70.038-100.922zM512.922 840c8.874 34.372 28.928 64.816 57.002 86.54 28.077 21.725 62.579 33.495 98.077 33.46h4c8.486 0 16.627-3.371 22.627-9.373s9.373-14.14 9.373-22.627c0-8.487-3.373-16.626-9.373-22.628s-14.141-9.372-22.627-9.372h-4c-21.283 0.002-41.965-7.070-58.794-20.103-16.826-13.033-28.845-31.289-34.166-51.897-2.122-8.222-7.424-15.264-14.736-19.577-7.315-4.313-16.042-5.545-24.262-3.423-8.224 2.122-15.264 7.422-19.578 14.736s-5.546 16.042-3.424 24.264h-0.118z" />
<glyph unicode="&#xe944;" d="M416 480c0 18.986 5.629 37.549 16.179 53.334 10.547 15.789 25.542 28.093 43.082 35.357 17.542 7.267 36.845 9.168 55.469 5.466 18.621-3.706 35.728-12.848 49.152-26.275 13.427-13.424 22.57-30.531 26.272-49.152 3.706-18.624 1.805-37.926-5.462-55.469-7.264-17.539-19.571-32.534-35.357-43.082-15.786-10.55-34.349-16.179-53.334-16.179-25.462 0-49.878 10.115-67.882 28.118s-28.118 42.419-28.118 67.882zM574.998 384h-126c-9.789 0.099-19.472-2.042-28.31-6.259-8.835-4.218-16.592-10.397-22.672-18.070-6.083-7.674-10.333-16.634-12.422-26.198-2.086-9.565-1.965-19.482 0.365-28.992l48.762-192c3.626-13.936 11.792-26.269 23.21-35.046 11.414-8.781 25.43-13.507 39.83-13.434h28.48c14.4-0.074 28.416 4.653 39.83 13.434 11.418 8.778 19.584 21.11 23.21 35.046l48.758 192c2.33 9.51 2.454 19.427 0.365 28.992s-6.336 18.525-12.419 26.198c-6.083 7.674-13.837 13.853-22.675 18.070-8.835 4.218-18.518 6.358-28.31 6.259z" />
<glyph unicode="&#xe945;" d="M616.8 406.678c13.45 19.178 21.376 41.68 22.922 65.053s-3.354 46.723-14.163 67.504c-10.81 20.781-27.114 38.195-47.136 50.352s-42.998 18.582-66.422 18.582c-23.424 0-46.4-6.426-66.422-18.582s-36.326-29.571-47.136-50.352c-10.81-20.781-15.709-44.131-14.163-67.504s9.472-45.875 22.922-65.053c-13.712-6.458-25.715-16.048-35.040-28-8.957-11.427-15.168-24.765-18.15-38.976s-2.656-28.918 0.95-42.982l48.72-192c5.344-20.867 17.501-39.354 34.544-52.525 17.043-13.174 37.997-20.282 59.536-20.195h28.48c21.523-0.093 42.464 6.995 59.504 20.147 17.040 13.149 29.21 31.606 34.576 52.451l48.72 192c3.606 14.067 3.933 28.774 0.95 42.986s-9.194 27.546-18.15 38.976c-9.312 11.994-21.315 21.626-35.040 28.118zM512 544c12.659 0 25.030-3.754 35.555-10.787s18.73-17.027 23.574-28.723c4.842-11.693 6.109-24.563 3.642-36.976-2.47-12.416-8.566-23.818-17.517-32.768-8.95-8.954-20.355-15.046-32.768-17.517-12.416-2.47-25.283-1.203-36.979 3.642-11.693 4.845-21.69 13.046-28.72 23.571-7.034 10.525-10.787 22.899-10.787 35.558 0 16.973 6.742 33.251 18.746 45.254 12.003 12 28.282 18.746 45.254 18.746zM607.002 312.358l-48.72-192c-1.862-7.043-6.019-13.264-11.818-17.677-5.795-4.413-12.899-6.765-20.182-6.682h-28.48c-7.286-0.083-14.39 2.269-20.186 6.682-5.798 4.413-9.955 10.634-11.814 17.677l-48.72 192c-1.203 4.621-1.315 9.456-0.33 14.128s3.043 9.050 6.010 12.794c3.117 3.997 7.11 7.222 11.674 9.427 4.566 2.208 9.574 3.331 14.646 3.293h126c5.069 0.038 10.077-1.085 14.643-3.293 4.563-2.205 8.557-5.43 11.677-9.427 2.95-3.75 4.992-8.131 5.965-12.803s0.845-9.504-0.365-14.118zM288 448c-0.045-20.269 2.646-40.451 8-60 2.062-8.106 0.87-16.698-3.322-23.933s-11.051-12.544-19.107-14.787c-8.057-2.243-16.671-1.242-24 2.787s-12.788 10.768-15.211 18.771c-11.891 42.781-13.73 87.731-5.372 131.341 8.358 43.606 26.686 84.694 53.552 120.045 26.866 35.353 61.543 64.014 101.319 83.746 39.779 19.731 83.578 29.998 127.981 29.998s88.205-10.267 127.981-29.998c39.776-19.732 74.454-48.393 101.318-83.746 26.867-35.35 45.194-76.438 53.552-120.045 8.358-43.61 6.522-88.56-5.37-131.341-2.896-7.382-8.429-13.427-15.526-16.963s-15.254-4.31-22.893-2.176c-7.635 2.138-14.208 7.034-18.438 13.741s-5.824 14.746-4.464 22.56c8.454 30.774 10.23 63.002 5.216 94.522s-16.707 61.603-34.294 88.237c-17.587 26.634-40.662 49.2-67.68 66.189-27.018 16.991-57.354 28.011-88.976 32.324-31.626 4.312-63.805 1.817-94.384-7.319-30.582-9.136-58.858-24.701-82.931-45.651-24.077-20.954-43.398-46.806-56.668-75.834-13.271-29.027-20.186-60.554-20.282-92.467zM928 448c0.038-68.394-16.8-135.741-49.024-196.067-32.221-60.33-78.832-111.773-135.696-149.773-7.056-4.723-15.696-6.448-24.022-4.797s-15.658 6.541-20.378 13.597c-4.72 7.053-6.445 15.696-4.797 24.022 1.651 8.326 6.541 15.654 13.597 20.378 62.762 41.971 110.365 103.014 135.779 174.112s27.296 148.483 5.363 220.733c-21.933 72.25-66.515 135.531-127.165 180.502s-134.154 69.25-209.658 69.25c-75.504 0-149.008-24.278-209.657-69.25s-105.232-108.252-127.165-180.502c-21.932-72.25-20.052-149.635 5.363-220.733s73.017-132.141 135.78-174.112c7.056-4.723 11.946-12.051 13.597-20.378 1.648-8.326-0.077-16.97-4.797-24.022-4.72-7.056-12.051-11.946-20.377-13.597s-16.968 0.074-24.023 4.797c-59.73 39.949-108.092 94.691-140.375 158.89s-47.386 135.664-43.837 207.437c3.549 71.77 25.628 141.398 64.087 202.099s91.986 110.404 155.365 144.268c63.381 33.864 134.45 50.732 206.286 48.962s141.99-22.118 203.626-59.061c61.635-36.944 112.65-89.223 148.070-151.744 35.424-62.52 54.048-133.154 54.058-205.010z" />
<glyph unicode="&#xe946;" d="M864 736v-576c0-16.973-6.742-33.251-18.746-45.254s-28.282-18.746-45.254-18.746h-576c-16.974 0-33.252 6.742-45.255 18.746s-18.745 28.282-18.745 45.254v576c0 16.974 6.743 33.252 18.745 45.255s28.281 18.745 45.255 18.745h576c16.973 0 33.251-6.743 45.254-18.745s18.746-28.281 18.746-45.255z" />
<glyph unicode="&#xe947;" d="M888.64 346.96c5.424-6.502 8.048-14.893 7.299-23.328-0.752-8.432-4.813-16.227-11.299-21.674-69.44-57.52-131.44-77.958-188-77.958-74.32 0-139.28 35.238-199.718 68-101.402 54.998-188.961 102.518-316.281-2.96-3.209-2.845-6.957-5.014-11.022-6.384-4.065-1.366-8.363-1.904-12.638-1.578s-8.443 1.507-12.253 3.478c-3.81 1.968-7.186 4.682-9.926 7.978-2.741 3.299-4.79 7.117-6.028 11.222s-1.636 8.419-1.173 12.682c0.462 4.262 1.777 8.39 3.866 12.134 2.089 3.747 4.909 7.034 8.294 9.667 160.68 133.078 281.279 67.68 387.721 9.92 101.398-55.002 188.96-102.48 316.278 2.998 6.522 5.363 14.899 7.933 23.306 7.146s16.163-4.864 21.574-11.344zM180.641 544.8c127.32 105.48 214.879 58 316.281 2.998 60.438-32.8 125.398-68 199.718-68 56.56 0 118.56 20.442 188 77.962 3.386 2.634 6.205 5.92 8.294 9.667 2.090 3.744 3.405 7.872 3.866 12.134 0.464 4.262 0.064 8.576-1.171 12.682-1.238 4.106-3.286 7.923-6.029 11.222-2.739 3.296-6.115 6.010-9.926 7.978s-7.978 3.152-12.253 3.478c-4.275 0.326-8.573-0.211-12.637-1.578-4.067-1.37-7.814-3.539-11.024-6.384-127.318-105.482-214.88-57.962-316.278-2.96-106.442 57.72-227.041 123.16-387.721-9.92-6.009-5.549-9.665-13.19-10.217-21.35s2.042-16.224 7.249-22.531c5.207-6.307 12.632-10.381 20.749-11.386s16.312 1.139 22.899 5.987h0.2z" />
<glyph unicode="&#xe948;" d="M718.56 320h-413.12l206.56 349.52 206.56-349.52z" />
<glyph unicode="&#xe949;" d="M257.36 175.718l-37.8-64c-2.138-3.619-4.968-6.781-8.328-9.309-3.36-2.525-7.185-4.362-11.256-5.411-8.222-2.115-16.947-0.877-24.256 3.44s-12.604 11.363-14.72 19.584c-2.115 8.221-0.878 16.947 3.44 24.256l37.84 64c2.087 3.718 4.895 6.979 8.26 9.597 3.365 2.614 7.218 4.534 11.334 5.642s8.412 1.379 12.636 0.803c4.223-0.576 8.289-1.99 11.958-4.16s6.868-5.050 9.409-8.47c2.541-3.424 4.372-7.318 5.387-11.459s1.192-8.442 0.522-12.65c-0.67-4.208-2.175-8.243-4.425-11.862zM928 352h-191.2l-122.918 208c-2.090 3.715-4.896 6.979-8.262 9.594-3.363 2.618-7.216 4.534-11.334 5.642-4.115 1.107-8.41 1.379-12.634 0.803s-8.288-1.99-11.958-4.157c-3.67-2.17-6.867-5.050-9.408-8.474-2.541-3.421-4.374-7.318-5.389-11.456-1.014-4.141-1.19-8.442-0.522-12.65 0.672-4.211 2.176-8.243 4.426-11.862l245.642-415.722c4.317-7.309 11.36-12.605 19.581-14.72 8.224-2.115 16.947-0.877 24.259 3.44 7.309 4.317 12.602 11.363 14.717 19.584s0.88 16.947-3.44 24.256l-84.918 143.722h153.36c8.486 0 16.627 3.37 22.627 9.373 6 6 9.373 14.138 9.373 22.627 0 8.486-3.373 16.624-9.373 22.627-6 6-14.141 9.373-22.627 9.373zM569.882 352h-208.362l274.038 463.719c4.32 7.309 5.555 16.035 3.44 24.256s-7.408 15.266-14.717 19.584c-7.312 4.318-16.035 5.555-24.259 3.439-8.221-2.115-15.264-7.41-19.581-14.719l-68.442-115.84-68.442 116c-2.138 3.619-4.966 6.782-8.326 9.308s-7.184 4.364-11.254 5.412c-8.224 2.116-16.947 0.878-24.256-3.439-7.312-4.318-12.605-11.362-14.72-19.584s-0.88-16.947 3.44-24.256l86.397-146.2-187.638-317.679h-191.2c-8.487 0-16.626-3.373-22.628-9.373-6.001-6.003-9.372-14.141-9.372-22.627 0-8.49 3.372-16.627 9.372-22.627 6.001-6.003 14.14-9.373 22.628-9.373h473.882c8.486 0 16.624 3.37 22.627 9.373 6 6 9.373 14.138 9.373 22.627 0 8.486-3.373 16.624-9.373 22.627-6.003 6-14.141 9.373-22.627 9.373z" />
<glyph unicode="&#xe94a;" d="M896 736v-576c0-8.486-3.373-16.627-9.373-22.627s-14.141-9.373-22.627-9.373h-704c-8.487 0-16.626 3.373-22.628 9.373s-9.372 14.141-9.372 22.627v576c0 8.487 3.372 16.626 9.372 22.628s14.14 9.372 22.628 9.372h704c8.486 0 16.627-3.372 22.627-9.372s9.373-14.14 9.373-22.628z" />
<glyph unicode="&#xe94b;" d="M864 800h-704c-16.974 0-33.252-6.743-45.255-18.745s-18.745-28.281-18.745-45.255v-576c0-16.973 6.743-33.251 18.745-45.254s28.281-18.746 45.255-18.746h704c16.973 0 33.251 6.742 45.254 18.746s18.746 28.282 18.746 45.254v576c0 16.974-6.742 33.252-18.746 45.255s-28.282 18.745-45.254 18.745zM864 160h-704v576h704v-576zM320 624c0-9.494-2.815-18.774-8.090-26.669-5.274-7.891-12.771-14.045-21.541-17.677-8.771-3.635-18.422-4.586-27.733-2.733s-17.864 6.426-24.577 13.136c-6.713 6.714-11.284 15.267-13.137 24.579-1.852 9.309-0.901 18.96 2.732 27.732s9.785 16.267 17.679 21.541 17.174 8.090 26.668 8.090c12.73 0 24.94-5.057 33.941-14.059s14.059-21.212 14.059-33.941zM480 624c0-9.494-2.816-18.774-8.090-26.669-5.274-7.891-12.771-14.045-21.542-17.677-8.771-3.635-18.422-4.586-27.731-2.733-9.312 1.853-17.866 6.426-24.579 13.136-6.71 6.714-11.283 15.267-13.136 24.579-1.853 9.309-0.902 18.96 2.733 27.732 3.632 8.771 9.786 16.267 17.677 21.541 7.894 5.275 17.174 8.090 26.669 8.090 12.73 0 24.941-5.057 33.942-14.059s14.058-21.212 14.058-33.941z" />
<glyph unicode="&#xe94c;" d="M864 576v-384c0-8.486-3.373-16.627-9.373-22.627s-14.141-9.373-22.627-9.373h-640c-8.487 0-16.626 3.373-22.628 9.373s-9.372 14.141-9.372 22.627v384h704z" />
<glyph unicode="&#xe94d;" d="M896 768h-768c-16.974 0-33.252-6.743-45.255-18.745s-18.745-28.281-18.745-45.255v-96c0-16.973 6.743-33.251 18.745-45.254s28.281-18.746 45.255-18.746v-352c0-16.973 6.743-33.251 18.745-45.254s28.281-18.746 45.255-18.746h640c16.973 0 33.251 6.742 45.254 18.746s18.746 28.282 18.746 45.254v352c16.973 0 33.251 6.742 45.254 18.746s18.746 28.282 18.746 45.254v96c0 16.974-6.742 33.252-18.746 45.255s-28.282 18.745-45.254 18.745zM832 192h-640v352h640v-352zM896 608h-768v96h768v-96zM384 416c0 8.486 3.373 16.627 9.373 22.627s14.141 9.373 22.627 9.373h192c8.486 0 16.627-3.373 22.627-9.373s9.373-14.141 9.373-22.627c0-8.486-3.373-16.627-9.373-22.627s-14.141-9.373-22.627-9.373h-192c-8.486 0-16.627 3.373-22.627 9.373s-9.373 14.141-9.373 22.627z" />
<glyph unicode="&#xe94e;" d="M960 448c0-33.949-13.485-66.506-37.491-90.509-24.003-24.006-56.56-37.491-90.509-37.491v-160c0-8.486-3.373-16.627-9.373-22.627s-14.141-9.373-22.627-9.373h-576c-8.487 0-16.626 3.373-22.628 9.373s-9.372 14.141-9.372 22.627v160c-33.948 0-66.505 13.485-90.51 37.491-24.004 24.003-37.49 56.56-37.49 90.509s13.486 66.506 37.49 90.509c24.005 24.006 56.562 37.491 90.51 37.491v96c0 33.948 13.486 66.505 37.49 90.51s56.562 37.49 90.51 37.49h384c33.949 0 66.506-13.486 90.509-37.49 24.006-24.005 37.491-56.562 37.491-90.51v-96c33.949 0 66.506-13.485 90.509-37.491 24.006-24.003 37.491-56.56 37.491-90.509z" />
<glyph unicode="&#xe94f;" d="M864 604.8v67.2c0 42.435-16.858 83.131-46.864 113.137-30.003 30.006-70.701 46.863-113.136 46.863h-384c-42.434 0-83.131-16.857-113.137-46.863s-46.863-70.702-46.863-113.137v-67.2c-36.169-7.344-68.687-26.966-92.044-55.542-23.357-28.579-36.116-64.349-36.116-101.258s12.76-72.678 36.116-101.258c23.357-28.576 55.875-48.198 92.044-55.542v-131.2c0-16.973 6.743-33.251 18.745-45.254s28.281-18.746 45.255-18.746h576c16.973 0 33.251 6.742 45.254 18.746s18.746 28.282 18.746 45.254v131.2c36.17 7.344 68.688 26.966 92.045 55.542 23.357 28.579 36.115 64.349 36.115 101.258s-12.758 72.678-36.115 101.258c-23.357 28.576-55.875 48.198-92.045 55.542zM320 768h384c25.462 0 49.878-10.114 67.882-28.118s28.118-42.421 28.118-67.882v-67.2c-36.115-7.427-68.566-27.075-91.882-55.638-23.318-28.563-36.074-64.291-36.118-101.162h-320c-0.045 36.87-12.8 72.598-36.117 101.162s-55.767 48.211-91.883 55.638v67.2c0 25.461 10.114 49.879 28.118 67.882s42.421 28.118 67.882 28.118zM833.562 352h-1.562c-8.486 0-16.627-3.373-22.627-9.373s-9.373-14.141-9.373-22.627v-160h-576v160c0 8.486-3.372 16.627-9.373 22.627s-14.14 9.373-22.627 9.373h-1.56c-18.918 0.307-37.323 6.198-52.903 16.931s-27.642 25.834-34.669 43.398c-7.028 17.568-8.708 36.819-4.829 55.338s13.142 35.478 26.628 48.749c13.486 13.267 30.592 22.259 49.171 25.837 18.578 3.581 37.8 1.59 55.251-5.718 17.451-7.312 32.353-19.613 42.835-35.366 10.481-15.75 16.074-34.246 16.077-53.168v-160c0-8.486 3.371-16.627 9.372-22.627s14.14-9.373 22.627-9.373c8.486 0 16.627 3.373 22.627 9.373 6.003 6 9.373 14.141 9.373 22.627v96h320v-96c0-8.486 3.373-16.627 9.373-22.627s14.141-9.373 22.627-9.373c8.486 0 16.627 3.373 22.627 9.373 6.003 6 9.373 14.141 9.373 22.627v160c0.003 18.922 5.597 37.418 16.077 53.168 10.483 15.754 25.382 28.054 42.835 35.366 17.45 7.309 36.672 9.299 55.251 5.718 18.579-3.578 35.683-12.57 49.171-25.837 13.485-13.27 22.749-30.23 26.627-48.749s2.198-37.77-4.829-55.338c-7.027-17.565-19.088-32.666-34.669-43.398s-33.987-16.624-52.902-16.931z" />
<glyph unicode="&#xe950;" d="M352 352h-256v256l256-256z" />
<glyph unicode="&#xe951;" d="M806.16 518.16c-76.87 76.861-180.774 120.576-289.472 121.795s-213.553-40.157-292.128-115.274l-105.92 105.958c-4.476 4.48-10.18 7.533-16.39 8.768-6.211 1.238-12.649 0.604-18.499-1.821-5.85-2.422-10.85-6.528-14.366-11.795s-5.39-11.459-5.385-17.792v-256c0-8.486 3.372-16.627 9.372-22.627s14.14-9.373 22.628-9.373h256c6.333-0.003 12.525 1.869 17.792 5.386s9.373 8.515 11.795 14.365c2.426 5.85 3.059 12.288 1.821 18.499-1.235 6.211-4.288 11.917-8.768 16.39l-104.76 104.72c49.94 47.325 112.654 78.976 180.389 91.043 67.734 12.064 137.52 4.016 200.73-23.152s117.072-72.266 154.928-129.715c37.856-57.45 58.045-124.736 58.074-193.536 0-8.486 3.373-16.627 9.373-22.627s14.141-9.373 22.627-9.373c8.486 0 16.627 3.373 22.627 9.373s9.373 14.141 9.373 22.627c0.147 54.653-10.544 108.79-31.459 159.283-20.912 50.493-51.632 96.336-90.381 134.877zM128 384v146.762l146.76-146.762h-146.76z" />
<glyph unicode="&#xe952;" d="M928 608v-256h-256l256 256z" />
<glyph unicode="&#xe953;" d="M940.24 637.562c-5.846 2.426-12.282 3.061-18.49 1.83s-11.914-4.278-16.39-8.752l-105.92-105.958c-58.896 56.294-133.027 94.054-213.194 108.595-80.163 14.542-162.835 5.222-237.75-26.8-74.918-32.022-138.782-85.338-183.669-153.331s-68.819-147.67-68.827-229.146c0-8.486 3.372-16.627 9.372-22.627s14.14-9.373 22.628-9.373c8.487 0 16.626 3.373 22.628 9.373s9.372 14.141 9.372 22.627c0.028 68.8 20.218 136.086 58.074 193.536s91.718 102.547 154.928 129.715c63.21 27.168 132.995 35.216 200.73 23.152 67.734-12.067 130.448-43.718 180.387-91.043l-104.758-104.72c-4.48-4.474-7.533-10.179-8.768-16.39-1.238-6.211-0.605-12.65 1.821-18.499 2.422-5.85 6.528-10.848 11.795-14.365s11.459-5.389 17.792-5.386h256c8.486 0 16.627 3.373 22.627 9.373s9.373 14.141 9.373 22.627v256c0 6.33-1.878 12.515-5.395 17.776-3.52 5.264-8.518 9.363-14.365 11.786zM896 384h-146.762l146.762 146.762v-146.762z" />
<glyph unicode="&#xe954;" d="M512 736v-384l-192 192 192 192z" />
<glyph unicode="&#xe955;" d="M342.64 374.64c6.003-6.003 9.376-14.147 9.376-22.64s-3.373-16.637-9.376-22.64c-6.003-6.003-14.147-9.379-22.64-9.379s-16.636 3.376-22.64 9.379l-192 192c-2.975 2.973-5.335 6.502-6.946 10.387s-2.439 8.048-2.439 12.253c0 4.205 0.829 8.368 2.439 12.253s3.971 7.414 6.946 10.387l192 192c6.004 6.004 14.148 9.378 22.64 9.378 8.493 0 16.637-3.373 22.64-9.378s9.376-14.148 9.376-22.64c0-8.492-3.373-16.636-9.376-22.64l-169.4-169.36 169.4-169.36zM928 160c0-8.486-3.373-16.627-9.373-22.627s-14.141-9.373-22.627-9.373c-8.486 0-16.627 3.373-22.627 9.373-6.003 6-9.373 14.141-9.373 22.627-0.106 87.782-32.966 172.368-92.154 237.2-59.187 64.829-140.435 105.242-227.846 113.322v-158.522c0.003-6.333-1.869-12.525-5.386-17.792s-8.515-9.373-14.365-11.795c-5.85-2.426-12.288-3.059-18.499-1.821-6.211 1.235-11.917 4.288-16.39 8.768l-192 192c-2.975 2.973-5.335 6.502-6.946 10.387s-2.439 8.048-2.439 12.253c0 4.205 0.829 8.368 2.439 12.253s3.971 7.414 6.946 10.387l192 192c4.474 4.48 10.179 7.532 16.39 8.769s12.65 0.603 18.499-1.821c5.85-2.424 10.848-6.53 14.365-11.796s5.389-11.459 5.386-17.791v-161.2c104.435-8.198 201.949-55.437 273.11-132.31 71.165-76.874 110.758-177.734 110.89-282.49zM480 658.76l-114.762-114.76 114.762-114.758v229.519z" />
<glyph unicode="&#xe956;" d="M704 544l-192-192v384l192-192z" />
<glyph unicode="&#xe957;" d="M918.64 521.36l-192-192c-6.003-6.003-14.147-9.379-22.64-9.379s-16.637 3.376-22.64 9.379c-6.003 6.003-9.379 14.147-9.379 22.64s3.376 16.637 9.379 22.64l169.402 169.36-169.402 169.36c-2.973 2.973-5.331 6.503-6.941 10.387s-2.438 8.048-2.438 12.253c0 4.204 0.829 8.368 2.438 12.252s3.968 7.414 6.941 10.388c6.003 6.004 14.147 9.378 22.64 9.378 4.205 0 8.368-0.828 12.253-2.437s7.414-3.967 10.387-6.94l192-192c2.976-2.973 5.334-6.502 6.947-10.387 1.61-3.885 2.438-8.048 2.438-12.253s-0.829-8.368-2.438-12.253c-1.613-3.885-3.971-7.414-6.947-10.387zM726.64 521.36l-192-192c-4.477-4.48-10.179-7.533-16.39-8.768-6.211-1.238-12.65-0.605-18.499 1.821-5.85 2.422-10.848 6.528-14.365 11.795s-5.392 11.459-5.386 17.792v158.522c-87.411-8.080-168.661-48.493-227.847-113.322-59.186-64.832-92.048-149.418-92.153-237.2 0-8.486-3.372-16.627-9.372-22.627s-14.14-9.373-22.628-9.373c-8.487 0-16.626 3.373-22.628 9.373s-9.372 14.141-9.372 22.627c0.132 104.755 39.723 205.616 110.888 282.49s168.677 124.112 273.112 132.31v161.2c-0.006 6.332 1.869 12.524 5.386 17.791s8.515 9.372 14.365 11.796c5.85 2.424 12.288 3.058 18.499 1.821s11.914-4.289 16.39-8.769l192-192c2.976-2.973 5.334-6.502 6.947-10.387 1.61-3.885 2.438-8.048 2.438-12.253s-0.829-8.368-2.438-12.253c-1.613-3.885-3.971-7.414-6.947-10.387zM658.64 544l-114.64 114.76v-229.519l114.64 114.758z" />
<glyph unicode="&#xe958;" d="M320 544v-384l-192 192 192 192z" />
<glyph unicode="&#xe959;" d="M896 768c-8.486 0-16.627-3.372-22.627-9.372-6.003-6.001-9.373-14.14-9.373-22.628-0.106-93.324-37.226-182.794-103.216-248.784s-155.459-103.11-248.784-103.216h-160v160c0.003 6.333-1.869 12.525-5.386 17.792s-8.515 9.373-14.365 11.795c-5.85 2.426-12.289 3.059-18.5 1.821-6.211-1.235-11.915-4.288-16.39-8.768l-192-192c-2.975-2.973-5.335-6.502-6.946-10.387s-2.439-8.048-2.439-12.253c0-4.205 0.829-8.368 2.439-12.253s3.971-7.414 6.946-10.387l192-192c4.476-4.48 10.18-7.533 16.39-8.768 6.211-1.238 12.65-0.605 18.5 1.821 5.85 2.422 10.848 6.528 14.365 11.795s5.389 11.459 5.386 17.792v160h160c110.294 0.115 216.038 43.981 294.029 121.971 77.987 77.99 121.856 183.734 121.971 294.029 0 8.487-3.373 16.626-9.373 22.628s-14.141 9.372-22.627 9.372zM288 237.238l-114.76 114.762 114.76 114.762v-229.523z" />
<glyph unicode="&#xe95a;" d="M896 352l-192-192v384l192-192z" />
<glyph unicode="&#xe95b;" d="M918.64 374.64l-192 192c-4.477 4.48-10.179 7.533-16.39 8.768-6.211 1.238-12.65 0.605-18.499-1.821-5.85-2.422-10.848-6.528-14.365-11.795s-5.392-11.459-5.386-17.792v-160h-160c-93.325 0.106-182.794 37.226-248.785 103.216s-103.109 155.46-103.215 248.784c0 8.487-3.372 16.626-9.372 22.628s-14.14 9.372-22.628 9.372c-8.487 0-16.626-3.372-22.628-9.372s-9.372-14.14-9.372-22.628c0.116-110.294 43.982-216.038 121.972-294.029s183.733-121.856 294.028-121.971h160v-160c-0.006-6.333 1.869-12.525 5.386-17.792s8.515-9.373 14.365-11.795c5.85-2.426 12.288-3.059 18.499-1.821 6.211 1.235 11.914 4.288 16.39 8.768l192 192c2.976 2.973 5.334 6.502 6.947 10.387 1.61 3.885 2.438 8.048 2.438 12.253s-0.829 8.368-2.438 12.253c-1.613 3.885-3.971 7.414-6.947 10.387zM736 237.238v229.523l114.762-114.762-114.762-114.762z" />
<glyph unicode="&#xe95c;" d="M608 256l-192-192-192 192h384z" />
<glyph unicode="&#xe95d;" d="M800 864c-110.294-0.116-216.038-43.982-294.029-121.972s-121.856-183.733-121.971-294.028v-160h-160c-6.332 0.006-12.524-1.869-17.791-5.386s-9.372-8.515-11.796-14.365c-2.424-5.85-3.058-12.288-1.821-18.499s4.289-11.914 8.769-16.39l192-192c2.973-2.976 6.502-5.334 10.387-6.947 3.885-1.61 8.048-2.438 12.253-2.438s8.368 0.829 12.253 2.438c3.885 1.613 7.414 3.971 10.387 6.947l192 192c4.48 4.477 7.533 10.179 8.768 16.39 1.238 6.211 0.605 12.65-1.821 18.499-2.422 5.85-6.528 10.848-11.795 14.365s-11.459 5.392-17.792 5.386h-160v160c0.106 93.325 37.226 182.794 103.216 248.785s155.459 103.109 248.784 103.215c8.486 0 16.627 3.372 22.627 9.372s9.373 14.14 9.373 22.628c0 8.487-3.373 16.626-9.373 22.628s-14.141 9.372-22.627 9.372zM416 109.238l-114.76 114.762h229.519l-114.758-114.762z" />
<glyph unicode="&#xe95e;" d="M608 640h-384l192 192 192-192z" />
<glyph unicode="&#xe95f;" d="M800 96c-93.325 0.106-182.794 37.226-248.784 103.216s-103.11 155.459-103.216 248.784v160h160c6.333-0.003 12.525 1.869 17.792 5.386s9.373 8.515 11.795 14.365c2.426 5.85 3.059 12.289 1.821 18.5-1.235 6.211-4.288 11.915-8.768 16.39l-192 192c-2.973 2.975-6.502 5.335-10.387 6.946s-8.048 2.439-12.253 2.439c-4.205 0-8.368-0.829-12.253-2.439s-7.414-3.971-10.387-6.946l-192-192c-4.48-4.476-7.532-10.18-8.769-16.39s-0.603-12.65 1.821-18.5c2.424-5.85 6.53-10.848 11.796-14.365s11.459-5.389 17.791-5.386h160v-160c0.115-110.294 43.981-216.038 121.971-294.029 77.99-77.987 183.734-121.856 294.029-121.971 8.486 0 16.627 3.373 22.627 9.373s9.373 14.141 9.373 22.627c0 8.486-3.373 16.627-9.373 22.627-6 6.003-14.141 9.373-22.627 9.373zM416 786.76l114.758-114.76h-229.519l114.76 114.76z" />
<glyph unicode="&#xe960;" d="M800 256l-192-192-192 192h384z" />
<glyph unicode="&#xe961;" d="M829.558 268.24c-2.419 5.846-6.518 10.845-11.782 14.365-5.261 3.517-11.446 5.395-17.776 5.395h-160v160c-0.115 110.294-43.981 216.038-121.971 294.028s-183.734 121.856-294.029 121.972c-8.487 0-16.626-3.372-22.628-9.372s-9.372-14.14-9.372-22.628c0-8.487 3.372-16.626 9.372-22.628s14.14-9.372 22.628-9.372c93.324-0.106 182.794-37.226 248.784-103.215 65.99-65.991 103.11-155.46 103.216-248.785v-160h-160c-6.333 0.006-12.525-1.869-17.792-5.386s-9.373-8.515-11.795-14.365c-2.426-5.85-3.059-12.288-1.821-18.499 1.235-6.211 4.288-11.914 8.768-16.39l192-192c2.973-2.976 6.502-5.334 10.387-6.947 3.885-1.61 8.048-2.438 12.253-2.438s8.368 0.829 12.253 2.438c3.885 1.613 7.414 3.971 10.387 6.947l192 192c4.474 4.477 7.52 10.182 8.752 16.39s0.592 12.643-1.834 18.49zM608 109.238l-114.762 114.762h229.523l-114.762-114.762z" />
<glyph unicode="&#xe962;" d="M800 640h-384l192 192 192-192z" />
<glyph unicode="&#xe963;" d="M822.64 662.64l-192 192c-2.973 2.975-6.502 5.335-10.387 6.946s-8.048 2.439-12.253 2.439c-4.205 0-8.368-0.829-12.253-2.439s-7.414-3.971-10.387-6.946l-192-192c-4.48-4.476-7.533-10.18-8.768-16.39-1.238-6.211-0.605-12.65 1.821-18.5 2.422-5.85 6.528-10.848 11.795-14.365s11.459-5.389 17.792-5.386h160v-160c-0.106-93.325-37.226-182.794-103.216-248.784s-155.46-103.11-248.784-103.216c-8.487 0-16.626-3.37-22.628-9.373-6.001-6-9.372-14.141-9.372-22.627s3.372-16.627 9.372-22.627c6.001-6 14.14-9.373 22.628-9.373 110.294 0.115 216.038 43.984 294.029 121.971 77.99 77.99 121.856 183.734 121.971 294.029v160h160c6.333-0.003 12.525 1.869 17.792 5.386s9.373 8.515 11.795 14.365c2.426 5.85 3.059 12.289 1.821 18.5-1.235 6.211-4.288 11.915-8.768 16.39zM493.238 672l114.762 114.76 114.762-114.76h-229.523z" />
<glyph unicode="&#xe964;" d="M320 736v-384l-192 192 192 192z" />
<glyph unicode="&#xe965;" d="M512 576h-160v160c0.003 6.332-1.869 12.524-5.386 17.791s-8.515 9.372-14.365 11.796c-5.85 2.424-12.289 3.058-18.5 1.821s-11.915-4.289-16.39-8.769l-192-192c-2.975-2.973-5.335-6.502-6.946-10.387s-2.439-8.048-2.439-12.253c0-4.205 0.829-8.368 2.439-12.253s3.971-7.414 6.946-10.387l192-192c4.476-4.48 10.18-7.533 16.39-8.768 6.211-1.238 12.65-0.605 18.5 1.821 5.85 2.422 10.848 6.528 14.365 11.795s5.389 11.459 5.386 17.792v160h160c93.325-0.106 182.794-37.226 248.784-103.216s103.11-155.459 103.216-248.784c0-8.486 3.37-16.627 9.373-22.627 6-6 14.141-9.373 22.627-9.373s16.627 3.373 22.627 9.373c6 6 9.373 14.141 9.373 22.627-0.115 110.294-43.984 216.038-121.971 294.029-77.99 77.99-183.734 121.856-294.029 121.971zM288 429.242l-114.76 114.758 114.76 114.76v-229.519z" />
<glyph unicode="&#xe966;" d="M896 544l-192-192v384l192-192z" />
<glyph unicode="&#xe967;" d="M918.64 566.64l-192 192c-4.477 4.48-10.179 7.532-16.39 8.769s-12.65 0.603-18.499-1.821c-5.85-2.424-10.848-6.53-14.365-11.796s-5.392-11.459-5.386-17.791v-160h-160c-110.294-0.115-216.038-43.981-294.028-121.971s-121.856-183.734-121.972-294.029c0-8.486 3.372-16.627 9.372-22.627s14.14-9.373 22.628-9.373c8.487 0 16.626 3.373 22.628 9.373s9.372 14.141 9.372 22.627c0.106 93.325 37.226 182.794 103.215 248.784 65.991 65.99 155.46 103.11 248.785 103.216h160v-160c-0.006-6.333 1.869-12.525 5.386-17.792s8.515-9.373 14.365-11.795c5.85-2.426 12.288-3.059 18.499-1.821 6.211 1.235 11.914 4.288 16.39 8.768l192 192c2.976 2.973 5.334 6.502 6.947 10.387 1.61 3.885 2.438 8.048 2.438 12.253s-0.829 8.368-2.438 12.253c-1.613 3.885-3.971 7.414-6.947 10.387zM736 429.242v229.519l114.762-114.76-114.762-114.758z" />
<glyph unicode="&#xe968;" d="M896 448c0-75.949-22.522-150.192-64.717-213.338-42.192-63.149-102.166-112.368-172.333-141.434-70.166-29.062-147.376-36.666-221.866-21.85-74.486 14.816-142.91 51.389-196.614 105.091s-90.276 122.125-105.092 196.614c-14.817 74.49-7.212 151.699 21.852 221.866s78.282 130.14 141.431 172.334c63.15 42.194 137.39 64.716 213.339 64.716 101.843 0 199.514-40.457 271.53-112.471 72.013-72.014 112.47-169.686 112.47-271.529z" />
<glyph unicode="&#xe969;" d="M512 864c-82.278 0-162.707-24.398-231.117-70.109s-121.731-110.681-153.217-186.694c-31.486-76.016-39.724-159.658-23.673-240.355 16.052-80.694 55.671-154.819 113.85-212.998s132.303-97.798 212.998-113.85c80.698-16.051 164.342-7.814 240.355 23.674 76.013 31.485 140.986 84.803 186.694 153.216 45.712 68.41 70.109 148.838 70.109 231.117-0.115 110.294-43.981 216.038-121.971 294.028s-183.734 121.856-294.029 121.972zM512 96c-69.619 0-137.674 20.643-195.561 59.322s-103.003 93.654-129.645 157.974c-26.642 64.32-33.613 135.094-20.031 203.376s47.107 131.002 96.335 180.229c49.228 49.228 111.948 82.753 180.229 96.335s139.056 6.611 203.376-20.031c64.32-26.642 119.296-71.759 157.974-129.645s59.322-125.941 59.322-195.561c-0.106-93.325-37.226-182.794-103.216-248.784s-155.459-103.11-248.784-103.216zM662.64 438.64c2.976-2.973 5.334-6.502 6.947-10.387 1.61-3.885 2.438-8.048 2.438-12.253s-0.829-8.368-2.438-12.253c-1.613-3.885-3.971-7.414-6.947-10.387l-128-128c-2.973-2.976-6.502-5.334-10.387-6.947-3.885-1.61-8.048-2.438-12.253-2.438s-8.368 0.829-12.253 2.438c-3.885 1.613-7.414 3.971-10.387 6.947l-128 128c-6.003 6.003-9.379 14.147-9.379 22.64s3.376 16.637 9.379 22.64c6.003 6.003 14.147 9.379 22.64 9.379s16.637-3.376 22.64-9.379l73.36-73.402v242.762c0 8.486 3.373 16.627 9.373 22.627s14.141 9.373 22.627 9.373c8.486 0 16.627-3.373 22.627-9.373s9.373-14.141 9.373-22.627v-242.762l73.36 73.402c2.973 2.976 6.502 5.334 10.387 6.947 3.885 1.61 8.048 2.438 12.253 2.438s8.368-0.829 12.253-2.438c3.885-1.613 7.414-3.971 10.387-6.947z" />
<glyph unicode="&#xe96a;" d="M896 448c0-75.949-22.522-150.192-64.717-213.338-42.192-63.149-102.166-112.368-172.333-141.434-70.166-29.062-147.376-36.666-221.866-21.85-74.486 14.816-142.91 51.389-196.614 105.091s-90.276 122.125-105.092 196.614c-14.817 74.49-7.212 151.699 21.852 221.866s78.282 130.14 141.431 172.334c63.15 42.194 137.39 64.716 213.339 64.716 101.843 0 199.514-40.457 271.53-112.471 72.013-72.014 112.47-169.686 112.47-271.529z" />
<glyph unicode="&#xe96b;" d="M512 864c-82.278 0-162.707-24.398-231.117-70.109s-121.731-110.681-153.217-186.694c-31.486-76.016-39.724-159.658-23.673-240.355 16.052-80.694 55.671-154.819 113.85-212.998s132.303-97.798 212.998-113.85c80.698-16.051 164.342-7.814 240.355 23.674 76.013 31.485 140.986 84.803 186.694 153.216 45.712 68.41 70.109 148.838 70.109 231.117-0.115 110.294-43.981 216.038-121.971 294.028s-183.734 121.856-294.029 121.972zM512 96c-69.619 0-137.674 20.643-195.561 59.322s-103.003 93.654-129.645 157.974c-26.642 64.32-33.613 135.094-20.031 203.376s47.107 131.002 96.335 180.229c49.228 49.228 111.948 82.753 180.229 96.335s139.056 6.611 203.376-20.031c64.32-26.642 119.296-71.759 157.974-129.645s59.322-125.941 59.322-195.561c-0.106-93.325-37.226-182.794-103.216-248.784s-155.459-103.11-248.784-103.216zM662.64 598.64c2.976-2.973 5.334-6.502 6.947-10.387 1.61-3.885 2.438-8.048 2.438-12.253s-0.829-8.368-2.438-12.253c-1.613-3.885-3.971-7.414-6.947-10.387l-201.398-201.36h114.758c8.486 0 16.627-3.373 22.627-9.373s9.373-14.141 9.373-22.627c0-8.486-3.373-16.627-9.373-22.627s-14.141-9.373-22.627-9.373h-192c-8.486 0-16.627 3.373-22.627 9.373s-9.373 14.141-9.373 22.627v192c0 8.486 3.373 16.627 9.373 22.627s14.141 9.373 22.627 9.373c8.486 0 16.627-3.373 22.627-9.373s9.373-14.141 9.373-22.627v-114.762l201.36 201.402c2.973 2.976 6.502 5.334 10.387 6.947 3.885 1.61 8.048 2.438 12.253 2.438s8.368-0.829 12.253-2.438c3.885-1.613 7.414-3.971 10.387-6.947z" />
<glyph unicode="&#xe96c;" d="M896 448c0-75.949-22.522-150.192-64.717-213.338-42.192-63.149-102.166-112.368-172.333-141.434-70.166-29.062-147.376-36.666-221.866-21.85-74.486 14.816-142.91 51.389-196.614 105.091s-90.276 122.125-105.092 196.614c-14.817 74.49-7.212 151.699 21.852 221.866s78.282 130.14 141.431 172.334c63.15 42.194 137.39 64.716 213.339 64.716 101.843 0 199.514-40.457 271.53-112.471 72.013-72.014 112.47-169.686 112.47-271.529z" />
<glyph unicode="&#xe96d;" d="M512 864c-82.278 0-162.707-24.398-231.117-70.109s-121.731-110.681-153.217-186.694c-31.486-76.016-39.724-159.658-23.673-240.355 16.052-80.694 55.671-154.819 113.85-212.998s132.303-97.798 212.998-113.85c80.698-16.051 164.342-7.814 240.355 23.674 76.013 31.485 140.986 84.803 186.694 153.216 45.712 68.41 70.109 148.838 70.109 231.117-0.115 110.294-43.981 216.038-121.971 294.028s-183.734 121.856-294.029 121.972zM512 96c-69.619 0-137.674 20.643-195.561 59.322s-103.003 93.654-129.645 157.974c-26.642 64.32-33.613 135.094-20.031 203.376s47.107 131.002 96.335 180.229c49.228 49.228 111.948 82.753 180.229 96.335s139.056 6.611 203.376-20.031c64.32-26.642 119.296-71.759 157.974-129.645s59.322-125.941 59.322-195.561c-0.106-93.325-37.226-182.794-103.216-248.784s-155.459-103.11-248.784-103.216zM672 512v-192c0-8.486-3.373-16.627-9.373-22.627s-14.141-9.373-22.627-9.373h-192c-8.486 0-16.627 3.373-22.627 9.373s-9.373 14.141-9.373 22.627c0 8.486 3.373 16.627 9.373 22.627s14.141 9.373 22.627 9.373h114.762l-201.402 201.36c-6.003 6.003-9.379 14.147-9.379 22.64s3.376 16.637 9.379 22.64c6.003 6.003 14.147 9.379 22.64 9.379s16.637-3.376 22.64-9.379l201.36-201.402v114.762c0 8.486 3.373 16.627 9.373 22.627s14.141 9.373 22.627 9.373c8.486 0 16.627-3.373 22.627-9.373s9.373-14.141 9.373-22.627z" />
<glyph unicode="&#xe96e;" d="M896 448c0-75.949-22.522-150.192-64.717-213.338-42.192-63.149-102.166-112.368-172.333-141.434-70.166-29.062-147.376-36.666-221.866-21.85-74.486 14.816-142.91 51.389-196.614 105.091s-90.276 122.125-105.092 196.614c-14.817 74.49-7.212 151.699 21.852 221.866s78.282 130.14 141.431 172.334c63.15 42.194 137.39 64.716 213.339 64.716 101.843 0 199.514-40.457 271.53-112.471 72.013-72.014 112.47-169.686 112.47-271.529z" />
<glyph unicode="&#xe96f;" d="M512 864c-82.278 0-162.707-24.398-231.117-70.109s-121.731-110.681-153.217-186.694c-31.486-76.016-39.724-159.658-23.673-240.355 16.052-80.694 55.671-154.819 113.85-212.998s132.303-97.798 212.998-113.85c80.698-16.051 164.342-7.814 240.355 23.674 76.013 31.485 140.986 84.803 186.694 153.216 45.712 68.41 70.109 148.838 70.109 231.117-0.115 110.294-43.981 216.038-121.971 294.028s-183.734 121.856-294.029 121.972zM512 96c-69.619 0-137.674 20.643-195.561 59.322s-103.003 93.654-129.645 157.974c-26.642 64.32-33.613 135.094-20.031 203.376s47.107 131.002 96.335 180.229c49.228 49.228 111.948 82.753 180.229 96.335s139.056 6.611 203.376-20.031c64.32-26.642 119.296-71.759 157.974-129.645s59.322-125.941 59.322-195.561c-0.106-93.325-37.226-182.794-103.216-248.784s-155.459-103.11-248.784-103.216zM704 448c0-8.486-3.373-16.627-9.373-22.627s-14.141-9.373-22.627-9.373h-242.758l73.398-73.36c2.973-2.973 5.331-6.502 6.941-10.387s2.438-8.048 2.438-12.253c0-4.205-0.829-8.368-2.438-12.253s-3.968-7.414-6.941-10.387c-2.973-2.973-6.502-5.331-10.387-6.941s-8.048-2.438-12.253-2.438c-4.205 0-8.368 0.829-12.253 2.438s-7.414 3.968-10.387 6.941l-128 128c-2.976 2.973-5.334 6.502-6.947 10.387-1.61 3.885-2.438 8.048-2.438 12.253s0.828 8.368 2.438 12.253c1.613 3.885 3.971 7.414 6.947 10.387l128 128c6.003 6.003 14.147 9.379 22.64 9.379s16.637-3.376 22.64-9.379c6.003-6.003 9.379-14.147 9.379-22.64s-3.376-16.637-9.379-22.64l-73.398-73.36h242.758c8.486 0 16.627-3.373 22.627-9.373s9.373-14.141 9.373-22.627z" />
<glyph unicode="&#xe970;" d="M896 448c0-75.949-22.522-150.192-64.717-213.338-42.192-63.149-102.166-112.368-172.333-141.434-70.166-29.062-147.376-36.666-221.866-21.85s-142.91 51.389-196.614 105.091c-53.703 53.702-90.276 122.125-105.093 196.614s-7.212 151.699 21.852 221.866c29.064 70.167 78.283 130.14 141.431 172.334 63.147 42.194 137.39 64.716 213.339 64.716 101.843 0 199.514-40.457 271.53-112.471 72.013-72.014 112.47-169.686 112.47-271.529z" />
<glyph unicode="&#xe971;" d="M512 864c-82.278 0-162.707-24.398-231.117-70.109s-121.731-110.681-153.217-186.694c-31.486-76.016-39.724-159.658-23.673-240.355 16.052-80.694 55.672-154.819 113.85-212.998s132.304-97.798 212.998-113.85c80.698-16.051 164.339-7.814 240.355 23.674 76.013 31.485 140.982 84.803 186.694 153.216 45.712 68.41 70.109 148.838 70.109 231.117-0.115 110.294-43.984 216.038-121.971 294.028-77.99 77.99-183.734 121.856-294.029 121.972zM512 96c-69.619 0-137.674 20.643-195.561 59.322s-103.003 93.654-129.645 157.974c-26.642 64.32-33.613 135.094-20.031 203.376s47.107 131.002 96.335 180.229c49.228 49.228 111.948 82.753 180.23 96.335s139.056 6.611 203.376-20.031c64.32-26.642 119.296-71.759 157.974-129.645s59.322-125.941 59.322-195.561c-0.106-93.325-37.226-182.794-103.216-248.784s-155.459-103.11-248.784-103.216zM694.64 470.64c2.976-2.973 5.334-6.502 6.947-10.387 1.61-3.885 2.438-8.048 2.438-12.253s-0.829-8.368-2.438-12.253c-1.613-3.885-3.971-7.414-6.947-10.387l-128-128c-6.003-6.003-14.147-9.379-22.64-9.379s-16.637 3.376-22.64 9.379c-6.003 6.003-9.379 14.147-9.379 22.64s3.376 16.637 9.379 22.64l73.398 73.36h-242.758c-8.486 0-16.627 3.373-22.627 9.373s-9.373 14.141-9.373 22.627c0 8.486 3.373 16.627 9.373 22.627s14.141 9.373 22.627 9.373h242.758l-73.398 73.36c-6.003 6.003-9.379 14.147-9.379 22.64s3.376 16.637 9.379 22.64c6.003 6.003 14.147 9.379 22.64 9.379s16.637-3.376 22.64-9.379l128-128z" />
<glyph unicode="&#xe972;" d="M896 448c0-75.949-22.522-150.192-64.717-213.338-42.192-63.149-102.166-112.368-172.333-141.434-70.166-29.062-147.376-36.666-221.866-21.85-74.486 14.816-142.91 51.389-196.614 105.091s-90.276 122.125-105.092 196.614c-14.817 74.49-7.212 151.699 21.852 221.866s78.282 130.14 141.431 172.334c63.15 42.194 137.39 64.716 213.339 64.716 101.843 0 199.514-40.457 271.53-112.471 72.013-72.014 112.47-169.686 112.47-271.529z" />
<glyph unicode="&#xe973;" d="M512 864c-82.278 0-162.707-24.398-231.117-70.109s-121.731-110.681-153.217-186.694c-31.486-76.016-39.724-159.658-23.673-240.355 16.052-80.694 55.671-154.819 113.85-212.998s132.303-97.798 212.998-113.85c80.698-16.051 164.342-7.814 240.355 23.674 76.013 31.485 140.986 84.803 186.694 153.216 45.712 68.41 70.109 148.838 70.109 231.117-0.115 110.294-43.981 216.038-121.971 294.028s-183.734 121.856-294.029 121.972zM512 96c-69.619 0-137.674 20.643-195.561 59.322s-103.003 93.654-129.645 157.974c-26.642 64.32-33.613 135.094-20.031 203.376s47.107 131.002 96.335 180.229c49.228 49.228 111.948 82.753 180.229 96.335s139.056 6.611 203.376-20.031c64.32-26.642 119.296-71.759 157.974-129.645s59.322-125.941 59.322-195.561c-0.106-93.325-37.226-182.794-103.216-248.784s-155.459-103.11-248.784-103.216zM662.64 502.64c2.973-2.973 5.331-6.502 6.941-10.387s2.438-8.048 2.438-12.253c0-4.205-0.829-8.368-2.438-12.253s-3.968-7.414-6.941-10.387c-2.973-2.973-6.502-5.331-10.387-6.941s-8.048-2.438-12.253-2.438c-4.205 0-8.368 0.829-12.253 2.438s-7.414 3.968-10.387 6.941l-73.36 73.402v-242.762c0-8.486-3.373-16.627-9.373-22.627s-14.141-9.373-22.627-9.373c-8.486 0-16.627 3.373-22.627 9.373s-9.373 14.141-9.373 22.627v242.762l-73.36-73.402c-6.003-6.003-14.147-9.379-22.64-9.379s-16.637 3.376-22.64 9.379c-6.003 6.003-9.379 14.147-9.379 22.64s3.376 16.637 9.379 22.64l128 128c2.973 2.976 6.502 5.334 10.387 6.947 3.885 1.61 8.048 2.438 12.253 2.438s8.368-0.828 12.253-2.438c3.885-1.613 7.414-3.971 10.387-6.947l128-128z" />
<glyph unicode="&#xe974;" d="M896 448c0-75.949-22.522-150.192-64.717-213.338-42.192-63.149-102.166-112.368-172.333-141.434-70.166-29.062-147.376-36.666-221.866-21.85-74.486 14.816-142.91 51.389-196.614 105.091s-90.276 122.125-105.092 196.614c-14.817 74.49-7.212 151.699 21.852 221.866s78.282 130.14 141.431 172.334c63.15 42.194 137.39 64.716 213.339 64.716 101.843 0 199.514-40.457 271.53-112.471 72.013-72.014 112.47-169.686 112.47-271.529z" />
<glyph unicode="&#xe975;" d="M512 864c-82.278 0-162.707-24.398-231.117-70.109s-121.731-110.681-153.217-186.694c-31.486-76.016-39.724-159.658-23.673-240.355 16.052-80.694 55.671-154.819 113.85-212.998s132.303-97.798 212.998-113.85c80.698-16.051 164.342-7.814 240.355 23.674 76.013 31.485 140.986 84.803 186.694 153.216 45.712 68.41 70.109 148.838 70.109 231.117-0.115 110.294-43.981 216.038-121.971 294.028s-183.734 121.856-294.029 121.972zM512 96c-69.619 0-137.674 20.643-195.561 59.322s-103.003 93.654-129.645 157.974c-26.642 64.32-33.613 135.094-20.031 203.376s47.107 131.002 96.335 180.229c49.228 49.228 111.948 82.753 180.229 96.335s139.056 6.611 203.376-20.031c64.32-26.642 119.296-71.759 157.974-129.645s59.322-125.941 59.322-195.561c-0.106-93.325-37.226-182.794-103.216-248.784s-155.459-103.11-248.784-103.216zM662.64 342.64c2.973-2.973 5.331-6.502 6.941-10.387s2.438-8.048 2.438-12.253c0-4.205-0.829-8.368-2.438-12.253s-3.968-7.414-6.941-10.387c-2.973-2.973-6.502-5.331-10.387-6.941s-8.048-2.438-12.253-2.438c-4.205 0-8.368 0.829-12.253 2.438s-7.414 3.968-10.387 6.941l-201.36 201.402v-114.762c0-8.486-3.373-16.627-9.373-22.627s-14.141-9.373-22.627-9.373c-8.486 0-16.627 3.373-22.627 9.373s-9.373 14.141-9.373 22.627v192c0 8.486 3.373 16.627 9.373 22.627s14.141 9.373 22.627 9.373h192c8.486 0 16.627-3.373 22.627-9.373s9.373-14.141 9.373-22.627c0-8.486-3.373-16.627-9.373-22.627s-14.141-9.373-22.627-9.373h-114.758l201.398-201.36z" />
</font>
</defs>
</svg>
